%TF.GenerationSoftware,KiCad,Pcbnew,4.0.7*%
%TF.CreationDate,2018-05-23T21:05:09+03:00*%
%TF.ProjectId,Pci-e,5063692D652E6B696361645F70636200,rev?*%
%TF.FileFunction,Copper,L1,Top,Mixed*%
%FSLAX46Y46*%
G04 Gerber Fmt 4.6, Leading zero omitted, Abs format (unit mm)*
G04 Created by KiCad (PCBNEW 4.0.7) date 05/23/18 21:05:09*
%MOMM*%
%LPD*%
G01*
G04 APERTURE LIST*
%ADD10C,0.100000*%
%ADD11C,0.900000*%
%ADD12C,2.650000*%
%ADD13R,0.750000X0.800000*%
%ADD14R,1.600000X1.000000*%
%ADD15R,2.950000X2.700000*%
%ADD16R,1.000000X2.500000*%
%ADD17R,1.900000X1.600000*%
%ADD18R,1.060000X0.650000*%
%ADD19R,1.200000X0.900000*%
%ADD20R,3.000000X3.000000*%
%ADD21C,3.000000*%
%ADD22C,3.300000*%
%ADD23O,0.609600X1.473200*%
%ADD24R,0.900000X0.800000*%
%ADD25R,0.650000X1.060000*%
%ADD26R,0.800000X0.750000*%
%ADD27R,0.900000X0.500000*%
%ADD28R,0.500000X0.900000*%
%ADD29R,1.300000X0.700000*%
%ADD30R,2.000000X2.600000*%
%ADD31O,2.000000X2.600000*%
%ADD32R,0.800000X0.800000*%
%ADD33C,0.600000*%
%ADD34C,4.500000*%
%ADD35R,0.700000X1.300000*%
%ADD36R,0.600000X0.500000*%
%ADD37R,2.800000X2.800000*%
%ADD38C,2.800000*%
%ADD39R,0.550000X0.900000*%
%ADD40R,0.200000X0.800000*%
%ADD41R,0.550000X0.550000*%
%ADD42R,0.200000X1.000000*%
%ADD43R,0.710000X1.300000*%
%ADD44R,0.710000X1.850000*%
%ADD45C,1.300000*%
%ADD46C,0.200000*%
%ADD47C,0.300000*%
%ADD48C,0.250000*%
%ADD49C,0.500000*%
%ADD50C,4.000000*%
%ADD51C,1.000000*%
%ADD52C,0.700000*%
%ADD53C,0.600000*%
%ADD54C,0.650000*%
%ADD55C,0.152000*%
%ADD56C,0.150000*%
%ADD57C,0.254000*%
G04 APERTURE END LIST*
D10*
D11*
X-10649999Y-3260001D03*
X-11649999Y-1260001D03*
X-8649999Y-3260001D03*
X-6649999Y-3260001D03*
X-4649999Y-3260001D03*
X-2649999Y-3260001D03*
X-9649999Y-1260001D03*
X-7649999Y-1260001D03*
X-5649999Y-1260001D03*
X-3649999Y-1260001D03*
X-1649999Y-1260001D03*
X-11649999Y1239999D03*
X-10649999Y3239999D03*
X-8649999Y3239999D03*
X-9649999Y1239999D03*
X-6649999Y3239999D03*
X-7649999Y1239999D03*
X-2649999Y3239999D03*
X-3649999Y1239999D03*
X-5649999Y1239999D03*
X-4649999Y3239999D03*
X-1649999Y1239999D03*
X1350001Y-3260001D03*
X2350001Y-1260001D03*
X2350001Y1239999D03*
X1350001Y3239999D03*
D12*
X1Y-1D03*
D11*
X3350001Y-3260001D03*
X5350001Y-3260001D03*
X7350001Y-3260001D03*
X9350001Y-3260001D03*
X11350001Y-3260001D03*
X13350001Y-3260001D03*
X15350001Y-3260001D03*
X17350001Y-3260001D03*
X19350001Y-3260001D03*
X21350001Y-3260001D03*
X3350001Y3239999D03*
X5350001Y3239999D03*
X7350001Y3239999D03*
X9350001Y3239999D03*
X11350001Y3239999D03*
X13350001Y3239999D03*
X15350001Y3239999D03*
X17350001Y3239999D03*
X19350001Y3239999D03*
X21350001Y3239999D03*
X4350001Y1239999D03*
X6350001Y1239999D03*
X8350001Y1239999D03*
X10350001Y1239999D03*
X12350001Y1239999D03*
X14350001Y1239999D03*
X16350001Y1239999D03*
X18350001Y1239999D03*
X20350001Y1239999D03*
X4350001Y-1260001D03*
X6350001Y-1260001D03*
X8350001Y-1260001D03*
X10350001Y-1260001D03*
X12350001Y-1260001D03*
X14350001Y-1260001D03*
X16350001Y-1260001D03*
X18350001Y-1260001D03*
X20350001Y-1260001D03*
D12*
X73150001Y-1D03*
D11*
X22350001Y-1260001D03*
X23350001Y-3260001D03*
X24350001Y-1260001D03*
X25350001Y-3260001D03*
X26350001Y-1260001D03*
X27350001Y-3260001D03*
X28350001Y-1260001D03*
X29350001Y-3260001D03*
X30350001Y-1260001D03*
X31350001Y-3260001D03*
X32350001Y-1260001D03*
X33350001Y-3260001D03*
X34350001Y-1260001D03*
X35350001Y-3260001D03*
X36350001Y-1260001D03*
X37350001Y-3260001D03*
X38350001Y-1260001D03*
X39350001Y-3260001D03*
X40350001Y-1260001D03*
X41350001Y-3260001D03*
X42350001Y-1260001D03*
X43350001Y-3260001D03*
X44350001Y-1260001D03*
X45350001Y-3260001D03*
X46350001Y-1260001D03*
X47350001Y-3260001D03*
X48350001Y-1260001D03*
X49350001Y-3260001D03*
X50350001Y-1260001D03*
X51350001Y-3260001D03*
X52350001Y-1260001D03*
X53350001Y-3260001D03*
X54350001Y-1260001D03*
X55350001Y-3260001D03*
X56350001Y-1260001D03*
X57350001Y-3260001D03*
X58350001Y-1260001D03*
X59350001Y-3260001D03*
X60350001Y-1260001D03*
X61350001Y-3260001D03*
X62350001Y-1260001D03*
X63350001Y-3260001D03*
X64350001Y-1260001D03*
X65350001Y-3260001D03*
X66350001Y-1260001D03*
X67350001Y-3260001D03*
X68350001Y-1260001D03*
X69350001Y-3260001D03*
X70350001Y-1260001D03*
X71350001Y-3260001D03*
X22350001Y1239999D03*
X23350001Y3239999D03*
X24350001Y1239999D03*
X25350001Y3239999D03*
X26350001Y1239999D03*
X27350001Y3239999D03*
X28350001Y1239999D03*
X29350001Y3239999D03*
X30350001Y1239999D03*
X31350001Y3239999D03*
X32350001Y1239999D03*
X33350001Y3239999D03*
X34350001Y1239999D03*
X35350001Y3239999D03*
X36350001Y1239999D03*
X37350001Y3239999D03*
X38350001Y1239999D03*
X39350001Y3239999D03*
X40350001Y1239999D03*
X41350001Y3239999D03*
X42350001Y1239999D03*
X43350001Y3239999D03*
X44350001Y1239999D03*
X45350001Y3239999D03*
X46350001Y1239999D03*
X47350001Y3239999D03*
X48350001Y1239999D03*
X49350001Y3239999D03*
X50350001Y1239999D03*
X51350001Y3239999D03*
X52350001Y1239999D03*
X53350001Y3239999D03*
X54350001Y1239999D03*
X55350001Y3239999D03*
X56350001Y1239999D03*
X57350001Y3239999D03*
X58350001Y1239999D03*
X59350001Y3239999D03*
X60350001Y1239999D03*
X61350001Y3239999D03*
X62350001Y1239999D03*
X63350001Y3239999D03*
X64350001Y1239999D03*
X65350001Y3239999D03*
X66350001Y1239999D03*
X67350001Y3239999D03*
X68350001Y1239999D03*
X69350001Y3239999D03*
X70350001Y1239999D03*
X71350001Y3239999D03*
D13*
X-7820000Y8980000D03*
X-7820000Y7480000D03*
D14*
X-5990000Y6350000D03*
X-5990000Y9350000D03*
D15*
X-46825000Y-11580000D03*
X-53575000Y-11580000D03*
X-46825000Y-6680000D03*
X-53575000Y-6680000D03*
D16*
X-51300000Y-2250000D03*
X-54300000Y-2250000D03*
X-51300000Y920000D03*
X-54300000Y920000D03*
D17*
X-14216235Y7655151D03*
X-10116235Y7655151D03*
D13*
X-20640000Y2480000D03*
X-20640000Y980000D03*
D18*
X-16446235Y5075151D03*
X-16446235Y6025151D03*
X-16446235Y6975151D03*
X-18646235Y6975151D03*
X-18646235Y5075151D03*
X-18646235Y6025151D03*
D19*
X-21840000Y-9380000D03*
X-21840000Y-12680000D03*
D20*
X-26790000Y-7080000D03*
D21*
X-30990000Y-7080000D03*
X-35190000Y-7080000D03*
X-39390000Y-7080000D03*
X-26790000Y-1580000D03*
X-30990000Y-1580000D03*
X-35190000Y-1580000D03*
X-39390000Y-1580000D03*
D22*
X-26790000Y-14380000D03*
X-39390000Y-14380000D03*
D23*
X-47795000Y-2484000D03*
X-46525000Y-2484000D03*
X-45255000Y-2484000D03*
X-43985000Y-2484000D03*
X-43985000Y3104000D03*
X-45255000Y3104000D03*
X-46525000Y3104000D03*
X-47795000Y3104000D03*
D24*
X-32950000Y1190000D03*
X-32950000Y3090000D03*
X-34950000Y2140000D03*
X-32950000Y6042244D03*
X-32950000Y7942244D03*
X-34950000Y6992244D03*
D25*
X-47240000Y-18550000D03*
X-46290000Y-18550000D03*
X-45340000Y-18550000D03*
X-45340000Y-16350000D03*
X-47240000Y-16350000D03*
X-46290000Y-16350000D03*
D13*
X-16450000Y8250000D03*
X-16450000Y9750000D03*
X-17920000Y-4770000D03*
X-17920000Y-3270000D03*
D26*
X-17820000Y3200000D03*
X-16320000Y3200000D03*
D13*
X-19890000Y-10920000D03*
X-19890000Y-9420000D03*
D27*
X-19330000Y1130000D03*
X-19330000Y2630000D03*
D28*
X-22150000Y3830000D03*
X-20650000Y3830000D03*
X-22150000Y5190000D03*
X-20650000Y5190000D03*
X-30150000Y1190000D03*
X-31650000Y1190000D03*
X-31650000Y5952245D03*
X-30150000Y5952245D03*
D29*
X-36600000Y3140000D03*
X-36600000Y1240000D03*
X-38460000Y3140000D03*
X-38460000Y1240000D03*
X-36600000Y7940000D03*
X-36600000Y6040000D03*
D28*
X-30150000Y8052245D03*
X-31650000Y8052245D03*
D27*
X-43570000Y-18570000D03*
X-43570000Y-20070000D03*
X-43570000Y-16060000D03*
X-43570000Y-17560000D03*
X-43570000Y-13480000D03*
X-43570000Y-14980000D03*
X-48900000Y-18760000D03*
X-48900000Y-17260000D03*
D29*
X-4360000Y-8250001D03*
X-4360000Y-6350001D03*
D30*
X-14660000Y-7090000D03*
D31*
X-12120000Y-7090000D03*
X-9580000Y-7090000D03*
D32*
X-6010000Y-8200000D03*
X-6010000Y-6600000D03*
X-50350000Y-17010000D03*
X-50350000Y-18610000D03*
D33*
X5900000Y-7360000D03*
X6800000Y-7360000D03*
X8300000Y-7360000D03*
X9200000Y-7360000D03*
X10700000Y-7360000D03*
X11600000Y-7360000D03*
X21500000Y-7360000D03*
X22400000Y-7360000D03*
X23900000Y-7360000D03*
X24800000Y-7360000D03*
X26300000Y-7360000D03*
X27200000Y-7360000D03*
X28700000Y-7360000D03*
X29600000Y-7360000D03*
X40700000Y-7360000D03*
X41600000Y-7360000D03*
X43100000Y-7360000D03*
X44000000Y-7360000D03*
X45500000Y-7360000D03*
X46400000Y-7360000D03*
X47900000Y-7360000D03*
X48800000Y-7360000D03*
X59900000Y-7360000D03*
X60800000Y-7360000D03*
X62300000Y-7360000D03*
X63200000Y-7360000D03*
X64700000Y-7360000D03*
X65600000Y-7360000D03*
X67100000Y-7360000D03*
X68000000Y-7360000D03*
D34*
X-52860000Y6990000D03*
X78840000Y6990000D03*
X78840000Y-18010000D03*
X-20160000Y-18010000D03*
D32*
X-51750000Y-17010000D03*
X-51750000Y-18610000D03*
D35*
X-49870000Y-15350000D03*
X-51770000Y-15350000D03*
D36*
X-54600000Y-15790000D03*
X-53300000Y-15280000D03*
X-54600000Y-14770000D03*
D33*
X3500000Y-7360000D03*
X4400000Y-7360000D03*
D26*
X-45180000Y-14780000D03*
X-46680000Y-14780000D03*
D14*
X-21990000Y-2520000D03*
X-21990000Y-5520000D03*
X-3710000Y6360000D03*
X-3710000Y9360000D03*
X-20550000Y9750000D03*
X-20550000Y6750000D03*
X-22820000Y9750000D03*
X-22820000Y6750000D03*
D37*
X-46822000Y7786000D03*
D38*
X-41322000Y7786000D03*
D13*
X-19660000Y-4770000D03*
X-19660000Y-3270000D03*
D29*
X-53780000Y-17060000D03*
X-53780000Y-18960000D03*
D39*
X50000Y-8790000D03*
D40*
X1350000Y-8740000D03*
D41*
X1950000Y-9665000D03*
D42*
X2150000Y-8640000D03*
D40*
X2550000Y-8740000D03*
X2950000Y-8740000D03*
D42*
X3350000Y-8640000D03*
D40*
X3750000Y-8740000D03*
X4150000Y-8740000D03*
D42*
X4550000Y-8640000D03*
D40*
X4950000Y-8740000D03*
X5350000Y-8740000D03*
D42*
X5750000Y-8640000D03*
D40*
X6150000Y-8740000D03*
X6550000Y-8740000D03*
D42*
X6950000Y-8640000D03*
D40*
X7350000Y-8740000D03*
X7750000Y-8740000D03*
D42*
X8150000Y-8640000D03*
D40*
X8550000Y-8740000D03*
X8950000Y-8740000D03*
D42*
X9350000Y-8640000D03*
D40*
X9750000Y-8740000D03*
X10150000Y-8740000D03*
D42*
X10550000Y-8640000D03*
D40*
X10950000Y-8740000D03*
X11350000Y-8740000D03*
D42*
X11750000Y-8640000D03*
D40*
X12150000Y-8740000D03*
X12550000Y-8740000D03*
X950000Y-8740000D03*
D39*
X13450000Y-8790000D03*
D40*
X1750000Y-8740000D03*
D41*
X4350000Y-9665000D03*
X6750000Y-9665000D03*
X9150000Y-9665000D03*
X11550000Y-9665000D03*
D43*
X-1690000Y-9540000D03*
D44*
X-1690000Y-11860000D03*
D43*
X15190000Y-9540000D03*
D44*
X15190000Y-11860000D03*
D39*
X19250000Y-8790000D03*
D40*
X20550000Y-8740000D03*
D41*
X21150000Y-9665000D03*
D42*
X21350000Y-8640000D03*
D40*
X21750000Y-8740000D03*
X22150000Y-8740000D03*
D42*
X22550000Y-8640000D03*
D40*
X22950000Y-8740000D03*
X23350000Y-8740000D03*
D42*
X23750000Y-8640000D03*
D40*
X24150000Y-8740000D03*
X24550000Y-8740000D03*
D42*
X24950000Y-8640000D03*
D40*
X25350000Y-8740000D03*
X25750000Y-8740000D03*
D42*
X26150000Y-8640000D03*
D40*
X26550000Y-8740000D03*
X26950000Y-8740000D03*
D42*
X27350000Y-8640000D03*
D40*
X27750000Y-8740000D03*
X28150000Y-8740000D03*
D42*
X28550000Y-8640000D03*
D40*
X28950000Y-8740000D03*
X29350000Y-8740000D03*
D42*
X29750000Y-8640000D03*
D40*
X30150000Y-8740000D03*
X30550000Y-8740000D03*
D42*
X30950000Y-8640000D03*
D40*
X31350000Y-8740000D03*
X31750000Y-8740000D03*
X20150000Y-8740000D03*
D39*
X32650000Y-8790000D03*
D40*
X20950000Y-8740000D03*
D41*
X23550000Y-9665000D03*
X25950000Y-9665000D03*
X28350000Y-9665000D03*
X30750000Y-9665000D03*
D43*
X17510000Y-9540000D03*
D44*
X17510000Y-11860000D03*
D43*
X34390000Y-9540000D03*
D44*
X34390000Y-11860000D03*
D39*
X38450000Y-8790000D03*
D40*
X39750000Y-8740000D03*
D41*
X40350000Y-9665000D03*
D42*
X40550000Y-8640000D03*
D40*
X40950000Y-8740000D03*
X41350000Y-8740000D03*
D42*
X41750000Y-8640000D03*
D40*
X42150000Y-8740000D03*
X42550000Y-8740000D03*
D42*
X42950000Y-8640000D03*
D40*
X43350000Y-8740000D03*
X43750000Y-8740000D03*
D42*
X44150000Y-8640000D03*
D40*
X44550000Y-8740000D03*
X44950000Y-8740000D03*
D42*
X45350000Y-8640000D03*
D40*
X45750000Y-8740000D03*
X46150000Y-8740000D03*
D42*
X46550000Y-8640000D03*
D40*
X46950000Y-8740000D03*
X47350000Y-8740000D03*
D42*
X47750000Y-8640000D03*
D40*
X48150000Y-8740000D03*
X48550000Y-8740000D03*
D42*
X48950000Y-8640000D03*
D40*
X49350000Y-8740000D03*
X49750000Y-8740000D03*
D42*
X50150000Y-8640000D03*
D40*
X50550000Y-8740000D03*
X50950000Y-8740000D03*
X39350000Y-8740000D03*
D39*
X51850000Y-8790000D03*
D40*
X40150000Y-8740000D03*
D41*
X42750000Y-9665000D03*
X45150000Y-9665000D03*
X47550000Y-9665000D03*
X49950000Y-9665000D03*
D43*
X36710000Y-9540000D03*
D44*
X36710000Y-11860000D03*
D43*
X53590000Y-9540000D03*
D44*
X53590000Y-11860000D03*
D39*
X57650000Y-8790000D03*
D40*
X58950000Y-8740000D03*
D41*
X59550000Y-9665000D03*
D42*
X59750000Y-8640000D03*
D40*
X60150000Y-8740000D03*
X60550000Y-8740000D03*
D42*
X60950000Y-8640000D03*
D40*
X61350000Y-8740000D03*
X61750000Y-8740000D03*
D42*
X62150000Y-8640000D03*
D40*
X62550000Y-8740000D03*
X62950000Y-8740000D03*
D42*
X63350000Y-8640000D03*
D40*
X63750000Y-8740000D03*
X64150000Y-8740000D03*
D42*
X64550000Y-8640000D03*
D40*
X64950000Y-8740000D03*
X65350000Y-8740000D03*
D42*
X65750000Y-8640000D03*
D40*
X66150000Y-8740000D03*
X66550000Y-8740000D03*
D42*
X66950000Y-8640000D03*
D40*
X67350000Y-8740000D03*
X67750000Y-8740000D03*
D42*
X68150000Y-8640000D03*
D40*
X68550000Y-8740000D03*
X68950000Y-8740000D03*
D42*
X69350000Y-8640000D03*
D40*
X69750000Y-8740000D03*
X70150000Y-8740000D03*
X58550000Y-8740000D03*
D39*
X71050000Y-8790000D03*
D40*
X59350000Y-8740000D03*
D41*
X61950000Y-9665000D03*
X64350000Y-9665000D03*
X66750000Y-9665000D03*
X69150000Y-9665000D03*
D43*
X55910000Y-9540000D03*
D44*
X55910000Y-11860000D03*
D43*
X72790000Y-9540000D03*
D44*
X72790000Y-11860000D03*
D33*
X-1680000Y7880000D03*
X-1680000Y9560000D03*
X-1680000Y8720000D03*
X-4880000Y-4250000D03*
X-99265Y-7939265D03*
X59750000Y-9640000D03*
X62150000Y-9640000D03*
X60950000Y-9640000D03*
X63350000Y-9640000D03*
X64550000Y-9640000D03*
X65750000Y-9640000D03*
X66950000Y-9640000D03*
X68150000Y-9640000D03*
X69350000Y-9640000D03*
X48950000Y-9640000D03*
X46550000Y-9640000D03*
X44150000Y-9640000D03*
X41750000Y-9640000D03*
X29750000Y-9640000D03*
X27350000Y-9640000D03*
X24950000Y-9640000D03*
X22550000Y-9640000D03*
X11750000Y-9640000D03*
X10550000Y-9640000D03*
X9350000Y-9640000D03*
X8150000Y-9640000D03*
X6950000Y-9640000D03*
X5750000Y-9640000D03*
X4550000Y-9640000D03*
X3350000Y-9640000D03*
X2150000Y-9640000D03*
X50150000Y-9640000D03*
X47750000Y-9640000D03*
X45350000Y-9640000D03*
X42950000Y-9640000D03*
X40550000Y-9640000D03*
X30950000Y-9640000D03*
X28550000Y-9640000D03*
X26150000Y-9640000D03*
X23750000Y-9640000D03*
X21350000Y-9640000D03*
X-31470000Y-13930000D03*
X-55760000Y-8950000D03*
X-54610000Y-8950000D03*
X-53460000Y-4450000D03*
X-54610000Y-4450000D03*
X-52310000Y-8950000D03*
X-53460000Y-8950000D03*
X-55760000Y1550000D03*
X-55760000Y50000D03*
X-55760000Y-1450000D03*
X-55760000Y-2950000D03*
X-55760000Y-4450000D03*
X-55760000Y-5950000D03*
X-55760000Y-7450000D03*
X-55760000Y-10450000D03*
X-55760000Y-11950000D03*
X-55760000Y-13450000D03*
X-23530000Y4940000D03*
X-17500000Y-10920000D03*
X-18300000Y-10920000D03*
X-16980000Y4250000D03*
X-15920000Y4250000D03*
X-33770000Y-13930000D03*
X-29170000Y-13930000D03*
X-30320000Y-13930000D03*
X-32620000Y-13930000D03*
X-39680000Y10020000D03*
X-40830000Y10020000D03*
X-18060000Y-7220000D03*
X-19060000Y-7220000D03*
X-20060000Y-7220000D03*
X-21060000Y-7220000D03*
X-22060000Y-7220000D03*
X-23060000Y-7220000D03*
X-25710000Y6540000D03*
X-26710000Y6540000D03*
X-26710000Y7540000D03*
X-25710000Y7540000D03*
X-39680000Y7020000D03*
X-39680000Y8520000D03*
X-39680000Y5520000D03*
X-40830000Y5520000D03*
X-41980000Y5520000D03*
X-43130000Y5520000D03*
X-44280000Y5520000D03*
X-17700000Y6970000D03*
X-19590000Y3830000D03*
X-30150000Y3650000D03*
X-1410000Y-6920000D03*
X-36670000Y4500000D03*
X-43410000Y-7450000D03*
X-43410000Y-5950000D03*
X-44560000Y-5950000D03*
X-44560000Y-7450000D03*
X-44560000Y-10450000D03*
X-44560000Y-11950000D03*
X-43410000Y-11950000D03*
X-43410000Y-10450000D03*
X-43410000Y-8950000D03*
X-44560000Y-8950000D03*
X-45710000Y-8950000D03*
X-46860000Y-8950000D03*
X-48010000Y-8950000D03*
X-49160000Y-5950000D03*
X-49160000Y-7450000D03*
X-49160000Y-8950000D03*
X-49160000Y-13450000D03*
X-49160000Y-10450000D03*
X-49160000Y-11950000D03*
X-45710000Y-13450000D03*
X-48010000Y-13450000D03*
X-44800000Y-20070000D03*
X-48440000Y-14930000D03*
X-46860000Y-13450000D03*
D45*
X-1680000Y8720000D02*
X-1680000Y7880000D01*
X-1680000Y9560000D02*
X-1680000Y8720000D01*
D46*
X50000Y-8790000D02*
X50000Y-8088530D01*
X50000Y-8088530D02*
X-99265Y-7939265D01*
D47*
X-6010000Y-6600000D02*
X-6010000Y-4721546D01*
X-6010000Y-4721546D02*
X-5564227Y-4275773D01*
D46*
X26150000Y-8740000D02*
X26150000Y-9640000D01*
D48*
X45350000Y-9640000D02*
X46550000Y-9640000D01*
X66950000Y-9640000D02*
X68150000Y-9640000D01*
X59750000Y-9640000D02*
X60950000Y-9640000D01*
X64550000Y-9640000D02*
X65750000Y-9640000D01*
X68150000Y-9640000D02*
X69350000Y-9640000D01*
X65750000Y-9640000D02*
X66950000Y-9640000D01*
X63350000Y-9640000D02*
X64550000Y-9640000D01*
X60950000Y-9640000D02*
X62150000Y-9640000D01*
X69350000Y-9640000D02*
X70375000Y-9640000D01*
X70375000Y-9640000D02*
X71050000Y-8965000D01*
X71050000Y-8965000D02*
X71050000Y-8790000D01*
X59750000Y-9640000D02*
X69350000Y-9640000D01*
D46*
X59750000Y-8740000D02*
X59750000Y-9640000D01*
X62150000Y-8740000D02*
X62150000Y-9640000D01*
X60950000Y-8740000D02*
X60950000Y-9640000D01*
X63350000Y-8740000D02*
X63350000Y-9640000D01*
X64550000Y-8740000D02*
X64550000Y-9640000D01*
X65750000Y-8740000D02*
X65750000Y-9640000D01*
X66950000Y-8740000D02*
X66950000Y-9640000D01*
X68150000Y-8740000D02*
X68150000Y-9640000D01*
X69350000Y-8740000D02*
X69350000Y-9640000D01*
D48*
X59550000Y-9665000D02*
X58389998Y-9665000D01*
X58389998Y-9665000D02*
X57650000Y-8925002D01*
X57650000Y-8925002D02*
X57650000Y-8790000D01*
D46*
X46550000Y-9640000D02*
X47750000Y-9640000D01*
X44150000Y-9640000D02*
X45350000Y-9640000D01*
X41750000Y-9640000D02*
X42950000Y-9640000D01*
D48*
X44150000Y-9640000D02*
X48950000Y-9640000D01*
X48950000Y-9640000D02*
X50150000Y-9640000D01*
D46*
X48950000Y-8740000D02*
X48950000Y-9640000D01*
X46550000Y-8740000D02*
X46550000Y-9640000D01*
D48*
X41750000Y-9640000D02*
X44150000Y-9640000D01*
D46*
X44150000Y-8740000D02*
X44150000Y-9640000D01*
D48*
X40550000Y-9640000D02*
X41750000Y-9640000D01*
D46*
X41750000Y-8740000D02*
X41750000Y-9640000D01*
X50150000Y-8740000D02*
X50150000Y-9640000D01*
X47750000Y-8740000D02*
X47750000Y-9640000D01*
X45350000Y-8740000D02*
X45350000Y-9640000D01*
X42950000Y-8740000D02*
X42950000Y-9640000D01*
X40550000Y-8740000D02*
X40550000Y-9640000D01*
X21350000Y-8740000D02*
X21350000Y-9640000D01*
X22550000Y-8740000D02*
X22550000Y-9640000D01*
X30950000Y-8740000D02*
X30950000Y-9640000D01*
D48*
X28550000Y-9640000D02*
X29750000Y-9640000D01*
X29750000Y-9640000D02*
X30950000Y-9640000D01*
D46*
X29750000Y-8740000D02*
X29750000Y-9640000D01*
X28550000Y-8740000D02*
X28550000Y-9640000D01*
D48*
X26150000Y-9640000D02*
X27350000Y-9640000D01*
X27350000Y-9640000D02*
X28550000Y-9640000D01*
D46*
X27350000Y-8740000D02*
X27350000Y-9640000D01*
D48*
X23750000Y-9640000D02*
X24950000Y-9640000D01*
X24950000Y-9640000D02*
X26150000Y-9640000D01*
D46*
X24950000Y-8740000D02*
X24950000Y-9640000D01*
X23750000Y-8740000D02*
X23750000Y-9640000D01*
D48*
X55910000Y-9540000D02*
X55910000Y-11860000D01*
X72790000Y-9540000D02*
X72790000Y-11860000D01*
X71050000Y-8790000D02*
X72040000Y-8790000D01*
X72040000Y-8790000D02*
X72790000Y-9540000D01*
X55910000Y-9540000D02*
X56660000Y-8790000D01*
X56660000Y-8790000D02*
X57650000Y-8790000D01*
X53590000Y-9540000D02*
X55910000Y-9540000D01*
X53590000Y-9540000D02*
X53590000Y-11860000D01*
X51850000Y-8790000D02*
X52840000Y-8790000D01*
X52840000Y-8790000D02*
X53590000Y-9540000D01*
X50150000Y-9640000D02*
X51175000Y-9640000D01*
X51175000Y-9640000D02*
X51850000Y-8965000D01*
X51850000Y-8965000D02*
X51850000Y-8790000D01*
X40550000Y-9640000D02*
X39125000Y-9640000D01*
X39125000Y-9640000D02*
X38450000Y-8965000D01*
X38450000Y-8965000D02*
X38450000Y-8790000D01*
X38450000Y-8790000D02*
X37460000Y-8790000D01*
X37460000Y-8790000D02*
X36710000Y-9540000D01*
X36710000Y-9540000D02*
X36710000Y-11860000D01*
X34390000Y-9540000D02*
X36710000Y-9540000D01*
X34390000Y-9540000D02*
X34390000Y-11860000D01*
X32650000Y-8790000D02*
X33640000Y-8790000D01*
X33640000Y-8790000D02*
X34390000Y-9540000D01*
X30950000Y-9640000D02*
X31935002Y-9640000D01*
X31935002Y-9640000D02*
X32650000Y-8925002D01*
X32650000Y-8925002D02*
X32650000Y-8790000D01*
X22550000Y-9640000D02*
X23750000Y-9640000D01*
X21350000Y-9640000D02*
X22550000Y-9640000D01*
X21350000Y-9640000D02*
X19925000Y-9640000D01*
X19925000Y-9640000D02*
X19250000Y-8965000D01*
X19250000Y-8965000D02*
X19250000Y-8790000D01*
X11750000Y-9640000D02*
X12735002Y-9640000D01*
X12735002Y-9640000D02*
X13450000Y-8925002D01*
X13450000Y-8925002D02*
X13450000Y-8790000D01*
X10550000Y-9640000D02*
X11750000Y-9640000D01*
X9350000Y-9640000D02*
X10550000Y-9640000D01*
X8150000Y-9640000D02*
X9350000Y-9640000D01*
X6950000Y-9640000D02*
X8150000Y-9640000D01*
X5750000Y-9640000D02*
X6950000Y-9640000D01*
X3350000Y-9640000D02*
X4550000Y-9640000D01*
X2150000Y-9640000D02*
X3350000Y-9640000D01*
X725000Y-9640000D02*
X2150000Y-9640000D01*
X17510000Y-9540000D02*
X18260000Y-8790000D01*
X18260000Y-8790000D02*
X19250000Y-8790000D01*
X50000Y-8790000D02*
X-940000Y-8790000D01*
X-940000Y-8790000D02*
X-1690000Y-9540000D01*
X13450000Y-8790000D02*
X14440000Y-8790000D01*
X14440000Y-8790000D02*
X15190000Y-9540000D01*
D46*
X-1690000Y-9540000D02*
X-1690000Y-10390000D01*
X-1690000Y-10390000D02*
X-1690000Y-11860000D01*
X17510000Y-9540000D02*
X17510000Y-10390000D01*
X17510000Y-10390000D02*
X17510000Y-11860000D01*
D48*
X15190000Y-9540000D02*
X17510000Y-9540000D01*
D46*
X15190000Y-11860000D02*
X15190000Y-10735000D01*
X15190000Y-10735000D02*
X15190000Y-9540000D01*
X13450000Y-8965000D02*
X13450000Y-8790000D01*
D48*
X5750000Y-9640000D02*
X4550000Y-9640000D01*
X725000Y-9640000D02*
X50000Y-8965000D01*
D46*
X50000Y-8965000D02*
X50000Y-8790000D01*
X11750000Y-8740000D02*
X11750000Y-9640000D01*
X10550000Y-8740000D02*
X10550000Y-9640000D01*
X11750000Y-9640000D02*
X11575000Y-9640000D01*
X11575000Y-9640000D02*
X11550000Y-9665000D01*
X9350000Y-9640000D02*
X9175000Y-9640000D01*
X9175000Y-9640000D02*
X9150000Y-9665000D01*
X6950000Y-9640000D02*
X6775000Y-9640000D01*
X6775000Y-9640000D02*
X6750000Y-9665000D01*
X4550000Y-9640000D02*
X4375000Y-9640000D01*
X4375000Y-9640000D02*
X4350000Y-9665000D01*
X2150000Y-9640000D02*
X1975000Y-9640000D01*
X1975000Y-9640000D02*
X1950000Y-9665000D01*
X9350000Y-8740000D02*
X9350000Y-9640000D01*
X8150000Y-8740000D02*
X8150000Y-9640000D01*
X6950000Y-8740000D02*
X6950000Y-9640000D01*
X5750000Y-8740000D02*
X5750000Y-9640000D01*
X4550000Y-8740000D02*
X4550000Y-9640000D01*
X3350000Y-8740000D02*
X3350000Y-9640000D01*
X2150000Y-8740000D02*
X2150000Y-9640000D01*
X28350000Y-9665000D02*
X28350000Y-9740000D01*
X25950000Y-9665000D02*
X25950000Y-9740000D01*
X23550000Y-9665000D02*
X23550000Y-9740000D01*
X21150000Y-9665000D02*
X21150000Y-9740000D01*
D49*
X-16980000Y4250000D02*
X-16450000Y4250000D01*
X-16450000Y4250000D02*
X-15920000Y4250000D01*
X-16446235Y5075151D02*
X-16446235Y4250151D01*
X-16446235Y4250151D02*
X-16446386Y4250000D01*
X-16446386Y4250000D02*
X-16450000Y4250000D01*
D48*
X-7820000Y8980000D02*
X-8445000Y8980000D01*
X-9215000Y9750000D02*
X-16450000Y9750000D01*
X-8445000Y8980000D02*
X-9215000Y9750000D01*
X-7100000Y9290000D02*
X-7100000Y9075000D01*
X-7100000Y9075000D02*
X-7195000Y8980000D01*
X-7195000Y8980000D02*
X-7820000Y8980000D01*
X-5990000Y9350000D02*
X-7040000Y9350000D01*
X-7040000Y9350000D02*
X-7100000Y9290000D01*
X-3710000Y9360000D02*
X-5980000Y9360000D01*
X-5980000Y9360000D02*
X-5990000Y9350000D01*
X-15725000Y9650000D02*
X-15310000Y9650000D01*
X-16450000Y9750000D02*
X-15825000Y9750000D01*
X-15825000Y9750000D02*
X-15725000Y9650000D01*
D45*
X-19760000Y9650000D02*
X-17620000Y9650000D01*
D48*
X-19860000Y9750000D02*
X-19760000Y9650000D01*
X-20200000Y9750000D02*
X-19860000Y9750000D01*
D46*
X-21200000Y9750000D02*
X-20200000Y9750000D01*
D45*
X-27830000Y9650000D02*
X-25050000Y9650000D01*
X-28360000Y9120000D02*
X-27830000Y9650000D01*
X-28360000Y9070000D02*
X-28360000Y9120000D01*
D50*
X-26790000Y-1580000D02*
X-39390000Y-1580000D01*
D48*
X-54610000Y-4450000D02*
X-53460000Y-4450000D01*
X-55760000Y-4450000D02*
X-54610000Y-4450000D01*
X-53460000Y-8950000D02*
X-52310000Y-8950000D01*
X-54610000Y-8950000D02*
X-53460000Y-8950000D01*
X-55760000Y-8950000D02*
X-54610000Y-8950000D01*
X-55760000Y-10450000D02*
X-55760000Y-11950000D01*
X-55760000Y-7450000D02*
X-55760000Y-8950000D01*
X-53575000Y-6680000D02*
X-55300000Y-6680000D01*
X-55300000Y-6680000D02*
X-55760000Y-7140000D01*
X-55760000Y-7140000D02*
X-55760000Y-7450000D01*
X-55760000Y-4450000D02*
X-55760000Y-5950000D01*
X-55760000Y-2950000D02*
X-55760000Y-4450000D01*
X-55760000Y-1450000D02*
X-55760000Y-2950000D01*
X-55760000Y50000D02*
X-55760000Y-1450000D01*
X-54300000Y920000D02*
X-54890000Y920000D01*
X-54890000Y920000D02*
X-55760000Y50000D01*
X-54300000Y920000D02*
X-55130000Y920000D01*
X-55130000Y920000D02*
X-55760000Y1550000D01*
X-53710000Y-13315000D02*
X-55625000Y-13315000D01*
X-55625000Y-13315000D02*
X-55760000Y-13450000D01*
X-53575000Y-11580000D02*
X-53575000Y-13180000D01*
X-53575000Y-13180000D02*
X-53710000Y-13315000D01*
D47*
X-43570000Y-13480000D02*
X-43880000Y-13480000D01*
X-43880000Y-13480000D02*
X-45180000Y-14780000D01*
X-41860000Y-13371998D02*
X-41968002Y-13480000D01*
X-41968002Y-13480000D02*
X-43570000Y-13480000D01*
D51*
X-42460001Y-21450001D02*
X-41860000Y-20850000D01*
X-41860000Y-20850000D02*
X-41860000Y-20080000D01*
X-46020000Y-21450001D02*
X-42460001Y-21450001D01*
D48*
X-35190000Y-1580000D02*
X-33690001Y-80001D01*
X-33690001Y-80001D02*
X-33690001Y90001D01*
X-33690001Y90001D02*
X-34000000Y400000D01*
D47*
X-31382245Y9070000D02*
X-28360000Y9070000D01*
D45*
X-28340000Y9090000D02*
X-28340000Y-30000D01*
D48*
X-28360000Y9070000D02*
X-28340000Y9090000D01*
D45*
X-28340000Y-30000D02*
X-26790000Y-1580000D01*
D52*
X-24650000Y-11170000D02*
X-24650000Y-9510000D01*
X-21840000Y-12680000D02*
X-23140000Y-12680000D01*
X-23140000Y-12680000D02*
X-24650000Y-11170000D01*
X-19890000Y-10920000D02*
X-19890000Y-12030000D01*
X-19890000Y-12030000D02*
X-20540000Y-12680000D01*
X-20540000Y-12680000D02*
X-21840000Y-12680000D01*
D47*
X-22420000Y3830000D02*
X-23530000Y4940000D01*
X-22150000Y3830000D02*
X-22420000Y3830000D01*
X-54600000Y-15790000D02*
X-54650000Y-15790000D01*
X-54650000Y-15790000D02*
X-55220000Y-16360000D01*
X-55220000Y-16360000D02*
X-55220000Y-16660000D01*
D51*
X-55220000Y-21080000D02*
X-55220000Y-16660000D01*
X-54849999Y-21450001D02*
X-55220000Y-21080000D01*
X-54839999Y-21450001D02*
X-54849999Y-21450001D01*
D48*
X-55660000Y-9390000D02*
X-55660000Y-10540000D01*
X-55660000Y-7090000D02*
X-55660000Y-8240000D01*
X-55660000Y-4790000D02*
X-55660000Y-5940000D01*
X-53820000Y-3790000D02*
X-55660000Y-3790000D01*
X-53990000Y-7890000D02*
X-53990000Y-10290000D01*
X-53990000Y-5490000D02*
X-53990000Y-7890000D01*
X-53990000Y-5490000D02*
X-53990000Y-3960000D01*
X-5564227Y-3760000D02*
X-5564227Y-4275773D01*
X-53990000Y-3960000D02*
X-53820000Y-3790000D01*
D52*
X-18300000Y-10920000D02*
X-17500000Y-10920000D01*
X-19890000Y-10920000D02*
X-18300000Y-10920000D01*
X-19890000Y-10920000D02*
X-19890000Y-11130000D01*
D48*
X-7034998Y-4035002D02*
X-7173603Y-3896397D01*
X-5564227Y-3760000D02*
X-6002996Y-3760000D01*
X-6002996Y-3760000D02*
X-6277998Y-4035002D01*
X-6277998Y-4035002D02*
X-7034998Y-4035002D01*
X-5649999Y-1260001D02*
X-5649999Y-3674228D01*
X-5649999Y-3674228D02*
X-5564227Y-3760000D01*
D47*
X-31650000Y8052245D02*
X-31650000Y8802245D01*
X-31650000Y8802245D02*
X-31382245Y9070000D01*
X-32950000Y7942244D02*
X-31760001Y7942244D01*
X-31760001Y7942244D02*
X-31650000Y8052245D01*
D53*
X-5564227Y-3760000D02*
X-5470000Y-3854227D01*
D49*
X-46290000Y-18550000D02*
X-46290000Y-19580000D01*
X-46290000Y-19580000D02*
X-46020000Y-19850000D01*
X-46020000Y-19850000D02*
X-46020000Y-21450001D01*
D48*
X-46290000Y-21180001D02*
X-46020000Y-21450001D01*
D51*
X-46020000Y-21450001D02*
X-54839999Y-21450001D01*
X-41860000Y-13371998D02*
X-41860000Y-20080000D01*
X-35395736Y-11880000D02*
X-40368002Y-11880000D01*
X-40368002Y-11880000D02*
X-41860000Y-13371998D01*
D48*
X-33770000Y-13930000D02*
X-33770000Y-13505736D01*
X-33770000Y-13505736D02*
X-35395736Y-11880000D01*
D53*
X-16446235Y5075151D02*
X-16446235Y4976235D01*
X-16446235Y5075151D02*
X-16446235Y4983765D01*
D47*
X-16446235Y5075151D02*
X-16446235Y5073765D01*
X-16446235Y5075151D02*
X-16445151Y5075151D01*
D48*
X-45180000Y-14930000D02*
X-45155000Y-14930000D01*
X-26790000Y-1580000D02*
X-26790000Y-2650000D01*
X-34000000Y400000D02*
X-34000000Y2040000D01*
X-34000000Y2040000D02*
X-32950000Y3090000D01*
X-35190000Y-1580000D02*
X-35190000Y-1410000D01*
X-22150000Y5550000D02*
X-22480000Y5880000D01*
X-22480000Y5880000D02*
X-22480000Y6520000D01*
X-22150000Y5190000D02*
X-22150000Y5550000D01*
D52*
X-19039848Y7850152D02*
X-20229848Y7850152D01*
X-20229848Y7850152D02*
X-20550000Y7530000D01*
X-20550000Y7530000D02*
X-20550000Y6750000D01*
D48*
X-22480000Y6520000D02*
X-22250000Y6750000D01*
X-22250000Y6750000D02*
X-21200000Y6750000D01*
D52*
X-16450000Y8250000D02*
X-18640000Y8250000D01*
X-18640000Y8250000D02*
X-19039848Y7850152D01*
D48*
X-24940000Y6540000D02*
X-24730000Y6750000D01*
X-24730000Y6750000D02*
X-23470000Y6750000D01*
X-25710000Y6540000D02*
X-24940000Y6540000D01*
D47*
X-16446235Y6975151D02*
X-16446235Y7306235D01*
X-16446235Y7306235D02*
X-16450000Y7310000D01*
D52*
X-16450000Y8250000D02*
X-16450000Y7310000D01*
D51*
X-25710000Y6540000D02*
X-25710000Y7100000D01*
X-25710000Y7100000D02*
X-25710000Y7540000D01*
D48*
X-40830000Y10020000D02*
X-39680000Y10020000D01*
D51*
X-40830000Y8520000D02*
X-42760000Y8520000D01*
X-42760000Y8520000D02*
X-43100000Y8180000D01*
D52*
X-21840000Y-9380000D02*
X-19930000Y-9380000D01*
X-19930000Y-9380000D02*
X-19890000Y-9420000D01*
X-21840000Y-9380000D02*
X-21840000Y-7440000D01*
X-21840000Y-7440000D02*
X-22060000Y-7220000D01*
X-19890000Y-9420000D02*
X-18620000Y-9420000D01*
X-18620000Y-9420000D02*
X-18330000Y-9710000D01*
X-12490000Y-9710000D02*
X-12120000Y-9340000D01*
X-18330000Y-9710000D02*
X-12490000Y-9710000D01*
X-12120000Y-9340000D02*
X-12120000Y-7340000D01*
D48*
X-22510000Y-6670000D02*
X-23060000Y-7220000D01*
D51*
X-26710000Y7115736D02*
X-26710000Y6540000D01*
X-26710000Y7540000D02*
X-26710000Y7115736D01*
D48*
X-39680000Y7020000D02*
X-40830000Y7020000D01*
X-39680000Y8520000D02*
X-39680000Y7020000D01*
X-40830000Y8520000D02*
X-39680000Y8520000D01*
X-43130000Y8520000D02*
X-41980000Y8520000D01*
X-40830000Y5520000D02*
X-39680000Y5520000D01*
X-41980000Y5520000D02*
X-40830000Y5520000D01*
X-43130000Y5520000D02*
X-41980000Y5520000D01*
X-44280000Y5520000D02*
X-43130000Y5520000D01*
X-18646235Y6975151D02*
X-17705151Y6975151D01*
X-17705151Y6975151D02*
X-17700000Y6970000D01*
D47*
X-19330000Y2630000D02*
X-19330000Y3570000D01*
X-19330000Y3570000D02*
X-19590000Y3830000D01*
D48*
X-20640000Y3820000D02*
X-20650000Y3830000D01*
X-20640000Y2480000D02*
X-19480000Y2480000D01*
X-19480000Y2480000D02*
X-19330000Y2630000D01*
D47*
X-19590000Y3830000D02*
X-20650000Y3830000D01*
X-17820000Y3200000D02*
X-17845000Y3200000D01*
X-17845000Y3200000D02*
X-18646235Y4001235D01*
X-18646235Y4001235D02*
X-18646235Y4276235D01*
X-18646235Y5075151D02*
X-18646235Y4276235D01*
X-16320000Y3200000D02*
X-15620000Y3200000D01*
X-14980000Y3840000D02*
X-14980000Y4140000D01*
X-15620000Y3200000D02*
X-14980000Y3840000D01*
X-14980000Y4140000D02*
X-14980000Y6020000D01*
D54*
X-16446235Y6025151D02*
X-14985151Y6025151D01*
X-14985151Y6025151D02*
X-14980000Y6020000D01*
D45*
X-14216235Y6783765D02*
X-14980000Y6020000D01*
D51*
X-14216235Y7655151D02*
X-14216235Y6783765D01*
D46*
X-1649999Y-1260001D02*
X-1649999Y-1896397D01*
X-1649999Y-1896397D02*
X-330010Y-3216386D01*
X-330010Y-3216386D02*
X-330010Y-6294291D01*
X-330010Y-6294291D02*
X1350000Y-7974302D01*
X1350000Y-7974302D02*
X1350000Y-8740000D01*
X1625002Y780000D02*
X715004Y1689998D01*
X715004Y1689998D02*
X-1200000Y1689998D01*
X-1200000Y1689998D02*
X-1649999Y1239999D01*
X70000Y-6128604D02*
X70000Y-2335004D01*
X70000Y-2335004D02*
X1625002Y-780002D01*
X1625002Y-780002D02*
X1625002Y780000D01*
X1750000Y-8740000D02*
X1750000Y-7808604D01*
X1750000Y-7808604D02*
X70000Y-6128604D01*
D55*
X2198000Y-2787040D02*
X3220000Y-1765040D01*
X3220000Y-1765040D02*
X3220000Y1769996D01*
X2198000Y-4352960D02*
X2198000Y-2787040D01*
X2598000Y-8392000D02*
X2598000Y-4752960D01*
X2550000Y-8740000D02*
X2550000Y-8440000D01*
X2550000Y-8440000D02*
X2598000Y-8392000D01*
X2598000Y-4752960D02*
X2198000Y-4352960D01*
X3220000Y1769996D02*
X2949998Y2039998D01*
X2949998Y2039998D02*
X2650000Y2039998D01*
X2650000Y2039998D02*
X2350001Y1739999D01*
X2350001Y1739999D02*
X2350001Y1239999D01*
X3750000Y-8740000D02*
X3750000Y-8440000D01*
X3750000Y-8440000D02*
X3798000Y-8392000D01*
X3798000Y-8392000D02*
X3798001Y-7658001D01*
X3798001Y-7658001D02*
X3500000Y-7360000D01*
X6800000Y-7360000D02*
X6501999Y-7658001D01*
X6501999Y-7658001D02*
X6502000Y-8392000D01*
X6502000Y-8392000D02*
X6550000Y-8440000D01*
X6550000Y-8440000D02*
X6550000Y-8740000D01*
X9200000Y-7360000D02*
X8901999Y-7658001D01*
X8901999Y-7658001D02*
X8902000Y-8392000D01*
X8902000Y-8392000D02*
X8950000Y-8440000D01*
X8950000Y-8440000D02*
X8950000Y-8740000D01*
X11302000Y-8392000D02*
X11350000Y-8440000D01*
X11600000Y-7360000D02*
X11301999Y-7658001D01*
X11301999Y-7658001D02*
X11302000Y-8392000D01*
X11350000Y-8440000D02*
X11350000Y-8740000D01*
X2502000Y-2912960D02*
X3524002Y-1890958D01*
X3524002Y-1890958D02*
X3524002Y1895918D01*
X2502000Y-4227040D02*
X2502000Y-2912960D01*
X2902000Y-4627040D02*
X2502000Y-4227040D01*
X2950000Y-8740000D02*
X2950000Y-8440000D01*
X2950000Y-8440000D02*
X2902000Y-8392000D01*
X2902000Y-8392000D02*
X2902000Y-4627040D01*
X3350001Y2069919D02*
X3350001Y3239999D01*
X3524002Y1895918D02*
X3350001Y2069919D01*
X4198000Y-2717040D02*
X5175991Y-1739049D01*
X5175991Y-1739049D02*
X5175991Y1895925D01*
X4198000Y-4212960D02*
X4198000Y-2717040D01*
X4950000Y-8740000D02*
X4950000Y-8440000D01*
X4950000Y-8440000D02*
X4998000Y-8392000D01*
X4998000Y-8392000D02*
X4998000Y-5012960D01*
X4998000Y-5012960D02*
X4198000Y-4212960D01*
X5175991Y1895925D02*
X5350001Y2069935D01*
X5350001Y2069935D02*
X5350001Y3239999D01*
X11350001Y2069919D02*
X11350001Y3239999D01*
X11530000Y1889920D02*
X11350001Y2069919D01*
X10982960Y-2492000D02*
X11530000Y-1944960D01*
X11530000Y-1944960D02*
X11530000Y1889920D01*
X8972960Y-2492000D02*
X10982960Y-2492000D01*
X7750000Y-8740000D02*
X7750000Y-8440000D01*
X7750000Y-8440000D02*
X7702000Y-8392000D01*
X7702000Y-4772960D02*
X8482000Y-3992960D01*
X7702000Y-8392000D02*
X7702000Y-4772960D01*
X8482000Y-2982960D02*
X8972960Y-2492000D01*
X8482000Y-3992960D02*
X8482000Y-2982960D01*
X10102000Y-5797040D02*
X10792954Y-5106086D01*
X15524002Y-1900958D02*
X15524002Y1895918D01*
X13798874Y-5106086D02*
X14512000Y-4392960D01*
X10150000Y-8740000D02*
X10150000Y-8440000D01*
X10150000Y-8440000D02*
X10102000Y-8392000D01*
X10102000Y-8392000D02*
X10102000Y-5797040D01*
X10792954Y-5106086D02*
X13798874Y-5106086D01*
X14512000Y-4392960D02*
X14512000Y-2912960D01*
X14512000Y-2912960D02*
X15524002Y-1900958D01*
X15524002Y1895918D02*
X15350001Y2069919D01*
X15350001Y2069919D02*
X15350001Y3239999D01*
X18562000Y-2822960D02*
X18562000Y-4072960D01*
X19524002Y-1860958D02*
X18562000Y-2822960D01*
X12550000Y-8440000D02*
X12550000Y-8740000D01*
X19524002Y1895918D02*
X19524002Y-1860958D01*
X19350001Y3239999D02*
X19350001Y2069919D01*
X19350001Y2069919D02*
X19524002Y1895918D01*
X18562000Y-4072960D02*
X16302960Y-6332000D01*
X16302960Y-6332000D02*
X13523086Y-6332000D01*
X13523086Y-6332000D02*
X12502000Y-7353086D01*
X12502000Y-7353086D02*
X12502000Y-8392000D01*
X12502000Y-8392000D02*
X12550000Y-8440000D01*
X4502000Y-2842960D02*
X5480000Y-1864960D01*
X5480000Y-1864960D02*
X5480000Y1770000D01*
X4502000Y-4087040D02*
X4502000Y-2842960D01*
X5350000Y-8740000D02*
X5350000Y-8440000D01*
X5350000Y-8440000D02*
X5302000Y-8392000D01*
X5302000Y-8392000D02*
X5302000Y-4887040D01*
X5302000Y-4887040D02*
X4502000Y-4087040D01*
X5480000Y1770000D02*
X5750000Y2040000D01*
X5750000Y2040000D02*
X6050000Y2040000D01*
X6050000Y2040000D02*
X6350001Y1739999D01*
X6350001Y1739999D02*
X6350001Y1239999D01*
X11220000Y1769996D02*
X10949998Y2039998D01*
X10949998Y2039998D02*
X10650000Y2039998D01*
X10650000Y2039998D02*
X10350001Y1739999D01*
X10350001Y1739999D02*
X10350001Y1239999D01*
X11220000Y-1825040D02*
X11220000Y1769996D01*
X10857040Y-2188000D02*
X11220000Y-1825040D01*
X8847040Y-2188000D02*
X10857040Y-2188000D01*
X7350000Y-8740000D02*
X7350000Y-8440000D01*
X7350000Y-8440000D02*
X7398000Y-8392000D01*
X7398000Y-8392000D02*
X7398000Y-4647040D01*
X7398000Y-4647040D02*
X8178000Y-3867040D01*
X8178000Y-3867040D02*
X8178000Y-2857040D01*
X8178000Y-2857040D02*
X8847040Y-2188000D01*
X9798000Y-5635700D02*
X10656660Y-4777040D01*
X9750000Y-8440000D02*
X9798000Y-8392000D01*
X14208000Y-2787040D02*
X15220000Y-1775040D01*
X9798000Y-8392000D02*
X9798000Y-5635700D01*
X9750000Y-8740000D02*
X9750000Y-8440000D01*
X14949998Y2039998D02*
X14650000Y2039998D01*
X10656660Y-4777040D02*
X13698000Y-4777040D01*
X13698000Y-4777040D02*
X14208000Y-4267040D01*
X14350001Y1739999D02*
X14350001Y1239999D01*
X14208000Y-4267040D02*
X14208000Y-2787040D01*
X15220000Y1769996D02*
X14949998Y2039998D01*
X15220000Y-1775040D02*
X15220000Y1769996D01*
X14650000Y2039998D02*
X14350001Y1739999D01*
X18258000Y-2697040D02*
X18258000Y-3947040D01*
X18350001Y1239999D02*
X18350001Y1739999D01*
X18650000Y2039998D02*
X18949998Y2039998D01*
X18350001Y1739999D02*
X18650000Y2039998D01*
X18949998Y2039998D02*
X19220000Y1769996D01*
X19220000Y1769996D02*
X19220000Y-1735040D01*
X19220000Y-1735040D02*
X18258000Y-2697040D01*
X16177040Y-6028000D02*
X13397166Y-6028000D01*
X18258000Y-3947040D02*
X16177040Y-6028000D01*
X12198000Y-8392000D02*
X12150000Y-8440000D01*
X13397166Y-6028000D02*
X12198000Y-7227166D01*
X12198000Y-7227166D02*
X12198000Y-8392000D01*
X12150000Y-8440000D02*
X12150000Y-8740000D01*
X4150000Y-8740000D02*
X4150000Y-8440000D01*
X4101999Y-7658001D02*
X4400000Y-7360000D01*
X4150000Y-8440000D02*
X4102000Y-8392000D01*
X4102000Y-8392000D02*
X4101999Y-7658001D01*
X6150000Y-8440000D02*
X6150000Y-8740000D01*
X5900000Y-7360000D02*
X6198001Y-7658001D01*
X6198000Y-8392000D02*
X6150000Y-8440000D01*
X6198001Y-7658001D02*
X6198000Y-8392000D01*
X8550000Y-8440000D02*
X8550000Y-8740000D01*
X8300000Y-7360000D02*
X8598001Y-7658001D01*
X8598001Y-7658001D02*
X8598000Y-8392000D01*
X8598000Y-8392000D02*
X8550000Y-8440000D01*
X10998001Y-7658001D02*
X10998000Y-8392000D01*
X10950000Y-8440000D02*
X10950000Y-8740000D01*
X10700000Y-7360000D02*
X10998001Y-7658001D01*
X10998000Y-8392000D02*
X10950000Y-8440000D01*
D46*
X950000Y-8740000D02*
X950000Y-8140000D01*
X950000Y-8140000D02*
X-270000Y-6920000D01*
X-270000Y-6920000D02*
X-1410000Y-6920000D01*
D48*
X-30150000Y1890000D02*
X-30150000Y3650000D01*
X-30150000Y3650000D02*
X-30150000Y5952245D01*
X-30150000Y5952245D02*
X-30150000Y8052245D01*
X-30150000Y1190000D02*
X-30150000Y1890000D01*
X-30120000Y1220000D02*
X-30150000Y1190000D01*
X-36670000Y5440000D02*
X-36670000Y4500000D01*
X-36670000Y6040000D02*
X-36670000Y5440000D01*
X-38460000Y1240000D02*
X-41600000Y1240000D01*
X-41600000Y1240000D02*
X-43985000Y-1145000D01*
X-43985000Y-1145000D02*
X-43985000Y-2484000D01*
X-38460000Y1240000D02*
X-36600000Y1240000D01*
X-32950000Y1190000D02*
X-31650000Y1190000D01*
X-34950000Y2140000D02*
X-34950000Y2790000D01*
X-34950000Y2790000D02*
X-35300000Y3140000D01*
X-35300000Y3140000D02*
X-36600000Y3140000D01*
X-31650000Y5952245D02*
X-32860001Y5952245D01*
X-32860001Y5952245D02*
X-32950000Y6042244D01*
X-34950000Y7710000D02*
X-35180000Y7940000D01*
X-35180000Y7940000D02*
X-36670000Y7940000D01*
X-34950000Y6992244D02*
X-34950000Y7710000D01*
X-19350000Y5990000D02*
X-18681386Y5990000D01*
X-18681386Y5990000D02*
X-18646235Y6025151D01*
X-20650000Y5190000D02*
X-20150000Y5190000D01*
X-20150000Y5190000D02*
X-19350000Y5990000D01*
D47*
X-4360000Y-8250001D02*
X-5959999Y-8250001D01*
X-5959999Y-8250001D02*
X-6010000Y-8200000D01*
D48*
X-43570000Y-16060000D02*
X-43570000Y-14980000D01*
X-43570000Y-16060000D02*
X-45050000Y-16060000D01*
X-45050000Y-16060000D02*
X-45340000Y-16350000D01*
D55*
X21750000Y-8440000D02*
X21798000Y-8392000D01*
X21750000Y-8740000D02*
X21750000Y-8440000D01*
X21798000Y-8392000D02*
X21798001Y-7658001D01*
X21798001Y-7658001D02*
X21500000Y-7360000D01*
X22150000Y-8440000D02*
X22102000Y-8392000D01*
X22150000Y-8740000D02*
X22150000Y-8440000D01*
X22102000Y-8392000D02*
X22101999Y-7658001D01*
X22101999Y-7658001D02*
X22400000Y-7360000D01*
X24150000Y-8740000D02*
X24150000Y-8440000D01*
X24198001Y-7658001D02*
X23900000Y-7360000D01*
X24150000Y-8440000D02*
X24198000Y-8392000D01*
X24198000Y-8392000D02*
X24198001Y-7658001D01*
X24550000Y-8440000D02*
X24502000Y-8392000D01*
X24502000Y-8392000D02*
X24501999Y-7658001D01*
X24501999Y-7658001D02*
X24800000Y-7360000D01*
X24550000Y-8740000D02*
X24550000Y-8440000D01*
X26550000Y-8740000D02*
X26550000Y-8440000D01*
X26598000Y-8392000D02*
X26598001Y-7658001D01*
X26550000Y-8440000D02*
X26598000Y-8392000D01*
X26598001Y-7658001D02*
X26300000Y-7360000D01*
X26950000Y-8740000D02*
X26950000Y-8440000D01*
X26950000Y-8440000D02*
X26902000Y-8392000D01*
X26902000Y-8392000D02*
X26901999Y-7658001D01*
X26901999Y-7658001D02*
X27200000Y-7360000D01*
X28950000Y-8740000D02*
X28950000Y-8440000D01*
X28950000Y-8440000D02*
X28998000Y-8392000D01*
X28998001Y-7658001D02*
X28700000Y-7360000D01*
X28998000Y-8392000D02*
X28998001Y-7658001D01*
X29350000Y-8740000D02*
X29350000Y-8440000D01*
X29350000Y-8440000D02*
X29302000Y-8392000D01*
X29302000Y-8392000D02*
X29301999Y-7658001D01*
X29301999Y-7658001D02*
X29600000Y-7360000D01*
X40950000Y-8740000D02*
X40950000Y-8440000D01*
X40950000Y-8440000D02*
X40998000Y-8392000D01*
X40998000Y-8392000D02*
X40998001Y-7658001D01*
X40998001Y-7658001D02*
X40700000Y-7360000D01*
X41302000Y-8392000D02*
X41301999Y-7658001D01*
X41350000Y-8740000D02*
X41350000Y-8440000D01*
X41350000Y-8440000D02*
X41302000Y-8392000D01*
X41301999Y-7658001D02*
X41600000Y-7360000D01*
X43350000Y-8740000D02*
X43350000Y-8440000D01*
X43350000Y-8440000D02*
X43398000Y-8392000D01*
X43398000Y-8392000D02*
X43398001Y-7658001D01*
X43398001Y-7658001D02*
X43100000Y-7360000D01*
X43702000Y-8392000D02*
X43701999Y-7658001D01*
X43750000Y-8740000D02*
X43750000Y-8440000D01*
X43750000Y-8440000D02*
X43702000Y-8392000D01*
X43701999Y-7658001D02*
X44000000Y-7360000D01*
X45750000Y-8740000D02*
X45750000Y-8440000D01*
X45750000Y-8440000D02*
X45798000Y-8392000D01*
X45798000Y-8392000D02*
X45798001Y-7658001D01*
X45798001Y-7658001D02*
X45500000Y-7360000D01*
X46150000Y-8740000D02*
X46150000Y-8440000D01*
X46150000Y-8440000D02*
X46102000Y-8392000D01*
X46102000Y-8392000D02*
X46101999Y-7658001D01*
X46101999Y-7658001D02*
X46400000Y-7360000D01*
X48150000Y-8740000D02*
X48150000Y-8440000D01*
X48198000Y-8392000D02*
X48198001Y-7658001D01*
X48150000Y-8440000D02*
X48198000Y-8392000D01*
X48198001Y-7658001D02*
X47900000Y-7360000D01*
X48550000Y-8740000D02*
X48550000Y-8440000D01*
X48550000Y-8440000D02*
X48502000Y-8392000D01*
X48502000Y-8392000D02*
X48501999Y-7658001D01*
X48501999Y-7658001D02*
X48800000Y-7360000D01*
X60150000Y-8440000D02*
X60198000Y-8392000D01*
X60150000Y-8740000D02*
X60150000Y-8440000D01*
X60198000Y-8392000D02*
X60198001Y-7658001D01*
X60198001Y-7658001D02*
X59900000Y-7360000D01*
X60550000Y-8740000D02*
X60550000Y-8440000D01*
X60550000Y-8440000D02*
X60502000Y-8392000D01*
X60502000Y-8392000D02*
X60501999Y-7658001D01*
X60501999Y-7658001D02*
X60800000Y-7360000D01*
X62550000Y-8740000D02*
X62550000Y-8440000D01*
X62550000Y-8440000D02*
X62598000Y-8392000D01*
X62598000Y-8392000D02*
X62598001Y-7658001D01*
X62598001Y-7658001D02*
X62300000Y-7360000D01*
X62901999Y-7658001D02*
X63200000Y-7360000D01*
X62950000Y-8740000D02*
X62950000Y-8440000D01*
X62950000Y-8440000D02*
X62902000Y-8392000D01*
X62902000Y-8392000D02*
X62901999Y-7658001D01*
X64998000Y-8392000D02*
X64998001Y-7658001D01*
X64950000Y-8740000D02*
X64950000Y-8440000D01*
X64950000Y-8440000D02*
X64998000Y-8392000D01*
X64998001Y-7658001D02*
X64700000Y-7360000D01*
X65350000Y-8740000D02*
X65350000Y-8440000D01*
X65350000Y-8440000D02*
X65302000Y-8392000D01*
X65302000Y-8392000D02*
X65301999Y-7658001D01*
X65301999Y-7658001D02*
X65600000Y-7360000D01*
X67350000Y-8740000D02*
X67350000Y-8440000D01*
X67350000Y-8440000D02*
X67398000Y-8392000D01*
X67398000Y-8392000D02*
X67398001Y-7658001D01*
X67398001Y-7658001D02*
X67100000Y-7360000D01*
X67701999Y-7658001D02*
X68000000Y-7360000D01*
X67750000Y-8740000D02*
X67750000Y-8440000D01*
X67750000Y-8440000D02*
X67702000Y-8392000D01*
X67702000Y-8392000D02*
X67701999Y-7658001D01*
X24228000Y-2717040D02*
X25220000Y-1725040D01*
X25220000Y-1725040D02*
X25220000Y1769996D01*
X24228000Y-4317040D02*
X24228000Y-2717040D01*
X22950000Y-8740000D02*
X22950000Y-8440000D01*
X22950000Y-8440000D02*
X22998000Y-8392000D01*
X22998000Y-8392000D02*
X22998000Y-5547040D01*
X22998000Y-5547040D02*
X24228000Y-4317040D01*
X24350001Y1739999D02*
X24350001Y1239999D01*
X25220000Y1769996D02*
X24949998Y2039998D01*
X24949998Y2039998D02*
X24650000Y2039998D01*
X24650000Y2039998D02*
X24350001Y1739999D01*
X24532000Y-2842960D02*
X25524002Y-1850958D01*
X25524002Y-1850958D02*
X25524002Y1895918D01*
X24532000Y-4442960D02*
X24532000Y-2842960D01*
X23302000Y-8392000D02*
X23302000Y-5672960D01*
X23350000Y-8740000D02*
X23350000Y-8440000D01*
X23350000Y-8440000D02*
X23302000Y-8392000D01*
X23302000Y-5672960D02*
X24532000Y-4442960D01*
X25350001Y2069919D02*
X25350001Y3239999D01*
X25524002Y1895918D02*
X25350001Y2069919D01*
X25350000Y-8740000D02*
X25350000Y-8440000D01*
X28350001Y1739999D02*
X28350001Y1239999D01*
X25350000Y-8440000D02*
X25398000Y-8392000D01*
X25398000Y-6405700D02*
X28208000Y-3595700D01*
X28650000Y2039998D02*
X28350001Y1739999D01*
X25398000Y-8392000D02*
X25398000Y-6405700D01*
X28208000Y-2787040D02*
X29220000Y-1775040D01*
X28208000Y-3595700D02*
X28208000Y-2787040D01*
X29220000Y-1775040D02*
X29220000Y1769996D01*
X28949998Y2039998D02*
X28650000Y2039998D01*
X29220000Y1769996D02*
X28949998Y2039998D01*
X25750000Y-8740000D02*
X25750000Y-8440000D01*
X29524002Y-1900958D02*
X29524002Y1895918D01*
X25750000Y-8440000D02*
X25702000Y-8392000D01*
X25702000Y-8392000D02*
X25702000Y-6567040D01*
X25702000Y-6567040D02*
X28512000Y-3757040D01*
X28512000Y-3757040D02*
X28512000Y-2912960D01*
X28512000Y-2912960D02*
X29524002Y-1900958D01*
X29524002Y1895918D02*
X29350001Y2069919D01*
X29350001Y2069919D02*
X29350001Y3239999D01*
X32650000Y2039998D02*
X32949998Y2039998D01*
X33220000Y1769996D02*
X33220000Y-1705040D01*
X32350001Y1739999D02*
X32650000Y2039998D01*
X27750000Y-8440000D02*
X27750000Y-8740000D01*
X32198000Y-2727040D02*
X32198000Y-4337040D01*
X32350001Y1239999D02*
X32350001Y1739999D01*
X32198000Y-4337040D02*
X31615879Y-4919161D01*
X32949998Y2039998D02*
X33220000Y1769996D01*
X33220000Y-1705040D02*
X32198000Y-2727040D01*
X27798000Y-8392000D02*
X27750000Y-8440000D01*
X31615879Y-4919161D02*
X29204539Y-4919161D01*
X29204539Y-4919161D02*
X27798000Y-6325700D01*
X27798000Y-6325700D02*
X27798000Y-8392000D01*
X31716753Y-5248207D02*
X29340833Y-5248207D01*
X33350001Y3239999D02*
X33350001Y2069919D01*
X28102000Y-8392000D02*
X28150000Y-8440000D01*
X32502000Y-2852960D02*
X32502000Y-4462960D01*
X33350001Y2069919D02*
X33524002Y1895918D01*
X33524002Y1895918D02*
X33524002Y-1830958D01*
X33524002Y-1830958D02*
X32502000Y-2852960D01*
X32502000Y-4462960D02*
X31716753Y-5248207D01*
X29340833Y-5248207D02*
X28102000Y-6487040D01*
X28102000Y-6487040D02*
X28102000Y-8392000D01*
X28150000Y-8440000D02*
X28150000Y-8740000D01*
X36949998Y2039998D02*
X36650000Y2039998D01*
X37220000Y-1695040D02*
X37220000Y1769996D01*
X36650000Y2039998D02*
X36350001Y1739999D01*
X32108001Y-5657039D02*
X34948001Y-5657039D01*
X30150000Y-8740000D02*
X30150000Y-8440000D01*
X30150000Y-8440000D02*
X30198000Y-8392000D01*
X30198000Y-8392000D02*
X30198000Y-7567040D01*
X30198000Y-7567040D02*
X32108001Y-5657039D01*
X34948001Y-5657039D02*
X36198000Y-4407040D01*
X36198000Y-4407040D02*
X36198000Y-2717040D01*
X37220000Y1769996D02*
X36949998Y2039998D01*
X36198000Y-2717040D02*
X37220000Y-1695040D01*
X36350001Y1739999D02*
X36350001Y1239999D01*
X37350001Y2069919D02*
X37350001Y3239999D01*
X30550000Y-8740000D02*
X30550000Y-8440000D01*
X36502000Y-4532960D02*
X36502000Y-2842960D01*
X30502000Y-8392000D02*
X30502000Y-7692960D01*
X32208876Y-5986084D02*
X35048876Y-5986084D01*
X30550000Y-8440000D02*
X30502000Y-8392000D01*
X30502000Y-7692960D02*
X32208876Y-5986084D01*
X35048876Y-5986084D02*
X36502000Y-4532960D01*
X36502000Y-2842960D02*
X37524002Y-1820958D01*
X37524002Y-1820958D02*
X37524002Y1895918D01*
X37524002Y1895918D02*
X37350001Y2069919D01*
X41350001Y2069935D02*
X41350001Y3239999D01*
X41175991Y1895925D02*
X41350001Y2069935D01*
X41175991Y-1930951D02*
X41175991Y1895925D01*
X42150000Y-8440000D02*
X42198000Y-8392000D01*
X42198000Y-8392000D02*
X42198000Y-2952960D01*
X42150000Y-8740000D02*
X42150000Y-8440000D01*
X42198000Y-2952960D02*
X41175991Y-1930951D01*
X42550000Y-8740000D02*
X42550000Y-8440000D01*
X42502000Y-8392000D02*
X42502000Y-2827040D01*
X42050000Y2040000D02*
X42350001Y1739999D01*
X41750000Y2040000D02*
X42050000Y2040000D01*
X42550000Y-8440000D02*
X42502000Y-8392000D01*
X42502000Y-2827040D02*
X41480000Y-1805040D01*
X41480000Y-1805040D02*
X41480000Y1770000D01*
X42350001Y1739999D02*
X42350001Y1239999D01*
X41480000Y1770000D02*
X41750000Y2040000D01*
X46198000Y-4417040D02*
X46198000Y-2932960D01*
X44598000Y-6017040D02*
X46198000Y-4417040D01*
X44550000Y-8740000D02*
X44550000Y-8440000D01*
X45175998Y1895922D02*
X45350001Y2069925D01*
X44550000Y-8440000D02*
X44598000Y-8392000D01*
X44598000Y-8392000D02*
X44598000Y-6017040D01*
X46198000Y-2932960D02*
X45175998Y-1910958D01*
X45175998Y-1910958D02*
X45175998Y1895922D01*
X45350001Y2069925D02*
X45350001Y3239999D01*
X46350001Y1739999D02*
X46350001Y1239999D01*
X44950000Y-8740000D02*
X44950000Y-8440000D01*
X44950000Y-8440000D02*
X44902000Y-8392000D01*
X44902000Y-8392000D02*
X44902000Y-6142960D01*
X46502000Y-2807040D02*
X45480000Y-1785040D01*
X45480000Y-1785040D02*
X45480000Y1770000D01*
X44902000Y-6142960D02*
X46502000Y-4542960D01*
X46502000Y-4542960D02*
X46502000Y-2807040D01*
X45480000Y1770000D02*
X45750000Y2040000D01*
X45750000Y2040000D02*
X46050000Y2040000D01*
X46050000Y2040000D02*
X46350001Y1739999D01*
X48218000Y-2827040D02*
X49175991Y-1869049D01*
X49350001Y2069935D02*
X49350001Y3239999D01*
X46950000Y-8740000D02*
X46950000Y-8440000D01*
X46998000Y-8392000D02*
X46998000Y-5467040D01*
X49175991Y-1869049D02*
X49175991Y1895925D01*
X46950000Y-8440000D02*
X46998000Y-8392000D01*
X46998000Y-5467040D02*
X48218000Y-4247040D01*
X48218000Y-4247040D02*
X48218000Y-2827040D01*
X49175991Y1895925D02*
X49350001Y2069935D01*
X48522000Y-2952960D02*
X49480000Y-1994960D01*
X49480000Y-1994960D02*
X49480000Y1770000D01*
X48522000Y-4372960D02*
X48522000Y-2952960D01*
X47350000Y-8740000D02*
X47350000Y-8440000D01*
X47350000Y-8440000D02*
X47302000Y-8392000D01*
X47302000Y-8392000D02*
X47302000Y-5592960D01*
X47302000Y-5592960D02*
X48522000Y-4372960D01*
X49750000Y2040000D02*
X49480000Y1770000D01*
X50050000Y2040000D02*
X49750000Y2040000D01*
X50350001Y1739999D02*
X50050000Y2040000D01*
X50350001Y1239999D02*
X50350001Y1739999D01*
X52218000Y-2747040D02*
X53175990Y-1789050D01*
X53175990Y-1789050D02*
X53175990Y1895925D01*
X52218000Y-3997040D02*
X52218000Y-2747040D01*
X51657040Y-4558000D02*
X52218000Y-3997040D01*
X50937040Y-4558000D02*
X51657040Y-4558000D01*
X49350000Y-8740000D02*
X49350000Y-8440000D01*
X49350000Y-8440000D02*
X49398000Y-8392000D01*
X49398000Y-8392000D02*
X49398000Y-6097040D01*
X49398000Y-6097040D02*
X50937040Y-4558000D01*
X53350001Y3239999D02*
X53350001Y2069936D01*
X53350001Y2069936D02*
X53175990Y1895925D01*
X52522000Y-2872960D02*
X53480000Y-1914960D01*
X53480000Y-1914960D02*
X53480000Y1770000D01*
X52522000Y-4122960D02*
X52522000Y-2872960D01*
X51782960Y-4862000D02*
X52522000Y-4122960D01*
X51062960Y-4862000D02*
X51782960Y-4862000D01*
X49750000Y-8740000D02*
X49750000Y-8440000D01*
X49750000Y-8440000D02*
X49702000Y-8392000D01*
X49702000Y-8392000D02*
X49702000Y-6222960D01*
X49702000Y-6222960D02*
X51062960Y-4862000D01*
X54050000Y2040000D02*
X54350001Y1739999D01*
X53750000Y2040000D02*
X54050000Y2040000D01*
X53480000Y1770000D02*
X53750000Y2040000D01*
X54350001Y1739999D02*
X54350001Y1239999D01*
X57737040Y-92000D02*
X57175998Y469042D01*
X57175998Y469042D02*
X57175998Y1895922D01*
X58587040Y-92000D02*
X57737040Y-92000D01*
X59208000Y-712960D02*
X58587040Y-92000D01*
X59208000Y-1982960D02*
X59208000Y-712960D01*
X60208000Y-2982960D02*
X59208000Y-1982960D01*
X61350000Y-8740000D02*
X61350000Y-8440000D01*
X61350000Y-8440000D02*
X61398000Y-8392000D01*
X61398000Y-8392000D02*
X61398000Y-5812960D01*
X61398000Y-5812960D02*
X60208000Y-4622960D01*
X60208000Y-4622960D02*
X60208000Y-2982960D01*
X57350001Y2069925D02*
X57350001Y3239999D01*
X57175998Y1895922D02*
X57350001Y2069925D01*
X57862960Y212000D02*
X57480000Y594960D01*
X57480000Y594960D02*
X57480000Y1770000D01*
X58712960Y212000D02*
X57862960Y212000D01*
X59512000Y-587040D02*
X58712960Y212000D01*
X59512000Y-1857040D02*
X59512000Y-587040D01*
X60512000Y-2857040D02*
X59512000Y-1857040D01*
X61750000Y-8740000D02*
X61750000Y-8440000D01*
X61702000Y-5687040D02*
X60512000Y-4497040D01*
X61750000Y-8440000D02*
X61702000Y-8392000D01*
X61702000Y-8392000D02*
X61702000Y-5687040D01*
X60512000Y-4497040D02*
X60512000Y-2857040D01*
X57750000Y2040000D02*
X58050000Y2040000D01*
X57480000Y1770000D02*
X57750000Y2040000D01*
X58050000Y2040000D02*
X58350001Y1739999D01*
X58350001Y1739999D02*
X58350001Y1239999D01*
X61175998Y1895922D02*
X61350001Y2069925D01*
X63750000Y-8440000D02*
X63798000Y-8392000D01*
X63750000Y-8740000D02*
X63750000Y-8440000D01*
X63798000Y-8392000D02*
X63798000Y-5992960D01*
X62198000Y-4392960D02*
X62198000Y-2872960D01*
X63798000Y-5992960D02*
X62198000Y-4392960D01*
X62198000Y-2872960D02*
X61175998Y-1850958D01*
X61350001Y2069925D02*
X61350001Y3239999D01*
X61175998Y-1850958D02*
X61175998Y1895922D01*
X62502000Y-2747040D02*
X61480000Y-1725040D01*
X64102000Y-8392000D02*
X64102000Y-5867040D01*
X64150000Y-8740000D02*
X64150000Y-8440000D01*
X64150000Y-8440000D02*
X64102000Y-8392000D01*
X64102000Y-5867040D02*
X62502000Y-4267040D01*
X62350001Y1739999D02*
X62350001Y1239999D01*
X62502000Y-4267040D02*
X62502000Y-2747040D01*
X61480000Y-1725040D02*
X61480000Y1770000D01*
X61480000Y1770000D02*
X61750000Y2040000D01*
X61750000Y2040000D02*
X62050000Y2040000D01*
X62050000Y2040000D02*
X62350001Y1739999D01*
X66198000Y-2942960D02*
X65175998Y-1920958D01*
X66150000Y-8740000D02*
X66150000Y-8440000D01*
X66150000Y-8440000D02*
X66198000Y-8392000D01*
X66198000Y-8392000D02*
X66198000Y-2942960D01*
X65175998Y1895922D02*
X65350001Y2069925D01*
X65175998Y-1920958D02*
X65175998Y1895922D01*
X65350001Y2069925D02*
X65350001Y3239999D01*
X65750000Y2040000D02*
X66050000Y2040000D01*
X66550000Y-8740000D02*
X66550000Y-8440000D01*
X66550000Y-8440000D02*
X66502000Y-8392000D01*
X66502000Y-8392000D02*
X66502000Y-2817040D01*
X66502000Y-2817040D02*
X65480000Y-1795040D01*
X66050000Y2040000D02*
X66350001Y1739999D01*
X65480000Y-1795040D02*
X65480000Y1770000D01*
X66350001Y1739999D02*
X66350001Y1239999D01*
X65480000Y1770000D02*
X65750000Y2040000D01*
X69175998Y1895922D02*
X69350001Y2069925D01*
X68550000Y-8740000D02*
X68550000Y-8440000D01*
X68550000Y-8440000D02*
X68598000Y-8392000D01*
X68598000Y-8392000D02*
X68598000Y-5534300D01*
X68598000Y-5534300D02*
X68198000Y-5134300D01*
X69175998Y-1759042D02*
X69175998Y1895922D01*
X68198000Y-5134300D02*
X68198000Y-2737040D01*
X68198000Y-2737040D02*
X69175998Y-1759042D01*
X69350001Y2069925D02*
X69350001Y3239999D01*
X68950000Y-8440000D02*
X68902000Y-8392000D01*
X69750000Y2040000D02*
X70050000Y2040000D01*
X68502000Y-4972960D02*
X68502000Y-2862960D01*
X68502000Y-2862960D02*
X69480000Y-1884960D01*
X69480000Y-1884960D02*
X69480000Y1770000D01*
X68902000Y-8392000D02*
X68902000Y-5372960D01*
X68950000Y-8740000D02*
X68950000Y-8440000D01*
X68902000Y-5372960D02*
X68502000Y-4972960D01*
X69480000Y1770000D02*
X69750000Y2040000D01*
X70050000Y2040000D02*
X70350001Y1739999D01*
X70350001Y1739999D02*
X70350001Y1239999D01*
D48*
X-43570000Y-18570000D02*
X-45320000Y-18570000D01*
X-45320000Y-18570000D02*
X-45340000Y-18550000D01*
X-43570000Y-18080000D02*
X-43570000Y-17560000D01*
X-43570000Y-18570000D02*
X-43570000Y-18080000D01*
X-51770000Y-15350000D02*
X-51770000Y-16990000D01*
X-51770000Y-16990000D02*
X-51750000Y-17010000D01*
X-51750000Y-17010000D02*
X-50350000Y-17010000D01*
X-51780000Y-16980000D02*
X-51750000Y-17010000D01*
X-51910000Y-17800000D02*
X-52345002Y-17800000D01*
X-52345002Y-17800000D02*
X-52620000Y-17525002D01*
X-52620000Y-17525002D02*
X-52620000Y-16385000D01*
X-51750000Y-18610000D02*
X-51750000Y-17960000D01*
X-51750000Y-17960000D02*
X-51910000Y-17800000D01*
X-52620000Y-16385000D02*
X-53300000Y-15705000D01*
X-53300000Y-15705000D02*
X-53300000Y-15280000D01*
X-53780000Y-17060000D02*
X-53780000Y-16180000D01*
X-53780000Y-16180000D02*
X-53930000Y-16030000D01*
X-53930000Y-16030000D02*
X-53930000Y-14940000D01*
X-53930000Y-14940000D02*
X-54100000Y-14770000D01*
X-54100000Y-14770000D02*
X-54600000Y-14770000D01*
X-53780000Y-18960000D02*
X-53780000Y-19560000D01*
X-53780000Y-19560000D02*
X-53660000Y-19680000D01*
X-53660000Y-19680000D02*
X-48720000Y-19680000D01*
X-48720000Y-19680000D02*
X-47800000Y-18760000D01*
X-48900000Y-18760000D02*
X-47800000Y-18760000D01*
X-47800000Y-18760000D02*
X-47450000Y-18760000D01*
X-47240000Y-18550000D02*
X-47240000Y-16350000D01*
X-47450000Y-18760000D02*
X-47240000Y-18550000D01*
X-48900000Y-18760000D02*
X-50200000Y-18760000D01*
X-50200000Y-18760000D02*
X-50350000Y-18610000D01*
X-46860000Y-8950000D02*
X-46860000Y-6715000D01*
X-46860000Y-6715000D02*
X-46825000Y-6680000D01*
X-44560000Y-5950000D02*
X-43410000Y-5950000D01*
X-44560000Y-8950000D02*
X-44560000Y-7450000D01*
X-43410000Y-11950000D02*
X-44560000Y-11950000D01*
X-43410000Y-10450000D02*
X-43410000Y-11950000D01*
X-43410000Y-8950000D02*
X-43410000Y-10450000D01*
X-46860000Y-8950000D02*
X-45710000Y-8950000D01*
X-49160000Y-8950000D02*
X-48010000Y-8950000D01*
X-49160000Y-7450000D02*
X-49160000Y-5950000D01*
X-49160000Y-10450000D02*
X-49160000Y-8950000D01*
X-45710000Y-13450000D02*
X-46860000Y-13450000D01*
D47*
X-48010000Y-13450000D02*
X-49160000Y-13450000D01*
X-46680000Y-14780000D02*
X-46680000Y-13630000D01*
X-46680000Y-13630000D02*
X-46860000Y-13450000D01*
D48*
X-46860000Y-13450000D02*
X-48010000Y-13450000D01*
X-45255000Y-2484000D02*
X-45255000Y-1335000D01*
X-39460000Y2440000D02*
X-38760000Y3140000D01*
X-45255000Y-1335000D02*
X-41480000Y2440000D01*
X-41480000Y2440000D02*
X-39460000Y2440000D01*
X-38760000Y3140000D02*
X-38460000Y3140000D01*
X-48780000Y-6270000D02*
X-47630000Y-6270000D01*
X-43570000Y-20070000D02*
X-44800000Y-20070000D01*
X-49870000Y-15350000D02*
X-48860000Y-15350000D01*
X-48860000Y-15350000D02*
X-48440000Y-14930000D01*
X-48900000Y-17260000D02*
X-48900000Y-15390000D01*
X-48900000Y-15390000D02*
X-48440000Y-14930000D01*
X-48440000Y-14930000D02*
X-47330000Y-14930000D01*
X-47330000Y-14930000D02*
X-46680000Y-14930000D01*
X-46680000Y-14930000D02*
X-46290000Y-15320000D01*
X-46290000Y-15320000D02*
X-46290000Y-16350000D01*
X-45330000Y-2111800D02*
X-45296200Y-2078000D01*
D47*
X-2649999Y-3896397D02*
X-4360000Y-5606398D01*
X-4360000Y-5606398D02*
X-4360000Y-6350001D01*
D54*
X-3649999Y1239999D02*
X-2980000Y1909998D01*
X-2980000Y1909998D02*
X-2980000Y4369999D01*
X-2980000Y4369999D02*
X-2649999Y4700000D01*
D48*
X-3710000Y6360000D02*
X-3710000Y5610000D01*
X-2800000Y4700000D02*
X-2649999Y4700000D01*
X-3710000Y5610000D02*
X-2800000Y4700000D01*
X-5990000Y6350000D02*
X-3720000Y6350000D01*
X-3720000Y6350000D02*
X-3710000Y6360000D01*
X-7820000Y7480000D02*
X-6370000Y7480000D01*
X-6370000Y7480000D02*
X-5990000Y7100000D01*
X-5990000Y7100000D02*
X-5990000Y6350000D01*
X-10116235Y7655151D02*
X-7995151Y7655151D01*
X-7995151Y7655151D02*
X-7820000Y7480000D01*
D54*
X-2649999Y-3260001D02*
X-2649999Y1219999D01*
X-2649999Y1219999D02*
X-2650000Y1220000D01*
X-2650000Y1220000D02*
X-2669999Y1239999D01*
X-2669999Y1239999D02*
X-3649999Y1239999D01*
X-2650000Y2603602D02*
X-2650000Y1220000D01*
X-2649999Y3239999D02*
X-2650000Y2603602D01*
D51*
X-4649999Y-3260001D02*
X-2649999Y-3260001D01*
D47*
X-2649999Y4700000D02*
X-12690000Y4700000D01*
X-12690000Y4700000D02*
X-16260000Y1130000D01*
X-16260000Y1130000D02*
X-19330000Y1130000D01*
X-2649999Y-3896397D02*
X-2649999Y-3260001D01*
D48*
X-4649999Y-3260001D02*
X-3650001Y-3260001D01*
X-3650001Y-3260001D02*
X-3710000Y-3320000D01*
D45*
X-2649999Y3239999D02*
X-2649999Y4700000D01*
D48*
X-20640000Y980000D02*
X-19480000Y980000D01*
X-19480000Y980000D02*
X-19330000Y1130000D01*
X-2870001Y-3260001D02*
X-2649999Y-3260001D01*
D47*
X-4640000Y-3270000D02*
X-4649999Y-3260001D01*
D56*
G36*
X-50268884Y2635393D02*
X-50230290Y2611567D01*
X-50198615Y2569813D01*
X-48282376Y-1253226D01*
X-48275079Y-1264948D01*
X-48230761Y-1323367D01*
X-48210408Y-1341856D01*
X-48148013Y-1380376D01*
X-48122363Y-1390287D01*
X-48050279Y-1403729D01*
X-48036530Y-1405000D01*
X-44796926Y-1405000D01*
X-44752549Y-1412052D01*
X-44717879Y-1429782D01*
X-44690420Y-1457378D01*
X-44672864Y-1492136D01*
X-44666034Y-1536550D01*
X-44674614Y-3252722D01*
X-44673423Y-3266416D01*
X-44660458Y-3338262D01*
X-44650760Y-3363865D01*
X-44612872Y-3426271D01*
X-44604691Y-3437318D01*
X-42531354Y-5757934D01*
X-42504396Y-5802212D01*
X-42495000Y-5853184D01*
X-42495000Y-12172612D01*
X-42505873Y-12227274D01*
X-42532651Y-12267349D01*
X-42572726Y-12294127D01*
X-42627388Y-12305000D01*
X-43619816Y-12305000D01*
X-43634029Y-12306359D01*
X-43708454Y-12320723D01*
X-43734836Y-12331300D01*
X-43798572Y-12372328D01*
X-43809787Y-12381164D01*
X-45258646Y-13765424D01*
X-45304184Y-13794738D01*
X-45357356Y-13805000D01*
X-49392612Y-13805000D01*
X-49447274Y-13794127D01*
X-49487349Y-13767349D01*
X-49514127Y-13727274D01*
X-49525000Y-13672612D01*
X-49525000Y-12073750D01*
X-48575000Y-12073750D01*
X-48575000Y-12984701D01*
X-48533134Y-13085775D01*
X-48455775Y-13163134D01*
X-48354701Y-13205000D01*
X-47318750Y-13205000D01*
X-47250000Y-13136250D01*
X-47250000Y-12005000D01*
X-46400000Y-12005000D01*
X-46400000Y-13136250D01*
X-46331250Y-13205000D01*
X-45295299Y-13205000D01*
X-45194225Y-13163134D01*
X-45116866Y-13085775D01*
X-45075000Y-12984701D01*
X-45075000Y-12073750D01*
X-45143750Y-12005000D01*
X-46400000Y-12005000D01*
X-47250000Y-12005000D01*
X-48506250Y-12005000D01*
X-48575000Y-12073750D01*
X-49525000Y-12073750D01*
X-49525000Y-10175299D01*
X-48575000Y-10175299D01*
X-48575000Y-11086250D01*
X-48506250Y-11155000D01*
X-47250000Y-11155000D01*
X-47250000Y-10023750D01*
X-46400000Y-10023750D01*
X-46400000Y-11155000D01*
X-45143750Y-11155000D01*
X-45075000Y-11086250D01*
X-45075000Y-10175299D01*
X-45116866Y-10074225D01*
X-45194225Y-9996866D01*
X-45295299Y-9955000D01*
X-46331250Y-9955000D01*
X-46400000Y-10023750D01*
X-47250000Y-10023750D01*
X-47318750Y-9955000D01*
X-48354701Y-9955000D01*
X-48455775Y-9996866D01*
X-48533134Y-10074225D01*
X-48575000Y-10175299D01*
X-49525000Y-10175299D01*
X-49525000Y-7173750D01*
X-48575000Y-7173750D01*
X-48575000Y-8084701D01*
X-48533134Y-8185775D01*
X-48455775Y-8263134D01*
X-48354701Y-8305000D01*
X-47318750Y-8305000D01*
X-47250000Y-8236250D01*
X-47250000Y-7105000D01*
X-46400000Y-7105000D01*
X-46400000Y-8236250D01*
X-46331250Y-8305000D01*
X-45295299Y-8305000D01*
X-45194225Y-8263134D01*
X-45116866Y-8185775D01*
X-45075000Y-8084701D01*
X-45075000Y-7173750D01*
X-45143750Y-7105000D01*
X-46400000Y-7105000D01*
X-47250000Y-7105000D01*
X-48506250Y-7105000D01*
X-48575000Y-7173750D01*
X-49525000Y-7173750D01*
X-49525000Y-6530102D01*
X-49526356Y-6515903D01*
X-49540693Y-6441543D01*
X-49551252Y-6415179D01*
X-49592209Y-6351481D01*
X-49601029Y-6340272D01*
X-50617080Y-5275299D01*
X-48575000Y-5275299D01*
X-48575000Y-6186250D01*
X-48506250Y-6255000D01*
X-47250000Y-6255000D01*
X-47250000Y-5123750D01*
X-46400000Y-5123750D01*
X-46400000Y-6255000D01*
X-45143750Y-6255000D01*
X-45075000Y-6186250D01*
X-45075000Y-5275299D01*
X-45116866Y-5174225D01*
X-45194225Y-5096866D01*
X-45295299Y-5055000D01*
X-46331250Y-5055000D01*
X-46400000Y-5123750D01*
X-47250000Y-5123750D01*
X-47318750Y-5055000D01*
X-48354701Y-5055000D01*
X-48455775Y-5096866D01*
X-48533134Y-5174225D01*
X-48575000Y-5275299D01*
X-50617080Y-5275299D01*
X-52185495Y-3631368D01*
X-52214757Y-3585859D01*
X-52225000Y-3532732D01*
X-52225000Y-2743750D01*
X-52075000Y-2743750D01*
X-52075000Y-3554701D01*
X-52033134Y-3655775D01*
X-51955775Y-3733134D01*
X-51854701Y-3775000D01*
X-51618750Y-3775000D01*
X-51550000Y-3706250D01*
X-51550000Y-2675000D01*
X-51050000Y-2675000D01*
X-51050000Y-3706250D01*
X-50981250Y-3775000D01*
X-50745299Y-3775000D01*
X-50644225Y-3733134D01*
X-50566866Y-3655775D01*
X-50525000Y-3554701D01*
X-50525000Y-2743750D01*
X-50593750Y-2675000D01*
X-51050000Y-2675000D01*
X-51550000Y-2675000D01*
X-52006250Y-2675000D01*
X-52075000Y-2743750D01*
X-52225000Y-2743750D01*
X-52225000Y-945299D01*
X-52075000Y-945299D01*
X-52075000Y-1756250D01*
X-52006250Y-1825000D01*
X-51550000Y-1825000D01*
X-51550000Y-793750D01*
X-51050000Y-793750D01*
X-51050000Y-1825000D01*
X-50593750Y-1825000D01*
X-50525000Y-1756250D01*
X-50525000Y-945299D01*
X-50566866Y-844225D01*
X-50644225Y-766866D01*
X-50745299Y-725000D01*
X-50981250Y-725000D01*
X-51050000Y-793750D01*
X-51550000Y-793750D01*
X-51618750Y-725000D01*
X-51854701Y-725000D01*
X-51955775Y-766866D01*
X-52033134Y-844225D01*
X-52075000Y-945299D01*
X-52225000Y-945299D01*
X-52225000Y426250D01*
X-52075000Y426250D01*
X-52075000Y-384701D01*
X-52033134Y-485775D01*
X-51955775Y-563134D01*
X-51854701Y-605000D01*
X-51618750Y-605000D01*
X-51550000Y-536250D01*
X-51550000Y495000D01*
X-51050000Y495000D01*
X-51050000Y-536250D01*
X-50981250Y-605000D01*
X-50745299Y-605000D01*
X-50644225Y-563134D01*
X-50566866Y-485775D01*
X-50525000Y-384701D01*
X-50525000Y426250D01*
X-50593750Y495000D01*
X-51050000Y495000D01*
X-51550000Y495000D01*
X-52006250Y495000D01*
X-52075000Y426250D01*
X-52225000Y426250D01*
X-52225000Y2224701D01*
X-52075000Y2224701D01*
X-52075000Y1413750D01*
X-52006250Y1345000D01*
X-51550000Y1345000D01*
X-51550000Y2376250D01*
X-51050000Y2376250D01*
X-51050000Y1345000D01*
X-50593750Y1345000D01*
X-50525000Y1413750D01*
X-50525000Y2224701D01*
X-50566866Y2325775D01*
X-50644225Y2403134D01*
X-50745299Y2445000D01*
X-50981250Y2445000D01*
X-51050000Y2376250D01*
X-51550000Y2376250D01*
X-51618750Y2445000D01*
X-51854701Y2445000D01*
X-51955775Y2403134D01*
X-52033134Y2325775D01*
X-52075000Y2224701D01*
X-52225000Y2224701D01*
X-52225000Y2512612D01*
X-52214127Y2567274D01*
X-52187349Y2607349D01*
X-52147274Y2634127D01*
X-52092612Y2645000D01*
X-50320403Y2645000D01*
X-50268884Y2635393D01*
X-50268884Y2635393D01*
G37*
X-50268884Y2635393D02*
X-50230290Y2611567D01*
X-50198615Y2569813D01*
X-48282376Y-1253226D01*
X-48275079Y-1264948D01*
X-48230761Y-1323367D01*
X-48210408Y-1341856D01*
X-48148013Y-1380376D01*
X-48122363Y-1390287D01*
X-48050279Y-1403729D01*
X-48036530Y-1405000D01*
X-44796926Y-1405000D01*
X-44752549Y-1412052D01*
X-44717879Y-1429782D01*
X-44690420Y-1457378D01*
X-44672864Y-1492136D01*
X-44666034Y-1536550D01*
X-44674614Y-3252722D01*
X-44673423Y-3266416D01*
X-44660458Y-3338262D01*
X-44650760Y-3363865D01*
X-44612872Y-3426271D01*
X-44604691Y-3437318D01*
X-42531354Y-5757934D01*
X-42504396Y-5802212D01*
X-42495000Y-5853184D01*
X-42495000Y-12172612D01*
X-42505873Y-12227274D01*
X-42532651Y-12267349D01*
X-42572726Y-12294127D01*
X-42627388Y-12305000D01*
X-43619816Y-12305000D01*
X-43634029Y-12306359D01*
X-43708454Y-12320723D01*
X-43734836Y-12331300D01*
X-43798572Y-12372328D01*
X-43809787Y-12381164D01*
X-45258646Y-13765424D01*
X-45304184Y-13794738D01*
X-45357356Y-13805000D01*
X-49392612Y-13805000D01*
X-49447274Y-13794127D01*
X-49487349Y-13767349D01*
X-49514127Y-13727274D01*
X-49525000Y-13672612D01*
X-49525000Y-12073750D01*
X-48575000Y-12073750D01*
X-48575000Y-12984701D01*
X-48533134Y-13085775D01*
X-48455775Y-13163134D01*
X-48354701Y-13205000D01*
X-47318750Y-13205000D01*
X-47250000Y-13136250D01*
X-47250000Y-12005000D01*
X-46400000Y-12005000D01*
X-46400000Y-13136250D01*
X-46331250Y-13205000D01*
X-45295299Y-13205000D01*
X-45194225Y-13163134D01*
X-45116866Y-13085775D01*
X-45075000Y-12984701D01*
X-45075000Y-12073750D01*
X-45143750Y-12005000D01*
X-46400000Y-12005000D01*
X-47250000Y-12005000D01*
X-48506250Y-12005000D01*
X-48575000Y-12073750D01*
X-49525000Y-12073750D01*
X-49525000Y-10175299D01*
X-48575000Y-10175299D01*
X-48575000Y-11086250D01*
X-48506250Y-11155000D01*
X-47250000Y-11155000D01*
X-47250000Y-10023750D01*
X-46400000Y-10023750D01*
X-46400000Y-11155000D01*
X-45143750Y-11155000D01*
X-45075000Y-11086250D01*
X-45075000Y-10175299D01*
X-45116866Y-10074225D01*
X-45194225Y-9996866D01*
X-45295299Y-9955000D01*
X-46331250Y-9955000D01*
X-46400000Y-10023750D01*
X-47250000Y-10023750D01*
X-47318750Y-9955000D01*
X-48354701Y-9955000D01*
X-48455775Y-9996866D01*
X-48533134Y-10074225D01*
X-48575000Y-10175299D01*
X-49525000Y-10175299D01*
X-49525000Y-7173750D01*
X-48575000Y-7173750D01*
X-48575000Y-8084701D01*
X-48533134Y-8185775D01*
X-48455775Y-8263134D01*
X-48354701Y-8305000D01*
X-47318750Y-8305000D01*
X-47250000Y-8236250D01*
X-47250000Y-7105000D01*
X-46400000Y-7105000D01*
X-46400000Y-8236250D01*
X-46331250Y-8305000D01*
X-45295299Y-8305000D01*
X-45194225Y-8263134D01*
X-45116866Y-8185775D01*
X-45075000Y-8084701D01*
X-45075000Y-7173750D01*
X-45143750Y-7105000D01*
X-46400000Y-7105000D01*
X-47250000Y-7105000D01*
X-48506250Y-7105000D01*
X-48575000Y-7173750D01*
X-49525000Y-7173750D01*
X-49525000Y-6530102D01*
X-49526356Y-6515903D01*
X-49540693Y-6441543D01*
X-49551252Y-6415179D01*
X-49592209Y-6351481D01*
X-49601029Y-6340272D01*
X-50617080Y-5275299D01*
X-48575000Y-5275299D01*
X-48575000Y-6186250D01*
X-48506250Y-6255000D01*
X-47250000Y-6255000D01*
X-47250000Y-5123750D01*
X-46400000Y-5123750D01*
X-46400000Y-6255000D01*
X-45143750Y-6255000D01*
X-45075000Y-6186250D01*
X-45075000Y-5275299D01*
X-45116866Y-5174225D01*
X-45194225Y-5096866D01*
X-45295299Y-5055000D01*
X-46331250Y-5055000D01*
X-46400000Y-5123750D01*
X-47250000Y-5123750D01*
X-47318750Y-5055000D01*
X-48354701Y-5055000D01*
X-48455775Y-5096866D01*
X-48533134Y-5174225D01*
X-48575000Y-5275299D01*
X-50617080Y-5275299D01*
X-52185495Y-3631368D01*
X-52214757Y-3585859D01*
X-52225000Y-3532732D01*
X-52225000Y-2743750D01*
X-52075000Y-2743750D01*
X-52075000Y-3554701D01*
X-52033134Y-3655775D01*
X-51955775Y-3733134D01*
X-51854701Y-3775000D01*
X-51618750Y-3775000D01*
X-51550000Y-3706250D01*
X-51550000Y-2675000D01*
X-51050000Y-2675000D01*
X-51050000Y-3706250D01*
X-50981250Y-3775000D01*
X-50745299Y-3775000D01*
X-50644225Y-3733134D01*
X-50566866Y-3655775D01*
X-50525000Y-3554701D01*
X-50525000Y-2743750D01*
X-50593750Y-2675000D01*
X-51050000Y-2675000D01*
X-51550000Y-2675000D01*
X-52006250Y-2675000D01*
X-52075000Y-2743750D01*
X-52225000Y-2743750D01*
X-52225000Y-945299D01*
X-52075000Y-945299D01*
X-52075000Y-1756250D01*
X-52006250Y-1825000D01*
X-51550000Y-1825000D01*
X-51550000Y-793750D01*
X-51050000Y-793750D01*
X-51050000Y-1825000D01*
X-50593750Y-1825000D01*
X-50525000Y-1756250D01*
X-50525000Y-945299D01*
X-50566866Y-844225D01*
X-50644225Y-766866D01*
X-50745299Y-725000D01*
X-50981250Y-725000D01*
X-51050000Y-793750D01*
X-51550000Y-793750D01*
X-51618750Y-725000D01*
X-51854701Y-725000D01*
X-51955775Y-766866D01*
X-52033134Y-844225D01*
X-52075000Y-945299D01*
X-52225000Y-945299D01*
X-52225000Y426250D01*
X-52075000Y426250D01*
X-52075000Y-384701D01*
X-52033134Y-485775D01*
X-51955775Y-563134D01*
X-51854701Y-605000D01*
X-51618750Y-605000D01*
X-51550000Y-536250D01*
X-51550000Y495000D01*
X-51050000Y495000D01*
X-51050000Y-536250D01*
X-50981250Y-605000D01*
X-50745299Y-605000D01*
X-50644225Y-563134D01*
X-50566866Y-485775D01*
X-50525000Y-384701D01*
X-50525000Y426250D01*
X-50593750Y495000D01*
X-51050000Y495000D01*
X-51550000Y495000D01*
X-52006250Y495000D01*
X-52075000Y426250D01*
X-52225000Y426250D01*
X-52225000Y2224701D01*
X-52075000Y2224701D01*
X-52075000Y1413750D01*
X-52006250Y1345000D01*
X-51550000Y1345000D01*
X-51550000Y2376250D01*
X-51050000Y2376250D01*
X-51050000Y1345000D01*
X-50593750Y1345000D01*
X-50525000Y1413750D01*
X-50525000Y2224701D01*
X-50566866Y2325775D01*
X-50644225Y2403134D01*
X-50745299Y2445000D01*
X-50981250Y2445000D01*
X-51050000Y2376250D01*
X-51550000Y2376250D01*
X-51618750Y2445000D01*
X-51854701Y2445000D01*
X-51955775Y2403134D01*
X-52033134Y2325775D01*
X-52075000Y2224701D01*
X-52225000Y2224701D01*
X-52225000Y2512612D01*
X-52214127Y2567274D01*
X-52187349Y2607349D01*
X-52147274Y2634127D01*
X-52092612Y2645000D01*
X-50320403Y2645000D01*
X-50268884Y2635393D01*
D46*
G36*
X-39380998Y10210971D02*
X-39370000Y10141610D01*
X-39370000Y5219851D01*
X-39387035Y5134212D01*
X-39429964Y5069964D01*
X-39494212Y5027035D01*
X-39579851Y5010000D01*
X-39973957Y5010000D01*
X-39987176Y5009122D01*
X-40065797Y4998637D01*
X-40091313Y4991708D01*
X-40164438Y4960985D01*
X-40187245Y4947612D01*
X-40249763Y4898799D01*
X-40259642Y4889972D01*
X-43018553Y2074756D01*
X-43065328Y2038235D01*
X-43113861Y2017844D01*
X-43172678Y2010000D01*
X-48990149Y2010000D01*
X-49075788Y2027035D01*
X-49140036Y2069964D01*
X-49182965Y2134212D01*
X-49200000Y2219851D01*
X-49200000Y5870149D01*
X-49182965Y5955788D01*
X-49140036Y6020036D01*
X-49075788Y6062965D01*
X-48990149Y6080000D01*
X-45450000Y6080000D01*
X-45448751Y6080123D01*
X-45422000Y6080123D01*
X-45310827Y6101042D01*
X-45285843Y6117119D01*
X-45279638Y6119689D01*
X-45222054Y6158165D01*
X-45208721Y6166745D01*
X-45208307Y6167351D01*
X-45182311Y6184721D01*
X-45154721Y6212311D01*
X-45089689Y6309638D01*
X-45074757Y6345686D01*
X-45051921Y6460491D01*
X-45050000Y6480000D01*
X-45050000Y10130670D01*
X-45033002Y10216220D01*
X-45023807Y10230000D01*
X-39390706Y10230000D01*
X-39380998Y10210971D01*
X-39380998Y10210971D01*
G37*
X-39380998Y10210971D02*
X-39370000Y10141610D01*
X-39370000Y5219851D01*
X-39387035Y5134212D01*
X-39429964Y5069964D01*
X-39494212Y5027035D01*
X-39579851Y5010000D01*
X-39973957Y5010000D01*
X-39987176Y5009122D01*
X-40065797Y4998637D01*
X-40091313Y4991708D01*
X-40164438Y4960985D01*
X-40187245Y4947612D01*
X-40249763Y4898799D01*
X-40259642Y4889972D01*
X-43018553Y2074756D01*
X-43065328Y2038235D01*
X-43113861Y2017844D01*
X-43172678Y2010000D01*
X-48990149Y2010000D01*
X-49075788Y2027035D01*
X-49140036Y2069964D01*
X-49182965Y2134212D01*
X-49200000Y2219851D01*
X-49200000Y5870149D01*
X-49182965Y5955788D01*
X-49140036Y6020036D01*
X-49075788Y6062965D01*
X-48990149Y6080000D01*
X-45450000Y6080000D01*
X-45448751Y6080123D01*
X-45422000Y6080123D01*
X-45310827Y6101042D01*
X-45285843Y6117119D01*
X-45279638Y6119689D01*
X-45222054Y6158165D01*
X-45208721Y6166745D01*
X-45208307Y6167351D01*
X-45182311Y6184721D01*
X-45154721Y6212311D01*
X-45089689Y6309638D01*
X-45074757Y6345686D01*
X-45051921Y6460491D01*
X-45050000Y6480000D01*
X-45050000Y10130670D01*
X-45033002Y10216220D01*
X-45023807Y10230000D01*
X-39390706Y10230000D01*
X-39380998Y10210971D01*
D56*
G36*
X-4717289Y4205192D02*
X-4681799Y4198093D01*
X-4657973Y4182147D01*
X-4642056Y4158301D01*
X-4635000Y4122802D01*
X-4635000Y3964986D01*
X-4793578Y3965125D01*
X-5060142Y3854983D01*
X-5264266Y3651215D01*
X-5374873Y3384843D01*
X-5375125Y3096420D01*
X-5264983Y2829856D01*
X-5061215Y2625732D01*
X-4794843Y2515125D01*
X-4635000Y2514985D01*
X-4635000Y-2485001D01*
X-4649999Y-2485001D01*
X-4946579Y-2543994D01*
X-5198007Y-2711993D01*
X-5366006Y-2963421D01*
X-5424999Y-3260001D01*
X-5366006Y-3556581D01*
X-5198007Y-3808009D01*
X-4946579Y-3976008D01*
X-4649999Y-4035001D01*
X-4635000Y-4035001D01*
X-4635000Y-4413924D01*
X-4639566Y-4442729D01*
X-4650103Y-4463391D01*
X-4666508Y-4479779D01*
X-4687177Y-4490288D01*
X-4715990Y-4494822D01*
X-13257494Y-4485072D01*
X-13289879Y-4479212D01*
X-13318193Y-4462440D01*
X-14258721Y-3649752D01*
X-14269554Y-3641960D01*
X-14315303Y-3614880D01*
X-14340216Y-3605608D01*
X-14392539Y-3596187D01*
X-14405829Y-3595000D01*
X-17270000Y-3595000D01*
X-17270000Y-3538750D01*
X-17338750Y-3470000D01*
X-17732500Y-3470000D01*
X-17732500Y-3565000D01*
X-18107500Y-3565000D01*
X-18107500Y-3470000D01*
X-18501250Y-3470000D01*
X-18570000Y-3538750D01*
X-18570000Y-3595000D01*
X-19010000Y-3595000D01*
X-19010000Y-3538750D01*
X-19078750Y-3470000D01*
X-19472500Y-3470000D01*
X-19472500Y-3565000D01*
X-19847500Y-3565000D01*
X-19847500Y-3470000D01*
X-20241250Y-3470000D01*
X-20310000Y-3538750D01*
X-20310000Y-3595000D01*
X-24150000Y-3595000D01*
X-24164632Y-3596441D01*
X-24222035Y-3607859D01*
X-24249071Y-3619058D01*
X-24297734Y-3651574D01*
X-24318426Y-3672266D01*
X-24350942Y-3720929D01*
X-24362141Y-3747965D01*
X-24373559Y-3805368D01*
X-24375000Y-3820000D01*
X-24375000Y-9922613D01*
X-24382067Y-9958140D01*
X-24398006Y-9981994D01*
X-24421860Y-9997933D01*
X-24457387Y-10005000D01*
X-28350000Y-10005000D01*
X-28364632Y-10006441D01*
X-28422035Y-10017859D01*
X-28449071Y-10029058D01*
X-28497734Y-10061574D01*
X-28518426Y-10082266D01*
X-28550942Y-10130929D01*
X-28562141Y-10157965D01*
X-28573559Y-10215368D01*
X-28575000Y-10230000D01*
X-28575000Y-13659063D01*
X-28714665Y-13995414D01*
X-28715014Y-14395000D01*
X-37465013Y-14395000D01*
X-37464667Y-13998774D01*
X-37625000Y-13610738D01*
X-37625000Y-9957090D01*
X-37616014Y-9943540D01*
X-37616012Y-9943536D01*
X-37608248Y-9914795D01*
X-37609220Y-9909993D01*
X-37608095Y-9909993D01*
X-37608095Y-9909991D01*
X-37614004Y-9880812D01*
X-37615553Y-9878723D01*
X-37616012Y-9876454D01*
X-37616013Y-9876452D01*
X-37616905Y-9876898D01*
X-37625000Y-9865976D01*
X-37625000Y-7457956D01*
X-37615309Y-7434618D01*
X-37615307Y-7431520D01*
X-36965307Y-7431520D01*
X-36695649Y-8084143D01*
X-36196769Y-8583894D01*
X-35544618Y-8854691D01*
X-34838480Y-8855307D01*
X-34185857Y-8585649D01*
X-33686106Y-8086769D01*
X-33415309Y-7434618D01*
X-33415307Y-7431520D01*
X-32765307Y-7431520D01*
X-32495649Y-8084143D01*
X-31996769Y-8583894D01*
X-31344618Y-8854691D01*
X-30638480Y-8855307D01*
X-29985857Y-8585649D01*
X-29486106Y-8086769D01*
X-29215309Y-7434618D01*
X-29214693Y-6728480D01*
X-29484351Y-6075857D01*
X-29979343Y-5580000D01*
X-28570387Y-5580000D01*
X-28570387Y-8580000D01*
X-28551212Y-8681909D01*
X-28490984Y-8775506D01*
X-28399086Y-8838296D01*
X-28290000Y-8860387D01*
X-25290000Y-8860387D01*
X-25188091Y-8841212D01*
X-25094494Y-8780984D01*
X-25031704Y-8689086D01*
X-25009613Y-8580000D01*
X-25009613Y-5580000D01*
X-25028788Y-5478091D01*
X-25089016Y-5384494D01*
X-25180914Y-5321704D01*
X-25290000Y-5299613D01*
X-28290000Y-5299613D01*
X-28391909Y-5318788D01*
X-28485506Y-5379016D01*
X-28548296Y-5470914D01*
X-28570387Y-5580000D01*
X-29979343Y-5580000D01*
X-29983231Y-5576106D01*
X-30635382Y-5305309D01*
X-31341520Y-5304693D01*
X-31994143Y-5574351D01*
X-32493894Y-6073231D01*
X-32764691Y-6725382D01*
X-32765307Y-7431520D01*
X-33415307Y-7431520D01*
X-33414693Y-6728480D01*
X-33684351Y-6075857D01*
X-34183231Y-5576106D01*
X-34835382Y-5305309D01*
X-35541520Y-5304693D01*
X-36194143Y-5574351D01*
X-36693894Y-6073231D01*
X-36964691Y-6725382D01*
X-36965307Y-7431520D01*
X-37615307Y-7431520D01*
X-37614693Y-6728480D01*
X-37625000Y-6703535D01*
X-37625000Y-5010000D01*
X-37626441Y-4995368D01*
X-37637859Y-4937965D01*
X-37649058Y-4910929D01*
X-37681574Y-4862266D01*
X-37702266Y-4841574D01*
X-37750929Y-4809058D01*
X-37777965Y-4797859D01*
X-37835368Y-4786441D01*
X-37850000Y-4785000D01*
X-40750480Y-4785000D01*
X-40786007Y-4777933D01*
X-40816124Y-4757810D01*
X-41997810Y-3576124D01*
X-42017933Y-3546007D01*
X-42025000Y-3510480D01*
X-42025000Y-3403580D01*
X-11375125Y-3403580D01*
X-11264983Y-3670144D01*
X-11061215Y-3874268D01*
X-10794843Y-3984875D01*
X-10506420Y-3985127D01*
X-10239856Y-3874985D01*
X-10035732Y-3671217D01*
X-9925125Y-3404845D01*
X-9925124Y-3403580D01*
X-7375125Y-3403580D01*
X-7264983Y-3670144D01*
X-7061215Y-3874268D01*
X-6794843Y-3984875D01*
X-6506420Y-3985127D01*
X-6239856Y-3874985D01*
X-6035732Y-3671217D01*
X-5925125Y-3404845D01*
X-5924873Y-3116422D01*
X-6035015Y-2849858D01*
X-6238783Y-2645734D01*
X-6505155Y-2535127D01*
X-6793578Y-2534875D01*
X-7060142Y-2645017D01*
X-7264266Y-2848785D01*
X-7374873Y-3115157D01*
X-7375125Y-3403580D01*
X-9925124Y-3403580D01*
X-9924873Y-3116422D01*
X-10035015Y-2849858D01*
X-10238783Y-2645734D01*
X-10505155Y-2535127D01*
X-10793578Y-2534875D01*
X-11060142Y-2645017D01*
X-11264266Y-2848785D01*
X-11374873Y-3115157D01*
X-11375125Y-3403580D01*
X-42025000Y-3403580D01*
X-42025000Y-2838750D01*
X-23065000Y-2838750D01*
X-23065000Y-3074701D01*
X-23023134Y-3175775D01*
X-22945775Y-3253134D01*
X-22844701Y-3295000D01*
X-22333750Y-3295000D01*
X-22265000Y-3226250D01*
X-22265000Y-2770000D01*
X-21715000Y-2770000D01*
X-21715000Y-3226250D01*
X-21646250Y-3295000D01*
X-21135299Y-3295000D01*
X-21034225Y-3253134D01*
X-20956866Y-3175775D01*
X-20915000Y-3074701D01*
X-20915000Y-2838750D01*
X-20938451Y-2815299D01*
X-20310000Y-2815299D01*
X-20310000Y-3001250D01*
X-20241250Y-3070000D01*
X-19847500Y-3070000D01*
X-19847500Y-2663750D01*
X-19472500Y-2663750D01*
X-19472500Y-3070000D01*
X-19078750Y-3070000D01*
X-19010000Y-3001250D01*
X-19010000Y-2815299D01*
X-18570000Y-2815299D01*
X-18570000Y-3001250D01*
X-18501250Y-3070000D01*
X-18107500Y-3070000D01*
X-18107500Y-2663750D01*
X-17732500Y-2663750D01*
X-17732500Y-3070000D01*
X-17338750Y-3070000D01*
X-17270000Y-3001250D01*
X-17270000Y-2815299D01*
X-17311866Y-2714225D01*
X-17389225Y-2636866D01*
X-17490299Y-2595000D01*
X-17663750Y-2595000D01*
X-17732500Y-2663750D01*
X-18107500Y-2663750D01*
X-18176250Y-2595000D01*
X-18349701Y-2595000D01*
X-18450775Y-2636866D01*
X-18528134Y-2714225D01*
X-18570000Y-2815299D01*
X-19010000Y-2815299D01*
X-19051866Y-2714225D01*
X-19129225Y-2636866D01*
X-19230299Y-2595000D01*
X-19403750Y-2595000D01*
X-19472500Y-2663750D01*
X-19847500Y-2663750D01*
X-19916250Y-2595000D01*
X-20089701Y-2595000D01*
X-20190775Y-2636866D01*
X-20268134Y-2714225D01*
X-20310000Y-2815299D01*
X-20938451Y-2815299D01*
X-20983750Y-2770000D01*
X-21715000Y-2770000D01*
X-22265000Y-2770000D01*
X-22996250Y-2770000D01*
X-23065000Y-2838750D01*
X-42025000Y-2838750D01*
X-42025000Y-1965299D01*
X-23065000Y-1965299D01*
X-23065000Y-2201250D01*
X-22996250Y-2270000D01*
X-22265000Y-2270000D01*
X-22265000Y-1813750D01*
X-21715000Y-1813750D01*
X-21715000Y-2270000D01*
X-20983750Y-2270000D01*
X-20915000Y-2201250D01*
X-20915000Y-1965299D01*
X-20956866Y-1864225D01*
X-21034225Y-1786866D01*
X-21135299Y-1745000D01*
X-21646250Y-1745000D01*
X-21715000Y-1813750D01*
X-22265000Y-1813750D01*
X-22333750Y-1745000D01*
X-22844701Y-1745000D01*
X-22945775Y-1786866D01*
X-23023134Y-1864225D01*
X-23065000Y-1965299D01*
X-42025000Y-1965299D01*
X-42025000Y-1403580D01*
X-12375125Y-1403580D01*
X-12264983Y-1670144D01*
X-12061215Y-1874268D01*
X-11794843Y-1984875D01*
X-11506420Y-1985127D01*
X-11239856Y-1874985D01*
X-11035732Y-1671217D01*
X-10925125Y-1404845D01*
X-10925124Y-1403580D01*
X-10375125Y-1403580D01*
X-10264983Y-1670144D01*
X-10061215Y-1874268D01*
X-9794843Y-1984875D01*
X-9506420Y-1985127D01*
X-9239856Y-1874985D01*
X-9035732Y-1671217D01*
X-8925125Y-1404845D01*
X-8925124Y-1403580D01*
X-8375125Y-1403580D01*
X-8264983Y-1670144D01*
X-8061215Y-1874268D01*
X-7794843Y-1984875D01*
X-7506420Y-1985127D01*
X-7239856Y-1874985D01*
X-7035732Y-1671217D01*
X-6925125Y-1404845D01*
X-6924873Y-1116422D01*
X-7035015Y-849858D01*
X-7238783Y-645734D01*
X-7505155Y-535127D01*
X-7793578Y-534875D01*
X-8060142Y-645017D01*
X-8264266Y-848785D01*
X-8374873Y-1115157D01*
X-8375125Y-1403580D01*
X-8925124Y-1403580D01*
X-8924873Y-1116422D01*
X-9035015Y-849858D01*
X-9238783Y-645734D01*
X-9505155Y-535127D01*
X-9793578Y-534875D01*
X-10060142Y-645017D01*
X-10264266Y-848785D01*
X-10374873Y-1115157D01*
X-10375125Y-1403580D01*
X-10925124Y-1403580D01*
X-10924873Y-1116422D01*
X-11035015Y-849858D01*
X-11238783Y-645734D01*
X-11505155Y-535127D01*
X-11793578Y-534875D01*
X-12060142Y-645017D01*
X-12264266Y-848785D01*
X-12374873Y-1115157D01*
X-12375125Y-1403580D01*
X-42025000Y-1403580D01*
X-42025000Y249315D01*
X-41929315Y345000D01*
X-22040226Y345000D01*
X-22015447Y342234D01*
X-21432868Y210538D01*
X-21424651Y209155D01*
X-21391577Y205463D01*
X-21383257Y205000D01*
X-19966825Y205000D01*
X-19958464Y205468D01*
X-19925232Y209196D01*
X-19916977Y210592D01*
X-19337673Y342208D01*
X-19312782Y345000D01*
X-14264686Y345000D01*
X-14251643Y346143D01*
X-14200265Y355216D01*
X-14175755Y364151D01*
X-14130593Y390274D01*
X-14119876Y397794D01*
X-13290307Y1095385D01*
X-13289166Y1096420D01*
X-12375125Y1096420D01*
X-12264983Y829856D01*
X-12061215Y625732D01*
X-11794843Y515125D01*
X-11506420Y514873D01*
X-11239856Y625015D01*
X-11035732Y828783D01*
X-10925125Y1095155D01*
X-10925124Y1096420D01*
X-10375125Y1096420D01*
X-10264983Y829856D01*
X-10061215Y625732D01*
X-9794843Y515125D01*
X-9506420Y514873D01*
X-9239856Y625015D01*
X-9035732Y828783D01*
X-8925125Y1095155D01*
X-8925124Y1096420D01*
X-8375125Y1096420D01*
X-8264983Y829856D01*
X-8061215Y625732D01*
X-7794843Y515125D01*
X-7506420Y514873D01*
X-7239856Y625015D01*
X-7035732Y828783D01*
X-6925125Y1095155D01*
X-6925124Y1096420D01*
X-6375125Y1096420D01*
X-6264983Y829856D01*
X-6061215Y625732D01*
X-5794843Y515125D01*
X-5506420Y514873D01*
X-5239856Y625015D01*
X-5035732Y828783D01*
X-4925125Y1095155D01*
X-4924873Y1383578D01*
X-5035015Y1650142D01*
X-5238783Y1854266D01*
X-5505155Y1964873D01*
X-5793578Y1965125D01*
X-6060142Y1854983D01*
X-6264266Y1651215D01*
X-6374873Y1384843D01*
X-6375125Y1096420D01*
X-6925124Y1096420D01*
X-6924873Y1383578D01*
X-7035015Y1650142D01*
X-7238783Y1854266D01*
X-7505155Y1964873D01*
X-7793578Y1965125D01*
X-8060142Y1854983D01*
X-8264266Y1651215D01*
X-8374873Y1384843D01*
X-8375125Y1096420D01*
X-8925124Y1096420D01*
X-8924873Y1383578D01*
X-9035015Y1650142D01*
X-9238783Y1854266D01*
X-9505155Y1964873D01*
X-9793578Y1965125D01*
X-10060142Y1854983D01*
X-10264266Y1651215D01*
X-10374873Y1384843D01*
X-10375125Y1096420D01*
X-10925124Y1096420D01*
X-10924873Y1383578D01*
X-11035015Y1650142D01*
X-11238783Y1854266D01*
X-11505155Y1964873D01*
X-11793578Y1965125D01*
X-12060142Y1854983D01*
X-12264266Y1651215D01*
X-12374873Y1384843D01*
X-12375125Y1096420D01*
X-13289166Y1096420D01*
X-13286163Y1099142D01*
X-13270176Y1114762D01*
X-13266326Y1118815D01*
X-12741208Y1714576D01*
X-12733215Y1725489D01*
X-12705423Y1771660D01*
X-12695900Y1796867D01*
X-12686220Y1849881D01*
X-12685000Y1863353D01*
X-12685000Y3096420D01*
X-11375125Y3096420D01*
X-11264983Y2829856D01*
X-11061215Y2625732D01*
X-10794843Y2515125D01*
X-10506420Y2514873D01*
X-10239856Y2625015D01*
X-10035732Y2828783D01*
X-9925125Y3095155D01*
X-9925124Y3096420D01*
X-7375125Y3096420D01*
X-7264983Y2829856D01*
X-7061215Y2625732D01*
X-6794843Y2515125D01*
X-6506420Y2514873D01*
X-6239856Y2625015D01*
X-6035732Y2828783D01*
X-5925125Y3095155D01*
X-5924873Y3383578D01*
X-6035015Y3650142D01*
X-6238783Y3854266D01*
X-6505155Y3964873D01*
X-6793578Y3965125D01*
X-7060142Y3854983D01*
X-7264266Y3651215D01*
X-7374873Y3384843D01*
X-7375125Y3096420D01*
X-9925124Y3096420D01*
X-9924873Y3383578D01*
X-10035015Y3650142D01*
X-10238783Y3854266D01*
X-10505155Y3964873D01*
X-10793578Y3965125D01*
X-11060142Y3854983D01*
X-11264266Y3651215D01*
X-11374873Y3384843D01*
X-11375125Y3096420D01*
X-12685000Y3096420D01*
X-12685000Y4103959D01*
X-12574185Y4214774D01*
X-4717289Y4205192D01*
X-4717289Y4205192D01*
G37*
X-4717289Y4205192D02*
X-4681799Y4198093D01*
X-4657973Y4182147D01*
X-4642056Y4158301D01*
X-4635000Y4122802D01*
X-4635000Y3964986D01*
X-4793578Y3965125D01*
X-5060142Y3854983D01*
X-5264266Y3651215D01*
X-5374873Y3384843D01*
X-5375125Y3096420D01*
X-5264983Y2829856D01*
X-5061215Y2625732D01*
X-4794843Y2515125D01*
X-4635000Y2514985D01*
X-4635000Y-2485001D01*
X-4649999Y-2485001D01*
X-4946579Y-2543994D01*
X-5198007Y-2711993D01*
X-5366006Y-2963421D01*
X-5424999Y-3260001D01*
X-5366006Y-3556581D01*
X-5198007Y-3808009D01*
X-4946579Y-3976008D01*
X-4649999Y-4035001D01*
X-4635000Y-4035001D01*
X-4635000Y-4413924D01*
X-4639566Y-4442729D01*
X-4650103Y-4463391D01*
X-4666508Y-4479779D01*
X-4687177Y-4490288D01*
X-4715990Y-4494822D01*
X-13257494Y-4485072D01*
X-13289879Y-4479212D01*
X-13318193Y-4462440D01*
X-14258721Y-3649752D01*
X-14269554Y-3641960D01*
X-14315303Y-3614880D01*
X-14340216Y-3605608D01*
X-14392539Y-3596187D01*
X-14405829Y-3595000D01*
X-17270000Y-3595000D01*
X-17270000Y-3538750D01*
X-17338750Y-3470000D01*
X-17732500Y-3470000D01*
X-17732500Y-3565000D01*
X-18107500Y-3565000D01*
X-18107500Y-3470000D01*
X-18501250Y-3470000D01*
X-18570000Y-3538750D01*
X-18570000Y-3595000D01*
X-19010000Y-3595000D01*
X-19010000Y-3538750D01*
X-19078750Y-3470000D01*
X-19472500Y-3470000D01*
X-19472500Y-3565000D01*
X-19847500Y-3565000D01*
X-19847500Y-3470000D01*
X-20241250Y-3470000D01*
X-20310000Y-3538750D01*
X-20310000Y-3595000D01*
X-24150000Y-3595000D01*
X-24164632Y-3596441D01*
X-24222035Y-3607859D01*
X-24249071Y-3619058D01*
X-24297734Y-3651574D01*
X-24318426Y-3672266D01*
X-24350942Y-3720929D01*
X-24362141Y-3747965D01*
X-24373559Y-3805368D01*
X-24375000Y-3820000D01*
X-24375000Y-9922613D01*
X-24382067Y-9958140D01*
X-24398006Y-9981994D01*
X-24421860Y-9997933D01*
X-24457387Y-10005000D01*
X-28350000Y-10005000D01*
X-28364632Y-10006441D01*
X-28422035Y-10017859D01*
X-28449071Y-10029058D01*
X-28497734Y-10061574D01*
X-28518426Y-10082266D01*
X-28550942Y-10130929D01*
X-28562141Y-10157965D01*
X-28573559Y-10215368D01*
X-28575000Y-10230000D01*
X-28575000Y-13659063D01*
X-28714665Y-13995414D01*
X-28715014Y-14395000D01*
X-37465013Y-14395000D01*
X-37464667Y-13998774D01*
X-37625000Y-13610738D01*
X-37625000Y-9957090D01*
X-37616014Y-9943540D01*
X-37616012Y-9943536D01*
X-37608248Y-9914795D01*
X-37609220Y-9909993D01*
X-37608095Y-9909993D01*
X-37608095Y-9909991D01*
X-37614004Y-9880812D01*
X-37615553Y-9878723D01*
X-37616012Y-9876454D01*
X-37616013Y-9876452D01*
X-37616905Y-9876898D01*
X-37625000Y-9865976D01*
X-37625000Y-7457956D01*
X-37615309Y-7434618D01*
X-37615307Y-7431520D01*
X-36965307Y-7431520D01*
X-36695649Y-8084143D01*
X-36196769Y-8583894D01*
X-35544618Y-8854691D01*
X-34838480Y-8855307D01*
X-34185857Y-8585649D01*
X-33686106Y-8086769D01*
X-33415309Y-7434618D01*
X-33415307Y-7431520D01*
X-32765307Y-7431520D01*
X-32495649Y-8084143D01*
X-31996769Y-8583894D01*
X-31344618Y-8854691D01*
X-30638480Y-8855307D01*
X-29985857Y-8585649D01*
X-29486106Y-8086769D01*
X-29215309Y-7434618D01*
X-29214693Y-6728480D01*
X-29484351Y-6075857D01*
X-29979343Y-5580000D01*
X-28570387Y-5580000D01*
X-28570387Y-8580000D01*
X-28551212Y-8681909D01*
X-28490984Y-8775506D01*
X-28399086Y-8838296D01*
X-28290000Y-8860387D01*
X-25290000Y-8860387D01*
X-25188091Y-8841212D01*
X-25094494Y-8780984D01*
X-25031704Y-8689086D01*
X-25009613Y-8580000D01*
X-25009613Y-5580000D01*
X-25028788Y-5478091D01*
X-25089016Y-5384494D01*
X-25180914Y-5321704D01*
X-25290000Y-5299613D01*
X-28290000Y-5299613D01*
X-28391909Y-5318788D01*
X-28485506Y-5379016D01*
X-28548296Y-5470914D01*
X-28570387Y-5580000D01*
X-29979343Y-5580000D01*
X-29983231Y-5576106D01*
X-30635382Y-5305309D01*
X-31341520Y-5304693D01*
X-31994143Y-5574351D01*
X-32493894Y-6073231D01*
X-32764691Y-6725382D01*
X-32765307Y-7431520D01*
X-33415307Y-7431520D01*
X-33414693Y-6728480D01*
X-33684351Y-6075857D01*
X-34183231Y-5576106D01*
X-34835382Y-5305309D01*
X-35541520Y-5304693D01*
X-36194143Y-5574351D01*
X-36693894Y-6073231D01*
X-36964691Y-6725382D01*
X-36965307Y-7431520D01*
X-37615307Y-7431520D01*
X-37614693Y-6728480D01*
X-37625000Y-6703535D01*
X-37625000Y-5010000D01*
X-37626441Y-4995368D01*
X-37637859Y-4937965D01*
X-37649058Y-4910929D01*
X-37681574Y-4862266D01*
X-37702266Y-4841574D01*
X-37750929Y-4809058D01*
X-37777965Y-4797859D01*
X-37835368Y-4786441D01*
X-37850000Y-4785000D01*
X-40750480Y-4785000D01*
X-40786007Y-4777933D01*
X-40816124Y-4757810D01*
X-41997810Y-3576124D01*
X-42017933Y-3546007D01*
X-42025000Y-3510480D01*
X-42025000Y-3403580D01*
X-11375125Y-3403580D01*
X-11264983Y-3670144D01*
X-11061215Y-3874268D01*
X-10794843Y-3984875D01*
X-10506420Y-3985127D01*
X-10239856Y-3874985D01*
X-10035732Y-3671217D01*
X-9925125Y-3404845D01*
X-9925124Y-3403580D01*
X-7375125Y-3403580D01*
X-7264983Y-3670144D01*
X-7061215Y-3874268D01*
X-6794843Y-3984875D01*
X-6506420Y-3985127D01*
X-6239856Y-3874985D01*
X-6035732Y-3671217D01*
X-5925125Y-3404845D01*
X-5924873Y-3116422D01*
X-6035015Y-2849858D01*
X-6238783Y-2645734D01*
X-6505155Y-2535127D01*
X-6793578Y-2534875D01*
X-7060142Y-2645017D01*
X-7264266Y-2848785D01*
X-7374873Y-3115157D01*
X-7375125Y-3403580D01*
X-9925124Y-3403580D01*
X-9924873Y-3116422D01*
X-10035015Y-2849858D01*
X-10238783Y-2645734D01*
X-10505155Y-2535127D01*
X-10793578Y-2534875D01*
X-11060142Y-2645017D01*
X-11264266Y-2848785D01*
X-11374873Y-3115157D01*
X-11375125Y-3403580D01*
X-42025000Y-3403580D01*
X-42025000Y-2838750D01*
X-23065000Y-2838750D01*
X-23065000Y-3074701D01*
X-23023134Y-3175775D01*
X-22945775Y-3253134D01*
X-22844701Y-3295000D01*
X-22333750Y-3295000D01*
X-22265000Y-3226250D01*
X-22265000Y-2770000D01*
X-21715000Y-2770000D01*
X-21715000Y-3226250D01*
X-21646250Y-3295000D01*
X-21135299Y-3295000D01*
X-21034225Y-3253134D01*
X-20956866Y-3175775D01*
X-20915000Y-3074701D01*
X-20915000Y-2838750D01*
X-20938451Y-2815299D01*
X-20310000Y-2815299D01*
X-20310000Y-3001250D01*
X-20241250Y-3070000D01*
X-19847500Y-3070000D01*
X-19847500Y-2663750D01*
X-19472500Y-2663750D01*
X-19472500Y-3070000D01*
X-19078750Y-3070000D01*
X-19010000Y-3001250D01*
X-19010000Y-2815299D01*
X-18570000Y-2815299D01*
X-18570000Y-3001250D01*
X-18501250Y-3070000D01*
X-18107500Y-3070000D01*
X-18107500Y-2663750D01*
X-17732500Y-2663750D01*
X-17732500Y-3070000D01*
X-17338750Y-3070000D01*
X-17270000Y-3001250D01*
X-17270000Y-2815299D01*
X-17311866Y-2714225D01*
X-17389225Y-2636866D01*
X-17490299Y-2595000D01*
X-17663750Y-2595000D01*
X-17732500Y-2663750D01*
X-18107500Y-2663750D01*
X-18176250Y-2595000D01*
X-18349701Y-2595000D01*
X-18450775Y-2636866D01*
X-18528134Y-2714225D01*
X-18570000Y-2815299D01*
X-19010000Y-2815299D01*
X-19051866Y-2714225D01*
X-19129225Y-2636866D01*
X-19230299Y-2595000D01*
X-19403750Y-2595000D01*
X-19472500Y-2663750D01*
X-19847500Y-2663750D01*
X-19916250Y-2595000D01*
X-20089701Y-2595000D01*
X-20190775Y-2636866D01*
X-20268134Y-2714225D01*
X-20310000Y-2815299D01*
X-20938451Y-2815299D01*
X-20983750Y-2770000D01*
X-21715000Y-2770000D01*
X-22265000Y-2770000D01*
X-22996250Y-2770000D01*
X-23065000Y-2838750D01*
X-42025000Y-2838750D01*
X-42025000Y-1965299D01*
X-23065000Y-1965299D01*
X-23065000Y-2201250D01*
X-22996250Y-2270000D01*
X-22265000Y-2270000D01*
X-22265000Y-1813750D01*
X-21715000Y-1813750D01*
X-21715000Y-2270000D01*
X-20983750Y-2270000D01*
X-20915000Y-2201250D01*
X-20915000Y-1965299D01*
X-20956866Y-1864225D01*
X-21034225Y-1786866D01*
X-21135299Y-1745000D01*
X-21646250Y-1745000D01*
X-21715000Y-1813750D01*
X-22265000Y-1813750D01*
X-22333750Y-1745000D01*
X-22844701Y-1745000D01*
X-22945775Y-1786866D01*
X-23023134Y-1864225D01*
X-23065000Y-1965299D01*
X-42025000Y-1965299D01*
X-42025000Y-1403580D01*
X-12375125Y-1403580D01*
X-12264983Y-1670144D01*
X-12061215Y-1874268D01*
X-11794843Y-1984875D01*
X-11506420Y-1985127D01*
X-11239856Y-1874985D01*
X-11035732Y-1671217D01*
X-10925125Y-1404845D01*
X-10925124Y-1403580D01*
X-10375125Y-1403580D01*
X-10264983Y-1670144D01*
X-10061215Y-1874268D01*
X-9794843Y-1984875D01*
X-9506420Y-1985127D01*
X-9239856Y-1874985D01*
X-9035732Y-1671217D01*
X-8925125Y-1404845D01*
X-8925124Y-1403580D01*
X-8375125Y-1403580D01*
X-8264983Y-1670144D01*
X-8061215Y-1874268D01*
X-7794843Y-1984875D01*
X-7506420Y-1985127D01*
X-7239856Y-1874985D01*
X-7035732Y-1671217D01*
X-6925125Y-1404845D01*
X-6924873Y-1116422D01*
X-7035015Y-849858D01*
X-7238783Y-645734D01*
X-7505155Y-535127D01*
X-7793578Y-534875D01*
X-8060142Y-645017D01*
X-8264266Y-848785D01*
X-8374873Y-1115157D01*
X-8375125Y-1403580D01*
X-8925124Y-1403580D01*
X-8924873Y-1116422D01*
X-9035015Y-849858D01*
X-9238783Y-645734D01*
X-9505155Y-535127D01*
X-9793578Y-534875D01*
X-10060142Y-645017D01*
X-10264266Y-848785D01*
X-10374873Y-1115157D01*
X-10375125Y-1403580D01*
X-10925124Y-1403580D01*
X-10924873Y-1116422D01*
X-11035015Y-849858D01*
X-11238783Y-645734D01*
X-11505155Y-535127D01*
X-11793578Y-534875D01*
X-12060142Y-645017D01*
X-12264266Y-848785D01*
X-12374873Y-1115157D01*
X-12375125Y-1403580D01*
X-42025000Y-1403580D01*
X-42025000Y249315D01*
X-41929315Y345000D01*
X-22040226Y345000D01*
X-22015447Y342234D01*
X-21432868Y210538D01*
X-21424651Y209155D01*
X-21391577Y205463D01*
X-21383257Y205000D01*
X-19966825Y205000D01*
X-19958464Y205468D01*
X-19925232Y209196D01*
X-19916977Y210592D01*
X-19337673Y342208D01*
X-19312782Y345000D01*
X-14264686Y345000D01*
X-14251643Y346143D01*
X-14200265Y355216D01*
X-14175755Y364151D01*
X-14130593Y390274D01*
X-14119876Y397794D01*
X-13290307Y1095385D01*
X-13289166Y1096420D01*
X-12375125Y1096420D01*
X-12264983Y829856D01*
X-12061215Y625732D01*
X-11794843Y515125D01*
X-11506420Y514873D01*
X-11239856Y625015D01*
X-11035732Y828783D01*
X-10925125Y1095155D01*
X-10925124Y1096420D01*
X-10375125Y1096420D01*
X-10264983Y829856D01*
X-10061215Y625732D01*
X-9794843Y515125D01*
X-9506420Y514873D01*
X-9239856Y625015D01*
X-9035732Y828783D01*
X-8925125Y1095155D01*
X-8925124Y1096420D01*
X-8375125Y1096420D01*
X-8264983Y829856D01*
X-8061215Y625732D01*
X-7794843Y515125D01*
X-7506420Y514873D01*
X-7239856Y625015D01*
X-7035732Y828783D01*
X-6925125Y1095155D01*
X-6925124Y1096420D01*
X-6375125Y1096420D01*
X-6264983Y829856D01*
X-6061215Y625732D01*
X-5794843Y515125D01*
X-5506420Y514873D01*
X-5239856Y625015D01*
X-5035732Y828783D01*
X-4925125Y1095155D01*
X-4924873Y1383578D01*
X-5035015Y1650142D01*
X-5238783Y1854266D01*
X-5505155Y1964873D01*
X-5793578Y1965125D01*
X-6060142Y1854983D01*
X-6264266Y1651215D01*
X-6374873Y1384843D01*
X-6375125Y1096420D01*
X-6925124Y1096420D01*
X-6924873Y1383578D01*
X-7035015Y1650142D01*
X-7238783Y1854266D01*
X-7505155Y1964873D01*
X-7793578Y1965125D01*
X-8060142Y1854983D01*
X-8264266Y1651215D01*
X-8374873Y1384843D01*
X-8375125Y1096420D01*
X-8925124Y1096420D01*
X-8924873Y1383578D01*
X-9035015Y1650142D01*
X-9238783Y1854266D01*
X-9505155Y1964873D01*
X-9793578Y1965125D01*
X-10060142Y1854983D01*
X-10264266Y1651215D01*
X-10374873Y1384843D01*
X-10375125Y1096420D01*
X-10925124Y1096420D01*
X-10924873Y1383578D01*
X-11035015Y1650142D01*
X-11238783Y1854266D01*
X-11505155Y1964873D01*
X-11793578Y1965125D01*
X-12060142Y1854983D01*
X-12264266Y1651215D01*
X-12374873Y1384843D01*
X-12375125Y1096420D01*
X-13289166Y1096420D01*
X-13286163Y1099142D01*
X-13270176Y1114762D01*
X-13266326Y1118815D01*
X-12741208Y1714576D01*
X-12733215Y1725489D01*
X-12705423Y1771660D01*
X-12695900Y1796867D01*
X-12686220Y1849881D01*
X-12685000Y1863353D01*
X-12685000Y3096420D01*
X-11375125Y3096420D01*
X-11264983Y2829856D01*
X-11061215Y2625732D01*
X-10794843Y2515125D01*
X-10506420Y2514873D01*
X-10239856Y2625015D01*
X-10035732Y2828783D01*
X-9925125Y3095155D01*
X-9925124Y3096420D01*
X-7375125Y3096420D01*
X-7264983Y2829856D01*
X-7061215Y2625732D01*
X-6794843Y2515125D01*
X-6506420Y2514873D01*
X-6239856Y2625015D01*
X-6035732Y2828783D01*
X-5925125Y3095155D01*
X-5924873Y3383578D01*
X-6035015Y3650142D01*
X-6238783Y3854266D01*
X-6505155Y3964873D01*
X-6793578Y3965125D01*
X-7060142Y3854983D01*
X-7264266Y3651215D01*
X-7374873Y3384843D01*
X-7375125Y3096420D01*
X-9925124Y3096420D01*
X-9924873Y3383578D01*
X-10035015Y3650142D01*
X-10238783Y3854266D01*
X-10505155Y3964873D01*
X-10793578Y3965125D01*
X-11060142Y3854983D01*
X-11264266Y3651215D01*
X-11374873Y3384843D01*
X-11375125Y3096420D01*
X-12685000Y3096420D01*
X-12685000Y4103959D01*
X-12574185Y4214774D01*
X-4717289Y4205192D01*
D57*
G36*
X-25337636Y6167000D02*
X-27083000Y6167000D01*
X-27083000Y7913000D01*
X-25346366Y7913000D01*
X-25337636Y6167000D01*
X-25337636Y6167000D01*
G37*
X-25337636Y6167000D02*
X-27083000Y6167000D01*
X-27083000Y7913000D01*
X-25346366Y7913000D01*
X-25337636Y6167000D01*
D56*
G36*
X-20310000Y-4501250D02*
X-20241250Y-4570000D01*
X-19847500Y-4570000D01*
X-19847500Y-4475000D01*
X-19472500Y-4475000D01*
X-19472500Y-4570000D01*
X-19078750Y-4570000D01*
X-19010000Y-4501250D01*
X-19010000Y-4445000D01*
X-18570000Y-4445000D01*
X-18570000Y-4501250D01*
X-18501250Y-4570000D01*
X-18107500Y-4570000D01*
X-18107500Y-4475000D01*
X-17732500Y-4475000D01*
X-17732500Y-4570000D01*
X-17625000Y-4570000D01*
X-17625000Y-4970000D01*
X-17732500Y-4970000D01*
X-17732500Y-5376250D01*
X-17663750Y-5445000D01*
X-17490299Y-5445000D01*
X-17389225Y-5403134D01*
X-17355000Y-5368909D01*
X-17355000Y-7512613D01*
X-17362067Y-7548140D01*
X-17378006Y-7571994D01*
X-17401860Y-7587933D01*
X-17437387Y-7595000D01*
X-23382613Y-7595000D01*
X-23418140Y-7587933D01*
X-23441994Y-7571994D01*
X-23457933Y-7548140D01*
X-23465000Y-7512613D01*
X-23465000Y-5838750D01*
X-23065000Y-5838750D01*
X-23065000Y-6074701D01*
X-23023134Y-6175775D01*
X-22945775Y-6253134D01*
X-22844701Y-6295000D01*
X-22333750Y-6295000D01*
X-22265000Y-6226250D01*
X-22265000Y-5770000D01*
X-21715000Y-5770000D01*
X-21715000Y-6226250D01*
X-21646250Y-6295000D01*
X-21135299Y-6295000D01*
X-21034225Y-6253134D01*
X-20956866Y-6175775D01*
X-20915000Y-6074701D01*
X-20915000Y-5838750D01*
X-20983750Y-5770000D01*
X-21715000Y-5770000D01*
X-22265000Y-5770000D01*
X-22996250Y-5770000D01*
X-23065000Y-5838750D01*
X-23465000Y-5838750D01*
X-23465000Y-4965299D01*
X-23065000Y-4965299D01*
X-23065000Y-5201250D01*
X-22996250Y-5270000D01*
X-22265000Y-5270000D01*
X-22265000Y-4813750D01*
X-21715000Y-4813750D01*
X-21715000Y-5270000D01*
X-20983750Y-5270000D01*
X-20915000Y-5201250D01*
X-20915000Y-5038750D01*
X-20310000Y-5038750D01*
X-20310000Y-5224701D01*
X-20268134Y-5325775D01*
X-20190775Y-5403134D01*
X-20089701Y-5445000D01*
X-19916250Y-5445000D01*
X-19847500Y-5376250D01*
X-19847500Y-4970000D01*
X-19472500Y-4970000D01*
X-19472500Y-5376250D01*
X-19403750Y-5445000D01*
X-19230299Y-5445000D01*
X-19129225Y-5403134D01*
X-19051866Y-5325775D01*
X-19010000Y-5224701D01*
X-19010000Y-5038750D01*
X-18570000Y-5038750D01*
X-18570000Y-5224701D01*
X-18528134Y-5325775D01*
X-18450775Y-5403134D01*
X-18349701Y-5445000D01*
X-18176250Y-5445000D01*
X-18107500Y-5376250D01*
X-18107500Y-4970000D01*
X-18501250Y-4970000D01*
X-18570000Y-5038750D01*
X-19010000Y-5038750D01*
X-19078750Y-4970000D01*
X-19472500Y-4970000D01*
X-19847500Y-4970000D01*
X-20241250Y-4970000D01*
X-20310000Y-5038750D01*
X-20915000Y-5038750D01*
X-20915000Y-4965299D01*
X-20956866Y-4864225D01*
X-21034225Y-4786866D01*
X-21135299Y-4745000D01*
X-21646250Y-4745000D01*
X-21715000Y-4813750D01*
X-22265000Y-4813750D01*
X-22333750Y-4745000D01*
X-22844701Y-4745000D01*
X-22945775Y-4786866D01*
X-23023134Y-4864225D01*
X-23065000Y-4965299D01*
X-23465000Y-4965299D01*
X-23465000Y-4527387D01*
X-23457933Y-4491860D01*
X-23441994Y-4468006D01*
X-23418140Y-4452067D01*
X-23382613Y-4445000D01*
X-20310000Y-4445000D01*
X-20310000Y-4501250D01*
X-20310000Y-4501250D01*
G37*
X-20310000Y-4501250D02*
X-20241250Y-4570000D01*
X-19847500Y-4570000D01*
X-19847500Y-4475000D01*
X-19472500Y-4475000D01*
X-19472500Y-4570000D01*
X-19078750Y-4570000D01*
X-19010000Y-4501250D01*
X-19010000Y-4445000D01*
X-18570000Y-4445000D01*
X-18570000Y-4501250D01*
X-18501250Y-4570000D01*
X-18107500Y-4570000D01*
X-18107500Y-4475000D01*
X-17732500Y-4475000D01*
X-17732500Y-4570000D01*
X-17625000Y-4570000D01*
X-17625000Y-4970000D01*
X-17732500Y-4970000D01*
X-17732500Y-5376250D01*
X-17663750Y-5445000D01*
X-17490299Y-5445000D01*
X-17389225Y-5403134D01*
X-17355000Y-5368909D01*
X-17355000Y-7512613D01*
X-17362067Y-7548140D01*
X-17378006Y-7571994D01*
X-17401860Y-7587933D01*
X-17437387Y-7595000D01*
X-23382613Y-7595000D01*
X-23418140Y-7587933D01*
X-23441994Y-7571994D01*
X-23457933Y-7548140D01*
X-23465000Y-7512613D01*
X-23465000Y-5838750D01*
X-23065000Y-5838750D01*
X-23065000Y-6074701D01*
X-23023134Y-6175775D01*
X-22945775Y-6253134D01*
X-22844701Y-6295000D01*
X-22333750Y-6295000D01*
X-22265000Y-6226250D01*
X-22265000Y-5770000D01*
X-21715000Y-5770000D01*
X-21715000Y-6226250D01*
X-21646250Y-6295000D01*
X-21135299Y-6295000D01*
X-21034225Y-6253134D01*
X-20956866Y-6175775D01*
X-20915000Y-6074701D01*
X-20915000Y-5838750D01*
X-20983750Y-5770000D01*
X-21715000Y-5770000D01*
X-22265000Y-5770000D01*
X-22996250Y-5770000D01*
X-23065000Y-5838750D01*
X-23465000Y-5838750D01*
X-23465000Y-4965299D01*
X-23065000Y-4965299D01*
X-23065000Y-5201250D01*
X-22996250Y-5270000D01*
X-22265000Y-5270000D01*
X-22265000Y-4813750D01*
X-21715000Y-4813750D01*
X-21715000Y-5270000D01*
X-20983750Y-5270000D01*
X-20915000Y-5201250D01*
X-20915000Y-5038750D01*
X-20310000Y-5038750D01*
X-20310000Y-5224701D01*
X-20268134Y-5325775D01*
X-20190775Y-5403134D01*
X-20089701Y-5445000D01*
X-19916250Y-5445000D01*
X-19847500Y-5376250D01*
X-19847500Y-4970000D01*
X-19472500Y-4970000D01*
X-19472500Y-5376250D01*
X-19403750Y-5445000D01*
X-19230299Y-5445000D01*
X-19129225Y-5403134D01*
X-19051866Y-5325775D01*
X-19010000Y-5224701D01*
X-19010000Y-5038750D01*
X-18570000Y-5038750D01*
X-18570000Y-5224701D01*
X-18528134Y-5325775D01*
X-18450775Y-5403134D01*
X-18349701Y-5445000D01*
X-18176250Y-5445000D01*
X-18107500Y-5376250D01*
X-18107500Y-4970000D01*
X-18501250Y-4970000D01*
X-18570000Y-5038750D01*
X-19010000Y-5038750D01*
X-19078750Y-4970000D01*
X-19472500Y-4970000D01*
X-19847500Y-4970000D01*
X-20241250Y-4970000D01*
X-20310000Y-5038750D01*
X-20915000Y-5038750D01*
X-20915000Y-4965299D01*
X-20956866Y-4864225D01*
X-21034225Y-4786866D01*
X-21135299Y-4745000D01*
X-21646250Y-4745000D01*
X-21715000Y-4813750D01*
X-22265000Y-4813750D01*
X-22333750Y-4745000D01*
X-22844701Y-4745000D01*
X-22945775Y-4786866D01*
X-23023134Y-4864225D01*
X-23065000Y-4965299D01*
X-23465000Y-4965299D01*
X-23465000Y-4527387D01*
X-23457933Y-4491860D01*
X-23441994Y-4468006D01*
X-23418140Y-4452067D01*
X-23382613Y-4445000D01*
X-20310000Y-4445000D01*
X-20310000Y-4501250D01*
D46*
G36*
X-53224212Y2602965D02*
X-53159964Y2560036D01*
X-53117035Y2495788D01*
X-53100000Y2410149D01*
X-53100000Y-3455736D01*
X-53098079Y-3475245D01*
X-53075243Y-3590050D01*
X-53060311Y-3626098D01*
X-52995279Y-3723425D01*
X-52982843Y-3738579D01*
X-51565542Y-5155880D01*
X-51517035Y-5228476D01*
X-51500000Y-5314115D01*
X-51500000Y-13470149D01*
X-51517035Y-13555788D01*
X-51559964Y-13620036D01*
X-51624212Y-13662965D01*
X-51709851Y-13680000D01*
X-55950149Y-13680000D01*
X-56035788Y-13662965D01*
X-56080000Y-13633424D01*
X-56080000Y-12055000D01*
X-55350000Y-12055000D01*
X-55350000Y-12989673D01*
X-55304328Y-13099936D01*
X-55219937Y-13184328D01*
X-55109674Y-13230000D01*
X-54050000Y-13230000D01*
X-53975000Y-13155000D01*
X-53975000Y-11980000D01*
X-53175000Y-11980000D01*
X-53175000Y-13155000D01*
X-53100000Y-13230000D01*
X-52040326Y-13230000D01*
X-51930063Y-13184328D01*
X-51845672Y-13099936D01*
X-51800000Y-12989673D01*
X-51800000Y-12055000D01*
X-51875000Y-11980000D01*
X-53175000Y-11980000D01*
X-53975000Y-11980000D01*
X-55275000Y-11980000D01*
X-55350000Y-12055000D01*
X-56080000Y-12055000D01*
X-56080000Y-10170327D01*
X-55350000Y-10170327D01*
X-55350000Y-11105000D01*
X-55275000Y-11180000D01*
X-53975000Y-11180000D01*
X-53975000Y-10005000D01*
X-53175000Y-10005000D01*
X-53175000Y-11180000D01*
X-51875000Y-11180000D01*
X-51800000Y-11105000D01*
X-51800000Y-10170327D01*
X-51845672Y-10060064D01*
X-51930063Y-9975672D01*
X-52040326Y-9930000D01*
X-53100000Y-9930000D01*
X-53175000Y-10005000D01*
X-53975000Y-10005000D01*
X-54050000Y-9930000D01*
X-55109674Y-9930000D01*
X-55219937Y-9975672D01*
X-55304328Y-10060064D01*
X-55350000Y-10170327D01*
X-56080000Y-10170327D01*
X-56080000Y-7155000D01*
X-55350000Y-7155000D01*
X-55350000Y-8089673D01*
X-55304328Y-8199936D01*
X-55219937Y-8284328D01*
X-55109674Y-8330000D01*
X-54050000Y-8330000D01*
X-53975000Y-8255000D01*
X-53975000Y-7080000D01*
X-53175000Y-7080000D01*
X-53175000Y-8255000D01*
X-53100000Y-8330000D01*
X-52040326Y-8330000D01*
X-51930063Y-8284328D01*
X-51845672Y-8199936D01*
X-51800000Y-8089673D01*
X-51800000Y-7155000D01*
X-51875000Y-7080000D01*
X-53175000Y-7080000D01*
X-53975000Y-7080000D01*
X-55275000Y-7080000D01*
X-55350000Y-7155000D01*
X-56080000Y-7155000D01*
X-56080000Y-5270327D01*
X-55350000Y-5270327D01*
X-55350000Y-6205000D01*
X-55275000Y-6280000D01*
X-53975000Y-6280000D01*
X-53975000Y-5105000D01*
X-53175000Y-5105000D01*
X-53175000Y-6280000D01*
X-51875000Y-6280000D01*
X-51800000Y-6205000D01*
X-51800000Y-5270327D01*
X-51845672Y-5160064D01*
X-51930063Y-5075672D01*
X-52040326Y-5030000D01*
X-53100000Y-5030000D01*
X-53175000Y-5105000D01*
X-53975000Y-5105000D01*
X-54050000Y-5030000D01*
X-55109674Y-5030000D01*
X-55219937Y-5075672D01*
X-55304328Y-5160064D01*
X-55350000Y-5270327D01*
X-56080000Y-5270327D01*
X-56080000Y-2725000D01*
X-55100000Y-2725000D01*
X-55100000Y-3559673D01*
X-55054328Y-3669936D01*
X-54969937Y-3754328D01*
X-54859674Y-3800000D01*
X-54625000Y-3800000D01*
X-54550000Y-3725000D01*
X-54550000Y-2650000D01*
X-54050000Y-2650000D01*
X-54050000Y-3725000D01*
X-53975000Y-3800000D01*
X-53740326Y-3800000D01*
X-53630063Y-3754328D01*
X-53545672Y-3669936D01*
X-53500000Y-3559673D01*
X-53500000Y-2725000D01*
X-53575000Y-2650000D01*
X-54050000Y-2650000D01*
X-54550000Y-2650000D01*
X-55025000Y-2650000D01*
X-55100000Y-2725000D01*
X-56080000Y-2725000D01*
X-56080000Y-940327D01*
X-55100000Y-940327D01*
X-55100000Y-1775000D01*
X-55025000Y-1850000D01*
X-54550000Y-1850000D01*
X-54550000Y-775000D01*
X-54050000Y-775000D01*
X-54050000Y-1850000D01*
X-53575000Y-1850000D01*
X-53500000Y-1775000D01*
X-53500000Y-940327D01*
X-53545672Y-830064D01*
X-53630063Y-745672D01*
X-53740326Y-700000D01*
X-53975000Y-700000D01*
X-54050000Y-775000D01*
X-54550000Y-775000D01*
X-54625000Y-700000D01*
X-54859674Y-700000D01*
X-54969937Y-745672D01*
X-55054328Y-830064D01*
X-55100000Y-940327D01*
X-56080000Y-940327D01*
X-56080000Y445000D01*
X-55100000Y445000D01*
X-55100000Y-389673D01*
X-55054328Y-499936D01*
X-54969937Y-584328D01*
X-54859674Y-630000D01*
X-54625000Y-630000D01*
X-54550000Y-555000D01*
X-54550000Y520000D01*
X-54050000Y520000D01*
X-54050000Y-555000D01*
X-53975000Y-630000D01*
X-53740326Y-630000D01*
X-53630063Y-584328D01*
X-53545672Y-499936D01*
X-53500000Y-389673D01*
X-53500000Y445000D01*
X-53575000Y520000D01*
X-54050000Y520000D01*
X-54550000Y520000D01*
X-55025000Y520000D01*
X-55100000Y445000D01*
X-56080000Y445000D01*
X-56080000Y2229673D01*
X-55100000Y2229673D01*
X-55100000Y1395000D01*
X-55025000Y1320000D01*
X-54550000Y1320000D01*
X-54550000Y2395000D01*
X-54050000Y2395000D01*
X-54050000Y1320000D01*
X-53575000Y1320000D01*
X-53500000Y1395000D01*
X-53500000Y2229673D01*
X-53545672Y2339936D01*
X-53630063Y2424328D01*
X-53740326Y2470000D01*
X-53975000Y2470000D01*
X-54050000Y2395000D01*
X-54550000Y2395000D01*
X-54625000Y2470000D01*
X-54859674Y2470000D01*
X-54969937Y2424328D01*
X-55054328Y2339936D01*
X-55100000Y2229673D01*
X-56080000Y2229673D01*
X-56080000Y2573424D01*
X-56035788Y2602965D01*
X-55950149Y2620000D01*
X-53309851Y2620000D01*
X-53224212Y2602965D01*
X-53224212Y2602965D01*
G37*
X-53224212Y2602965D02*
X-53159964Y2560036D01*
X-53117035Y2495788D01*
X-53100000Y2410149D01*
X-53100000Y-3455736D01*
X-53098079Y-3475245D01*
X-53075243Y-3590050D01*
X-53060311Y-3626098D01*
X-52995279Y-3723425D01*
X-52982843Y-3738579D01*
X-51565542Y-5155880D01*
X-51517035Y-5228476D01*
X-51500000Y-5314115D01*
X-51500000Y-13470149D01*
X-51517035Y-13555788D01*
X-51559964Y-13620036D01*
X-51624212Y-13662965D01*
X-51709851Y-13680000D01*
X-55950149Y-13680000D01*
X-56035788Y-13662965D01*
X-56080000Y-13633424D01*
X-56080000Y-12055000D01*
X-55350000Y-12055000D01*
X-55350000Y-12989673D01*
X-55304328Y-13099936D01*
X-55219937Y-13184328D01*
X-55109674Y-13230000D01*
X-54050000Y-13230000D01*
X-53975000Y-13155000D01*
X-53975000Y-11980000D01*
X-53175000Y-11980000D01*
X-53175000Y-13155000D01*
X-53100000Y-13230000D01*
X-52040326Y-13230000D01*
X-51930063Y-13184328D01*
X-51845672Y-13099936D01*
X-51800000Y-12989673D01*
X-51800000Y-12055000D01*
X-51875000Y-11980000D01*
X-53175000Y-11980000D01*
X-53975000Y-11980000D01*
X-55275000Y-11980000D01*
X-55350000Y-12055000D01*
X-56080000Y-12055000D01*
X-56080000Y-10170327D01*
X-55350000Y-10170327D01*
X-55350000Y-11105000D01*
X-55275000Y-11180000D01*
X-53975000Y-11180000D01*
X-53975000Y-10005000D01*
X-53175000Y-10005000D01*
X-53175000Y-11180000D01*
X-51875000Y-11180000D01*
X-51800000Y-11105000D01*
X-51800000Y-10170327D01*
X-51845672Y-10060064D01*
X-51930063Y-9975672D01*
X-52040326Y-9930000D01*
X-53100000Y-9930000D01*
X-53175000Y-10005000D01*
X-53975000Y-10005000D01*
X-54050000Y-9930000D01*
X-55109674Y-9930000D01*
X-55219937Y-9975672D01*
X-55304328Y-10060064D01*
X-55350000Y-10170327D01*
X-56080000Y-10170327D01*
X-56080000Y-7155000D01*
X-55350000Y-7155000D01*
X-55350000Y-8089673D01*
X-55304328Y-8199936D01*
X-55219937Y-8284328D01*
X-55109674Y-8330000D01*
X-54050000Y-8330000D01*
X-53975000Y-8255000D01*
X-53975000Y-7080000D01*
X-53175000Y-7080000D01*
X-53175000Y-8255000D01*
X-53100000Y-8330000D01*
X-52040326Y-8330000D01*
X-51930063Y-8284328D01*
X-51845672Y-8199936D01*
X-51800000Y-8089673D01*
X-51800000Y-7155000D01*
X-51875000Y-7080000D01*
X-53175000Y-7080000D01*
X-53975000Y-7080000D01*
X-55275000Y-7080000D01*
X-55350000Y-7155000D01*
X-56080000Y-7155000D01*
X-56080000Y-5270327D01*
X-55350000Y-5270327D01*
X-55350000Y-6205000D01*
X-55275000Y-6280000D01*
X-53975000Y-6280000D01*
X-53975000Y-5105000D01*
X-53175000Y-5105000D01*
X-53175000Y-6280000D01*
X-51875000Y-6280000D01*
X-51800000Y-6205000D01*
X-51800000Y-5270327D01*
X-51845672Y-5160064D01*
X-51930063Y-5075672D01*
X-52040326Y-5030000D01*
X-53100000Y-5030000D01*
X-53175000Y-5105000D01*
X-53975000Y-5105000D01*
X-54050000Y-5030000D01*
X-55109674Y-5030000D01*
X-55219937Y-5075672D01*
X-55304328Y-5160064D01*
X-55350000Y-5270327D01*
X-56080000Y-5270327D01*
X-56080000Y-2725000D01*
X-55100000Y-2725000D01*
X-55100000Y-3559673D01*
X-55054328Y-3669936D01*
X-54969937Y-3754328D01*
X-54859674Y-3800000D01*
X-54625000Y-3800000D01*
X-54550000Y-3725000D01*
X-54550000Y-2650000D01*
X-54050000Y-2650000D01*
X-54050000Y-3725000D01*
X-53975000Y-3800000D01*
X-53740326Y-3800000D01*
X-53630063Y-3754328D01*
X-53545672Y-3669936D01*
X-53500000Y-3559673D01*
X-53500000Y-2725000D01*
X-53575000Y-2650000D01*
X-54050000Y-2650000D01*
X-54550000Y-2650000D01*
X-55025000Y-2650000D01*
X-55100000Y-2725000D01*
X-56080000Y-2725000D01*
X-56080000Y-940327D01*
X-55100000Y-940327D01*
X-55100000Y-1775000D01*
X-55025000Y-1850000D01*
X-54550000Y-1850000D01*
X-54550000Y-775000D01*
X-54050000Y-775000D01*
X-54050000Y-1850000D01*
X-53575000Y-1850000D01*
X-53500000Y-1775000D01*
X-53500000Y-940327D01*
X-53545672Y-830064D01*
X-53630063Y-745672D01*
X-53740326Y-700000D01*
X-53975000Y-700000D01*
X-54050000Y-775000D01*
X-54550000Y-775000D01*
X-54625000Y-700000D01*
X-54859674Y-700000D01*
X-54969937Y-745672D01*
X-55054328Y-830064D01*
X-55100000Y-940327D01*
X-56080000Y-940327D01*
X-56080000Y445000D01*
X-55100000Y445000D01*
X-55100000Y-389673D01*
X-55054328Y-499936D01*
X-54969937Y-584328D01*
X-54859674Y-630000D01*
X-54625000Y-630000D01*
X-54550000Y-555000D01*
X-54550000Y520000D01*
X-54050000Y520000D01*
X-54050000Y-555000D01*
X-53975000Y-630000D01*
X-53740326Y-630000D01*
X-53630063Y-584328D01*
X-53545672Y-499936D01*
X-53500000Y-389673D01*
X-53500000Y445000D01*
X-53575000Y520000D01*
X-54050000Y520000D01*
X-54550000Y520000D01*
X-55025000Y520000D01*
X-55100000Y445000D01*
X-56080000Y445000D01*
X-56080000Y2229673D01*
X-55100000Y2229673D01*
X-55100000Y1395000D01*
X-55025000Y1320000D01*
X-54550000Y1320000D01*
X-54550000Y2395000D01*
X-54050000Y2395000D01*
X-54050000Y1320000D01*
X-53575000Y1320000D01*
X-53500000Y1395000D01*
X-53500000Y2229673D01*
X-53545672Y2339936D01*
X-53630063Y2424328D01*
X-53740326Y2470000D01*
X-53975000Y2470000D01*
X-54050000Y2395000D01*
X-54550000Y2395000D01*
X-54625000Y2470000D01*
X-54859674Y2470000D01*
X-54969937Y2424328D01*
X-55054328Y2339936D01*
X-55100000Y2229673D01*
X-56080000Y2229673D01*
X-56080000Y2573424D01*
X-56035788Y2602965D01*
X-55950149Y2620000D01*
X-53309851Y2620000D01*
X-53224212Y2602965D01*
D56*
G36*
X-20265000Y7955145D02*
X-20265000Y7428750D01*
X-20275000Y7418750D01*
X-20275000Y7000000D01*
X-20265000Y7000000D01*
X-20265000Y6500000D01*
X-20275000Y6500000D01*
X-20275000Y6081250D01*
X-20265000Y6071250D01*
X-20265000Y5934835D01*
X-24709182Y5925024D01*
X-25285000Y6095970D01*
X-25285000Y6443750D01*
X-23845000Y6443750D01*
X-23845000Y6205245D01*
X-23810746Y6122548D01*
X-23747452Y6059254D01*
X-23664756Y6025000D01*
X-23151250Y6025000D01*
X-23095000Y6081250D01*
X-23095000Y6500000D01*
X-22545000Y6500000D01*
X-22545000Y6081250D01*
X-22488750Y6025000D01*
X-21975244Y6025000D01*
X-21892548Y6059254D01*
X-21829254Y6122548D01*
X-21795000Y6205245D01*
X-21795000Y6443750D01*
X-21575000Y6443750D01*
X-21575000Y6205245D01*
X-21540746Y6122548D01*
X-21477452Y6059254D01*
X-21394756Y6025000D01*
X-20881250Y6025000D01*
X-20825000Y6081250D01*
X-20825000Y6500000D01*
X-21518750Y6500000D01*
X-21575000Y6443750D01*
X-21795000Y6443750D01*
X-21851250Y6500000D01*
X-22545000Y6500000D01*
X-23095000Y6500000D01*
X-23788750Y6500000D01*
X-23845000Y6443750D01*
X-25285000Y6443750D01*
X-25285000Y7294755D01*
X-23845000Y7294755D01*
X-23845000Y7056250D01*
X-23788750Y7000000D01*
X-23095000Y7000000D01*
X-23095000Y7418750D01*
X-22545000Y7418750D01*
X-22545000Y7000000D01*
X-21851250Y7000000D01*
X-21795000Y7056250D01*
X-21795000Y7294755D01*
X-21575000Y7294755D01*
X-21575000Y7056250D01*
X-21518750Y7000000D01*
X-20825000Y7000000D01*
X-20825000Y7418750D01*
X-20881250Y7475000D01*
X-21394756Y7475000D01*
X-21477452Y7440746D01*
X-21540746Y7377452D01*
X-21575000Y7294755D01*
X-21795000Y7294755D01*
X-21829254Y7377452D01*
X-21892548Y7440746D01*
X-21975244Y7475000D01*
X-22488750Y7475000D01*
X-22545000Y7418750D01*
X-23095000Y7418750D01*
X-23151250Y7475000D01*
X-23664756Y7475000D01*
X-23747452Y7440746D01*
X-23810746Y7377452D01*
X-23845000Y7294755D01*
X-25285000Y7294755D01*
X-25285000Y7964855D01*
X-20265000Y7955145D01*
X-20265000Y7955145D01*
G37*
X-20265000Y7955145D02*
X-20265000Y7428750D01*
X-20275000Y7418750D01*
X-20275000Y7000000D01*
X-20265000Y7000000D01*
X-20265000Y6500000D01*
X-20275000Y6500000D01*
X-20275000Y6081250D01*
X-20265000Y6071250D01*
X-20265000Y5934835D01*
X-24709182Y5925024D01*
X-25285000Y6095970D01*
X-25285000Y6443750D01*
X-23845000Y6443750D01*
X-23845000Y6205245D01*
X-23810746Y6122548D01*
X-23747452Y6059254D01*
X-23664756Y6025000D01*
X-23151250Y6025000D01*
X-23095000Y6081250D01*
X-23095000Y6500000D01*
X-22545000Y6500000D01*
X-22545000Y6081250D01*
X-22488750Y6025000D01*
X-21975244Y6025000D01*
X-21892548Y6059254D01*
X-21829254Y6122548D01*
X-21795000Y6205245D01*
X-21795000Y6443750D01*
X-21575000Y6443750D01*
X-21575000Y6205245D01*
X-21540746Y6122548D01*
X-21477452Y6059254D01*
X-21394756Y6025000D01*
X-20881250Y6025000D01*
X-20825000Y6081250D01*
X-20825000Y6500000D01*
X-21518750Y6500000D01*
X-21575000Y6443750D01*
X-21795000Y6443750D01*
X-21851250Y6500000D01*
X-22545000Y6500000D01*
X-23095000Y6500000D01*
X-23788750Y6500000D01*
X-23845000Y6443750D01*
X-25285000Y6443750D01*
X-25285000Y7294755D01*
X-23845000Y7294755D01*
X-23845000Y7056250D01*
X-23788750Y7000000D01*
X-23095000Y7000000D01*
X-23095000Y7418750D01*
X-22545000Y7418750D01*
X-22545000Y7000000D01*
X-21851250Y7000000D01*
X-21795000Y7056250D01*
X-21795000Y7294755D01*
X-21575000Y7294755D01*
X-21575000Y7056250D01*
X-21518750Y7000000D01*
X-20825000Y7000000D01*
X-20825000Y7418750D01*
X-20881250Y7475000D01*
X-21394756Y7475000D01*
X-21477452Y7440746D01*
X-21540746Y7377452D01*
X-21575000Y7294755D01*
X-21795000Y7294755D01*
X-21829254Y7377452D01*
X-21892548Y7440746D01*
X-21975244Y7475000D01*
X-22488750Y7475000D01*
X-22545000Y7418750D01*
X-23095000Y7418750D01*
X-23151250Y7475000D01*
X-23664756Y7475000D01*
X-23747452Y7440746D01*
X-23810746Y7377452D01*
X-23845000Y7294755D01*
X-25285000Y7294755D01*
X-25285000Y7964855D01*
X-20265000Y7955145D01*
G36*
X-23845000Y10056250D02*
X-23788750Y10000000D01*
X-23095000Y10000000D01*
X-23095000Y10045000D01*
X-22545000Y10045000D01*
X-22545000Y10000000D01*
X-21851250Y10000000D01*
X-21795000Y10056250D01*
X-21795000Y10225000D01*
X-21575000Y10225000D01*
X-21575000Y10056250D01*
X-21518750Y10000000D01*
X-20825000Y10000000D01*
X-20825000Y10045000D01*
X-20275000Y10045000D01*
X-20275000Y10000000D01*
X-19581250Y10000000D01*
X-19525000Y10056250D01*
X-19525000Y10225000D01*
X-17037472Y10225000D01*
X-17050000Y10194755D01*
X-17050000Y10006250D01*
X-16993750Y9950000D01*
X-16637500Y9950000D01*
X-16637500Y10045000D01*
X-16262500Y10045000D01*
X-16262500Y9950000D01*
X-15906250Y9950000D01*
X-15850000Y10006250D01*
X-15850000Y10194755D01*
X-15862528Y10225000D01*
X-9105000Y10225000D01*
X-9105000Y9015000D01*
X-19320000Y9015000D01*
X-19349179Y9009091D01*
X-19381603Y8982780D01*
X-19609228Y8655000D01*
X-25270811Y8655000D01*
X-25555000Y9063521D01*
X-25555000Y9443750D01*
X-23845000Y9443750D01*
X-23845000Y9205245D01*
X-23810746Y9122548D01*
X-23747452Y9059254D01*
X-23664756Y9025000D01*
X-23151250Y9025000D01*
X-23095000Y9081250D01*
X-23095000Y9500000D01*
X-22545000Y9500000D01*
X-22545000Y9081250D01*
X-22488750Y9025000D01*
X-21975244Y9025000D01*
X-21892548Y9059254D01*
X-21829254Y9122548D01*
X-21795000Y9205245D01*
X-21795000Y9443750D01*
X-21575000Y9443750D01*
X-21575000Y9205245D01*
X-21540746Y9122548D01*
X-21477452Y9059254D01*
X-21394756Y9025000D01*
X-20881250Y9025000D01*
X-20825000Y9081250D01*
X-20825000Y9500000D01*
X-20275000Y9500000D01*
X-20275000Y9081250D01*
X-20218750Y9025000D01*
X-19705244Y9025000D01*
X-19622548Y9059254D01*
X-19559254Y9122548D01*
X-19525000Y9205245D01*
X-19525000Y9443750D01*
X-19575000Y9493750D01*
X-17050000Y9493750D01*
X-17050000Y9305245D01*
X-17015746Y9222548D01*
X-16952452Y9159254D01*
X-16869756Y9125000D01*
X-16693750Y9125000D01*
X-16637500Y9181250D01*
X-16637500Y9550000D01*
X-16262500Y9550000D01*
X-16262500Y9181250D01*
X-16206250Y9125000D01*
X-16030244Y9125000D01*
X-15947548Y9159254D01*
X-15884254Y9222548D01*
X-15850000Y9305245D01*
X-15850000Y9493750D01*
X-15906250Y9550000D01*
X-16262500Y9550000D01*
X-16637500Y9550000D01*
X-16993750Y9550000D01*
X-17050000Y9493750D01*
X-19575000Y9493750D01*
X-19581250Y9500000D01*
X-20275000Y9500000D01*
X-20825000Y9500000D01*
X-21518750Y9500000D01*
X-21575000Y9443750D01*
X-21795000Y9443750D01*
X-21851250Y9500000D01*
X-22545000Y9500000D01*
X-23095000Y9500000D01*
X-23788750Y9500000D01*
X-23845000Y9443750D01*
X-25555000Y9443750D01*
X-25555000Y10225000D01*
X-23845000Y10225000D01*
X-23845000Y10056250D01*
X-23845000Y10056250D01*
G37*
X-23845000Y10056250D02*
X-23788750Y10000000D01*
X-23095000Y10000000D01*
X-23095000Y10045000D01*
X-22545000Y10045000D01*
X-22545000Y10000000D01*
X-21851250Y10000000D01*
X-21795000Y10056250D01*
X-21795000Y10225000D01*
X-21575000Y10225000D01*
X-21575000Y10056250D01*
X-21518750Y10000000D01*
X-20825000Y10000000D01*
X-20825000Y10045000D01*
X-20275000Y10045000D01*
X-20275000Y10000000D01*
X-19581250Y10000000D01*
X-19525000Y10056250D01*
X-19525000Y10225000D01*
X-17037472Y10225000D01*
X-17050000Y10194755D01*
X-17050000Y10006250D01*
X-16993750Y9950000D01*
X-16637500Y9950000D01*
X-16637500Y10045000D01*
X-16262500Y10045000D01*
X-16262500Y9950000D01*
X-15906250Y9950000D01*
X-15850000Y10006250D01*
X-15850000Y10194755D01*
X-15862528Y10225000D01*
X-9105000Y10225000D01*
X-9105000Y9015000D01*
X-19320000Y9015000D01*
X-19349179Y9009091D01*
X-19381603Y8982780D01*
X-19609228Y8655000D01*
X-25270811Y8655000D01*
X-25555000Y9063521D01*
X-25555000Y9443750D01*
X-23845000Y9443750D01*
X-23845000Y9205245D01*
X-23810746Y9122548D01*
X-23747452Y9059254D01*
X-23664756Y9025000D01*
X-23151250Y9025000D01*
X-23095000Y9081250D01*
X-23095000Y9500000D01*
X-22545000Y9500000D01*
X-22545000Y9081250D01*
X-22488750Y9025000D01*
X-21975244Y9025000D01*
X-21892548Y9059254D01*
X-21829254Y9122548D01*
X-21795000Y9205245D01*
X-21795000Y9443750D01*
X-21575000Y9443750D01*
X-21575000Y9205245D01*
X-21540746Y9122548D01*
X-21477452Y9059254D01*
X-21394756Y9025000D01*
X-20881250Y9025000D01*
X-20825000Y9081250D01*
X-20825000Y9500000D01*
X-20275000Y9500000D01*
X-20275000Y9081250D01*
X-20218750Y9025000D01*
X-19705244Y9025000D01*
X-19622548Y9059254D01*
X-19559254Y9122548D01*
X-19525000Y9205245D01*
X-19525000Y9443750D01*
X-19575000Y9493750D01*
X-17050000Y9493750D01*
X-17050000Y9305245D01*
X-17015746Y9222548D01*
X-16952452Y9159254D01*
X-16869756Y9125000D01*
X-16693750Y9125000D01*
X-16637500Y9181250D01*
X-16637500Y9550000D01*
X-16262500Y9550000D01*
X-16262500Y9181250D01*
X-16206250Y9125000D01*
X-16030244Y9125000D01*
X-15947548Y9159254D01*
X-15884254Y9222548D01*
X-15850000Y9305245D01*
X-15850000Y9493750D01*
X-15906250Y9550000D01*
X-16262500Y9550000D01*
X-16637500Y9550000D01*
X-16993750Y9550000D01*
X-17050000Y9493750D01*
X-19575000Y9493750D01*
X-19581250Y9500000D01*
X-20275000Y9500000D01*
X-20825000Y9500000D01*
X-21518750Y9500000D01*
X-21575000Y9443750D01*
X-21795000Y9443750D01*
X-21851250Y9500000D01*
X-22545000Y9500000D01*
X-23095000Y9500000D01*
X-23788750Y9500000D01*
X-23845000Y9443750D01*
X-25555000Y9443750D01*
X-25555000Y10225000D01*
X-23845000Y10225000D01*
X-23845000Y10056250D01*
G36*
X-2334074Y10214074D02*
X-2534589Y9913982D01*
X-2605000Y9560000D01*
X-2605000Y8261352D01*
X-2696459Y8307082D01*
X-2730000Y8315000D01*
X-8525108Y8315000D01*
X-8887002Y8744750D01*
X-8420000Y8744750D01*
X-8420000Y8535245D01*
X-8385746Y8452548D01*
X-8322452Y8389254D01*
X-8239756Y8355000D01*
X-8055250Y8355000D01*
X-7999000Y8411250D01*
X-7999000Y8801000D01*
X-7641000Y8801000D01*
X-7641000Y8411250D01*
X-7584750Y8355000D01*
X-7400244Y8355000D01*
X-7317548Y8389254D01*
X-7254254Y8452548D01*
X-7220000Y8535245D01*
X-7220000Y8744750D01*
X-7276250Y8801000D01*
X-7641000Y8801000D01*
X-7999000Y8801000D01*
X-8363750Y8801000D01*
X-8420000Y8744750D01*
X-8887002Y8744750D01*
X-9125000Y9027372D01*
X-9125000Y9114750D01*
X-7015000Y9114750D01*
X-7015000Y8805245D01*
X-6980746Y8722548D01*
X-6917452Y8659254D01*
X-6834756Y8625000D01*
X-6225250Y8625000D01*
X-6169000Y8681250D01*
X-6169000Y9171000D01*
X-5811000Y9171000D01*
X-5811000Y8681250D01*
X-5754750Y8625000D01*
X-5145244Y8625000D01*
X-5062548Y8659254D01*
X-4999254Y8722548D01*
X-4965000Y8805245D01*
X-4965000Y9114750D01*
X-4975000Y9124750D01*
X-4735000Y9124750D01*
X-4735000Y8815245D01*
X-4700746Y8732548D01*
X-4637452Y8669254D01*
X-4554756Y8635000D01*
X-3945250Y8635000D01*
X-3889000Y8691250D01*
X-3889000Y9181000D01*
X-3531000Y9181000D01*
X-3531000Y8691250D01*
X-3474750Y8635000D01*
X-2865244Y8635000D01*
X-2782548Y8669254D01*
X-2719254Y8732548D01*
X-2685000Y8815245D01*
X-2685000Y9124750D01*
X-2741250Y9181000D01*
X-3531000Y9181000D01*
X-3889000Y9181000D01*
X-4678750Y9181000D01*
X-4735000Y9124750D01*
X-4975000Y9124750D01*
X-5021250Y9171000D01*
X-5811000Y9171000D01*
X-6169000Y9171000D01*
X-6958750Y9171000D01*
X-7015000Y9114750D01*
X-9125000Y9114750D01*
X-9125000Y9424755D01*
X-8420000Y9424755D01*
X-8420000Y9215250D01*
X-8363750Y9159000D01*
X-7999000Y9159000D01*
X-7999000Y9548750D01*
X-7641000Y9548750D01*
X-7641000Y9159000D01*
X-7276250Y9159000D01*
X-7220000Y9215250D01*
X-7220000Y9424755D01*
X-7254254Y9507452D01*
X-7317548Y9570746D01*
X-7400244Y9605000D01*
X-7584750Y9605000D01*
X-7641000Y9548750D01*
X-7999000Y9548750D01*
X-8055250Y9605000D01*
X-8239756Y9605000D01*
X-8322452Y9570746D01*
X-8385746Y9507452D01*
X-8420000Y9424755D01*
X-9125000Y9424755D01*
X-9125000Y9894755D01*
X-7015000Y9894755D01*
X-7015000Y9585250D01*
X-6958750Y9529000D01*
X-6169000Y9529000D01*
X-6169000Y10018750D01*
X-5811000Y10018750D01*
X-5811000Y9529000D01*
X-5021250Y9529000D01*
X-4965000Y9585250D01*
X-4965000Y9894755D01*
X-4969142Y9904755D01*
X-4735000Y9904755D01*
X-4735000Y9595250D01*
X-4678750Y9539000D01*
X-3889000Y9539000D01*
X-3889000Y10028750D01*
X-3531000Y10028750D01*
X-3531000Y9539000D01*
X-2741250Y9539000D01*
X-2685000Y9595250D01*
X-2685000Y9904755D01*
X-2719254Y9987452D01*
X-2782548Y10050746D01*
X-2865244Y10085000D01*
X-3474750Y10085000D01*
X-3531000Y10028750D01*
X-3889000Y10028750D01*
X-3945250Y10085000D01*
X-4554756Y10085000D01*
X-4637452Y10050746D01*
X-4700746Y9987452D01*
X-4735000Y9904755D01*
X-4969142Y9904755D01*
X-4999254Y9977452D01*
X-5062548Y10040746D01*
X-5145244Y10075000D01*
X-5754750Y10075000D01*
X-5811000Y10018750D01*
X-6169000Y10018750D01*
X-6225250Y10075000D01*
X-6834756Y10075000D01*
X-6917452Y10040746D01*
X-6980746Y9977452D01*
X-7015000Y9894755D01*
X-9125000Y9894755D01*
X-9125000Y10225000D01*
X-2317722Y10225000D01*
X-2334074Y10214074D01*
X-2334074Y10214074D01*
G37*
X-2334074Y10214074D02*
X-2534589Y9913982D01*
X-2605000Y9560000D01*
X-2605000Y8261352D01*
X-2696459Y8307082D01*
X-2730000Y8315000D01*
X-8525108Y8315000D01*
X-8887002Y8744750D01*
X-8420000Y8744750D01*
X-8420000Y8535245D01*
X-8385746Y8452548D01*
X-8322452Y8389254D01*
X-8239756Y8355000D01*
X-8055250Y8355000D01*
X-7999000Y8411250D01*
X-7999000Y8801000D01*
X-7641000Y8801000D01*
X-7641000Y8411250D01*
X-7584750Y8355000D01*
X-7400244Y8355000D01*
X-7317548Y8389254D01*
X-7254254Y8452548D01*
X-7220000Y8535245D01*
X-7220000Y8744750D01*
X-7276250Y8801000D01*
X-7641000Y8801000D01*
X-7999000Y8801000D01*
X-8363750Y8801000D01*
X-8420000Y8744750D01*
X-8887002Y8744750D01*
X-9125000Y9027372D01*
X-9125000Y9114750D01*
X-7015000Y9114750D01*
X-7015000Y8805245D01*
X-6980746Y8722548D01*
X-6917452Y8659254D01*
X-6834756Y8625000D01*
X-6225250Y8625000D01*
X-6169000Y8681250D01*
X-6169000Y9171000D01*
X-5811000Y9171000D01*
X-5811000Y8681250D01*
X-5754750Y8625000D01*
X-5145244Y8625000D01*
X-5062548Y8659254D01*
X-4999254Y8722548D01*
X-4965000Y8805245D01*
X-4965000Y9114750D01*
X-4975000Y9124750D01*
X-4735000Y9124750D01*
X-4735000Y8815245D01*
X-4700746Y8732548D01*
X-4637452Y8669254D01*
X-4554756Y8635000D01*
X-3945250Y8635000D01*
X-3889000Y8691250D01*
X-3889000Y9181000D01*
X-3531000Y9181000D01*
X-3531000Y8691250D01*
X-3474750Y8635000D01*
X-2865244Y8635000D01*
X-2782548Y8669254D01*
X-2719254Y8732548D01*
X-2685000Y8815245D01*
X-2685000Y9124750D01*
X-2741250Y9181000D01*
X-3531000Y9181000D01*
X-3889000Y9181000D01*
X-4678750Y9181000D01*
X-4735000Y9124750D01*
X-4975000Y9124750D01*
X-5021250Y9171000D01*
X-5811000Y9171000D01*
X-6169000Y9171000D01*
X-6958750Y9171000D01*
X-7015000Y9114750D01*
X-9125000Y9114750D01*
X-9125000Y9424755D01*
X-8420000Y9424755D01*
X-8420000Y9215250D01*
X-8363750Y9159000D01*
X-7999000Y9159000D01*
X-7999000Y9548750D01*
X-7641000Y9548750D01*
X-7641000Y9159000D01*
X-7276250Y9159000D01*
X-7220000Y9215250D01*
X-7220000Y9424755D01*
X-7254254Y9507452D01*
X-7317548Y9570746D01*
X-7400244Y9605000D01*
X-7584750Y9605000D01*
X-7641000Y9548750D01*
X-7999000Y9548750D01*
X-8055250Y9605000D01*
X-8239756Y9605000D01*
X-8322452Y9570746D01*
X-8385746Y9507452D01*
X-8420000Y9424755D01*
X-9125000Y9424755D01*
X-9125000Y9894755D01*
X-7015000Y9894755D01*
X-7015000Y9585250D01*
X-6958750Y9529000D01*
X-6169000Y9529000D01*
X-6169000Y10018750D01*
X-5811000Y10018750D01*
X-5811000Y9529000D01*
X-5021250Y9529000D01*
X-4965000Y9585250D01*
X-4965000Y9894755D01*
X-4969142Y9904755D01*
X-4735000Y9904755D01*
X-4735000Y9595250D01*
X-4678750Y9539000D01*
X-3889000Y9539000D01*
X-3889000Y10028750D01*
X-3531000Y10028750D01*
X-3531000Y9539000D01*
X-2741250Y9539000D01*
X-2685000Y9595250D01*
X-2685000Y9904755D01*
X-2719254Y9987452D01*
X-2782548Y10050746D01*
X-2865244Y10085000D01*
X-3474750Y10085000D01*
X-3531000Y10028750D01*
X-3889000Y10028750D01*
X-3945250Y10085000D01*
X-4554756Y10085000D01*
X-4637452Y10050746D01*
X-4700746Y9987452D01*
X-4735000Y9904755D01*
X-4969142Y9904755D01*
X-4999254Y9977452D01*
X-5062548Y10040746D01*
X-5145244Y10075000D01*
X-5754750Y10075000D01*
X-5811000Y10018750D01*
X-6169000Y10018750D01*
X-6225250Y10075000D01*
X-6834756Y10075000D01*
X-6917452Y10040746D01*
X-6980746Y9977452D01*
X-7015000Y9894755D01*
X-9125000Y9894755D01*
X-9125000Y10225000D01*
X-2317722Y10225000D01*
X-2334074Y10214074D01*
G36*
X-11234985Y7930151D02*
X-10391235Y7930151D01*
X-10391235Y7950151D01*
X-9841235Y7950151D01*
X-9841235Y7930151D01*
X-8997485Y7930151D01*
X-8990992Y7936644D01*
X-8743541Y7812918D01*
X-8710000Y7805000D01*
X-8420000Y7805000D01*
X-8420000Y7736250D01*
X-8363750Y7680000D01*
X-8007500Y7680000D01*
X-8007500Y7775000D01*
X-7632500Y7775000D01*
X-7632500Y7680000D01*
X-7276250Y7680000D01*
X-7220000Y7736250D01*
X-7220000Y7805000D01*
X-2837103Y7805000D01*
X-1875000Y6544645D01*
X-1875000Y5329705D01*
X-2057817Y4635000D01*
X-3225000Y4635000D01*
X-3225000Y4870000D01*
X-3230909Y4899179D01*
X-3246967Y4923033D01*
X-3696967Y5373033D01*
X-3721778Y5389488D01*
X-3750000Y5395000D01*
X-10664981Y5395000D01*
X-11208243Y6043750D01*
X-7015000Y6043750D01*
X-7015000Y5805245D01*
X-6980746Y5722548D01*
X-6917452Y5659254D01*
X-6834756Y5625000D01*
X-6321250Y5625000D01*
X-6265000Y5681250D01*
X-6265000Y6100000D01*
X-5715000Y6100000D01*
X-5715000Y5681250D01*
X-5658750Y5625000D01*
X-5145244Y5625000D01*
X-5062548Y5659254D01*
X-4999254Y5722548D01*
X-4965000Y5805245D01*
X-4965000Y6043750D01*
X-4975000Y6053750D01*
X-4735000Y6053750D01*
X-4735000Y5815245D01*
X-4700746Y5732548D01*
X-4637452Y5669254D01*
X-4554756Y5635000D01*
X-4041250Y5635000D01*
X-3985000Y5691250D01*
X-3985000Y6110000D01*
X-3435000Y6110000D01*
X-3435000Y5691250D01*
X-3378750Y5635000D01*
X-2865244Y5635000D01*
X-2782548Y5669254D01*
X-2719254Y5732548D01*
X-2685000Y5815245D01*
X-2685000Y6053750D01*
X-2741250Y6110000D01*
X-3435000Y6110000D01*
X-3985000Y6110000D01*
X-4678750Y6110000D01*
X-4735000Y6053750D01*
X-4975000Y6053750D01*
X-5021250Y6100000D01*
X-5715000Y6100000D01*
X-6265000Y6100000D01*
X-6958750Y6100000D01*
X-7015000Y6043750D01*
X-11208243Y6043750D01*
X-11655000Y6577255D01*
X-11655000Y7323901D01*
X-11291235Y7323901D01*
X-11291235Y6810395D01*
X-11256981Y6727699D01*
X-11193687Y6664405D01*
X-11110990Y6630151D01*
X-10447485Y6630151D01*
X-10391235Y6686401D01*
X-10391235Y7380151D01*
X-9841235Y7380151D01*
X-9841235Y6686401D01*
X-9784985Y6630151D01*
X-9121480Y6630151D01*
X-9038783Y6664405D01*
X-8975489Y6727699D01*
X-8941235Y6810395D01*
X-8941235Y7223750D01*
X-8420000Y7223750D01*
X-8420000Y7035245D01*
X-8385746Y6952548D01*
X-8322452Y6889254D01*
X-8239756Y6855000D01*
X-8063750Y6855000D01*
X-8007500Y6911250D01*
X-8007500Y7280000D01*
X-7632500Y7280000D01*
X-7632500Y6911250D01*
X-7576250Y6855000D01*
X-7400244Y6855000D01*
X-7317548Y6889254D01*
X-7312047Y6894755D01*
X-7015000Y6894755D01*
X-7015000Y6656250D01*
X-6958750Y6600000D01*
X-6265000Y6600000D01*
X-6265000Y7018750D01*
X-5715000Y7018750D01*
X-5715000Y6600000D01*
X-5021250Y6600000D01*
X-4965000Y6656250D01*
X-4965000Y6894755D01*
X-4969142Y6904755D01*
X-4735000Y6904755D01*
X-4735000Y6666250D01*
X-4678750Y6610000D01*
X-3985000Y6610000D01*
X-3985000Y7028750D01*
X-3435000Y7028750D01*
X-3435000Y6610000D01*
X-2741250Y6610000D01*
X-2685000Y6666250D01*
X-2685000Y6904755D01*
X-2719254Y6987452D01*
X-2782548Y7050746D01*
X-2865244Y7085000D01*
X-3378750Y7085000D01*
X-3435000Y7028750D01*
X-3985000Y7028750D01*
X-4041250Y7085000D01*
X-4554756Y7085000D01*
X-4637452Y7050746D01*
X-4700746Y6987452D01*
X-4735000Y6904755D01*
X-4969142Y6904755D01*
X-4999254Y6977452D01*
X-5062548Y7040746D01*
X-5145244Y7075000D01*
X-5658750Y7075000D01*
X-5715000Y7018750D01*
X-6265000Y7018750D01*
X-6321250Y7075000D01*
X-6834756Y7075000D01*
X-6917452Y7040746D01*
X-6980746Y6977452D01*
X-7015000Y6894755D01*
X-7312047Y6894755D01*
X-7254254Y6952548D01*
X-7220000Y7035245D01*
X-7220000Y7223750D01*
X-7276250Y7280000D01*
X-7632500Y7280000D01*
X-8007500Y7280000D01*
X-8363750Y7280000D01*
X-8420000Y7223750D01*
X-8941235Y7223750D01*
X-8941235Y7323901D01*
X-8997485Y7380151D01*
X-9841235Y7380151D01*
X-10391235Y7380151D01*
X-11234985Y7380151D01*
X-11291235Y7323901D01*
X-11655000Y7323901D01*
X-11655000Y7975000D01*
X-11279834Y7975000D01*
X-11234985Y7930151D01*
X-11234985Y7930151D01*
G37*
X-11234985Y7930151D02*
X-10391235Y7930151D01*
X-10391235Y7950151D01*
X-9841235Y7950151D01*
X-9841235Y7930151D01*
X-8997485Y7930151D01*
X-8990992Y7936644D01*
X-8743541Y7812918D01*
X-8710000Y7805000D01*
X-8420000Y7805000D01*
X-8420000Y7736250D01*
X-8363750Y7680000D01*
X-8007500Y7680000D01*
X-8007500Y7775000D01*
X-7632500Y7775000D01*
X-7632500Y7680000D01*
X-7276250Y7680000D01*
X-7220000Y7736250D01*
X-7220000Y7805000D01*
X-2837103Y7805000D01*
X-1875000Y6544645D01*
X-1875000Y5329705D01*
X-2057817Y4635000D01*
X-3225000Y4635000D01*
X-3225000Y4870000D01*
X-3230909Y4899179D01*
X-3246967Y4923033D01*
X-3696967Y5373033D01*
X-3721778Y5389488D01*
X-3750000Y5395000D01*
X-10664981Y5395000D01*
X-11208243Y6043750D01*
X-7015000Y6043750D01*
X-7015000Y5805245D01*
X-6980746Y5722548D01*
X-6917452Y5659254D01*
X-6834756Y5625000D01*
X-6321250Y5625000D01*
X-6265000Y5681250D01*
X-6265000Y6100000D01*
X-5715000Y6100000D01*
X-5715000Y5681250D01*
X-5658750Y5625000D01*
X-5145244Y5625000D01*
X-5062548Y5659254D01*
X-4999254Y5722548D01*
X-4965000Y5805245D01*
X-4965000Y6043750D01*
X-4975000Y6053750D01*
X-4735000Y6053750D01*
X-4735000Y5815245D01*
X-4700746Y5732548D01*
X-4637452Y5669254D01*
X-4554756Y5635000D01*
X-4041250Y5635000D01*
X-3985000Y5691250D01*
X-3985000Y6110000D01*
X-3435000Y6110000D01*
X-3435000Y5691250D01*
X-3378750Y5635000D01*
X-2865244Y5635000D01*
X-2782548Y5669254D01*
X-2719254Y5732548D01*
X-2685000Y5815245D01*
X-2685000Y6053750D01*
X-2741250Y6110000D01*
X-3435000Y6110000D01*
X-3985000Y6110000D01*
X-4678750Y6110000D01*
X-4735000Y6053750D01*
X-4975000Y6053750D01*
X-5021250Y6100000D01*
X-5715000Y6100000D01*
X-6265000Y6100000D01*
X-6958750Y6100000D01*
X-7015000Y6043750D01*
X-11208243Y6043750D01*
X-11655000Y6577255D01*
X-11655000Y7323901D01*
X-11291235Y7323901D01*
X-11291235Y6810395D01*
X-11256981Y6727699D01*
X-11193687Y6664405D01*
X-11110990Y6630151D01*
X-10447485Y6630151D01*
X-10391235Y6686401D01*
X-10391235Y7380151D01*
X-9841235Y7380151D01*
X-9841235Y6686401D01*
X-9784985Y6630151D01*
X-9121480Y6630151D01*
X-9038783Y6664405D01*
X-8975489Y6727699D01*
X-8941235Y6810395D01*
X-8941235Y7223750D01*
X-8420000Y7223750D01*
X-8420000Y7035245D01*
X-8385746Y6952548D01*
X-8322452Y6889254D01*
X-8239756Y6855000D01*
X-8063750Y6855000D01*
X-8007500Y6911250D01*
X-8007500Y7280000D01*
X-7632500Y7280000D01*
X-7632500Y6911250D01*
X-7576250Y6855000D01*
X-7400244Y6855000D01*
X-7317548Y6889254D01*
X-7312047Y6894755D01*
X-7015000Y6894755D01*
X-7015000Y6656250D01*
X-6958750Y6600000D01*
X-6265000Y6600000D01*
X-6265000Y7018750D01*
X-5715000Y7018750D01*
X-5715000Y6600000D01*
X-5021250Y6600000D01*
X-4965000Y6656250D01*
X-4965000Y6894755D01*
X-4969142Y6904755D01*
X-4735000Y6904755D01*
X-4735000Y6666250D01*
X-4678750Y6610000D01*
X-3985000Y6610000D01*
X-3985000Y7028750D01*
X-3435000Y7028750D01*
X-3435000Y6610000D01*
X-2741250Y6610000D01*
X-2685000Y6666250D01*
X-2685000Y6904755D01*
X-2719254Y6987452D01*
X-2782548Y7050746D01*
X-2865244Y7085000D01*
X-3378750Y7085000D01*
X-3435000Y7028750D01*
X-3985000Y7028750D01*
X-4041250Y7085000D01*
X-4554756Y7085000D01*
X-4637452Y7050746D01*
X-4700746Y6987452D01*
X-4735000Y6904755D01*
X-4969142Y6904755D01*
X-4999254Y6977452D01*
X-5062548Y7040746D01*
X-5145244Y7075000D01*
X-5658750Y7075000D01*
X-5715000Y7018750D01*
X-6265000Y7018750D01*
X-6321250Y7075000D01*
X-6834756Y7075000D01*
X-6917452Y7040746D01*
X-6980746Y6977452D01*
X-7015000Y6894755D01*
X-7312047Y6894755D01*
X-7254254Y6952548D01*
X-7220000Y7035245D01*
X-7220000Y7223750D01*
X-7276250Y7280000D01*
X-7632500Y7280000D01*
X-8007500Y7280000D01*
X-8363750Y7280000D01*
X-8420000Y7223750D01*
X-8941235Y7223750D01*
X-8941235Y7323901D01*
X-8997485Y7380151D01*
X-9841235Y7380151D01*
X-10391235Y7380151D01*
X-11234985Y7380151D01*
X-11291235Y7323901D01*
X-11655000Y7323901D01*
X-11655000Y7975000D01*
X-11279834Y7975000D01*
X-11234985Y7930151D01*
M02*
