%TF.GenerationSoftware,KiCad,Pcbnew,4.0.7*%
%TF.CreationDate,2018-05-23T21:05:09+03:00*%
%TF.ProjectId,Pci-e,5063692D652E6B696361645F70636200,rev?*%
%TF.FileFunction,Soldermask,Top*%
%FSLAX46Y46*%
G04 Gerber Fmt 4.6, Leading zero omitted, Abs format (unit mm)*
G04 Created by KiCad (PCBNEW 4.0.7) date 05/23/18 21:05:09*
%MOMM*%
%LPD*%
G01*
G04 APERTURE LIST*
%ADD10C,0.100000*%
%ADD11C,0.900000*%
%ADD12C,2.650000*%
%ADD13R,0.750000X0.800000*%
%ADD14R,1.600000X1.000000*%
%ADD15R,2.950000X2.700000*%
%ADD16R,1.000000X2.500000*%
%ADD17R,1.900000X1.600000*%
%ADD18R,1.060000X0.650000*%
%ADD19R,1.200000X0.900000*%
%ADD20R,3.000000X3.000000*%
%ADD21C,3.000000*%
%ADD22C,3.300000*%
%ADD23O,0.609600X1.473200*%
%ADD24R,0.900000X0.800000*%
%ADD25R,0.650000X1.060000*%
%ADD26R,0.800000X0.750000*%
%ADD27R,0.900000X0.500000*%
%ADD28R,0.500000X0.900000*%
%ADD29R,1.300000X0.700000*%
%ADD30R,2.000000X2.600000*%
%ADD31O,2.000000X2.600000*%
%ADD32R,0.800000X0.800000*%
%ADD33C,4.500000*%
%ADD34R,0.700000X1.300000*%
%ADD35R,0.600000X0.500000*%
%ADD36R,2.800000X2.800000*%
%ADD37C,2.800000*%
%ADD38R,0.550000X0.900000*%
%ADD39R,0.200000X0.800000*%
%ADD40R,0.550000X0.550000*%
%ADD41R,0.200000X1.000000*%
%ADD42R,0.710000X1.300000*%
%ADD43R,0.710000X1.850000*%
%ADD44C,0.800000*%
G04 APERTURE END LIST*
D10*
D11*
X-10649999Y-3260001D03*
X-11649999Y-1260001D03*
X-8649999Y-3260001D03*
X-6649999Y-3260001D03*
X-4649999Y-3260001D03*
X-2649999Y-3260001D03*
X-9649999Y-1260001D03*
X-7649999Y-1260001D03*
X-5649999Y-1260001D03*
X-3649999Y-1260001D03*
X-1649999Y-1260001D03*
X-11649999Y1239999D03*
X-10649999Y3239999D03*
X-8649999Y3239999D03*
X-9649999Y1239999D03*
X-6649999Y3239999D03*
X-7649999Y1239999D03*
X-2649999Y3239999D03*
X-3649999Y1239999D03*
X-5649999Y1239999D03*
X-4649999Y3239999D03*
X-1649999Y1239999D03*
X1350001Y-3260001D03*
X2350001Y-1260001D03*
X2350001Y1239999D03*
X1350001Y3239999D03*
D12*
X1Y-1D03*
D11*
X3350001Y-3260001D03*
X5350001Y-3260001D03*
X7350001Y-3260001D03*
X9350001Y-3260001D03*
X11350001Y-3260001D03*
X13350001Y-3260001D03*
X15350001Y-3260001D03*
X17350001Y-3260001D03*
X19350001Y-3260001D03*
X21350001Y-3260001D03*
X3350001Y3239999D03*
X5350001Y3239999D03*
X7350001Y3239999D03*
X9350001Y3239999D03*
X11350001Y3239999D03*
X13350001Y3239999D03*
X15350001Y3239999D03*
X17350001Y3239999D03*
X19350001Y3239999D03*
X21350001Y3239999D03*
X4350001Y1239999D03*
X6350001Y1239999D03*
X8350001Y1239999D03*
X10350001Y1239999D03*
X12350001Y1239999D03*
X14350001Y1239999D03*
X16350001Y1239999D03*
X18350001Y1239999D03*
X20350001Y1239999D03*
X4350001Y-1260001D03*
X6350001Y-1260001D03*
X8350001Y-1260001D03*
X10350001Y-1260001D03*
X12350001Y-1260001D03*
X14350001Y-1260001D03*
X16350001Y-1260001D03*
X18350001Y-1260001D03*
X20350001Y-1260001D03*
D12*
X73150001Y-1D03*
D11*
X22350001Y-1260001D03*
X23350001Y-3260001D03*
X24350001Y-1260001D03*
X25350001Y-3260001D03*
X26350001Y-1260001D03*
X27350001Y-3260001D03*
X28350001Y-1260001D03*
X29350001Y-3260001D03*
X30350001Y-1260001D03*
X31350001Y-3260001D03*
X32350001Y-1260001D03*
X33350001Y-3260001D03*
X34350001Y-1260001D03*
X35350001Y-3260001D03*
X36350001Y-1260001D03*
X37350001Y-3260001D03*
X38350001Y-1260001D03*
X39350001Y-3260001D03*
X40350001Y-1260001D03*
X41350001Y-3260001D03*
X42350001Y-1260001D03*
X43350001Y-3260001D03*
X44350001Y-1260001D03*
X45350001Y-3260001D03*
X46350001Y-1260001D03*
X47350001Y-3260001D03*
X48350001Y-1260001D03*
X49350001Y-3260001D03*
X50350001Y-1260001D03*
X51350001Y-3260001D03*
X52350001Y-1260001D03*
X53350001Y-3260001D03*
X54350001Y-1260001D03*
X55350001Y-3260001D03*
X56350001Y-1260001D03*
X57350001Y-3260001D03*
X58350001Y-1260001D03*
X59350001Y-3260001D03*
X60350001Y-1260001D03*
X61350001Y-3260001D03*
X62350001Y-1260001D03*
X63350001Y-3260001D03*
X64350001Y-1260001D03*
X65350001Y-3260001D03*
X66350001Y-1260001D03*
X67350001Y-3260001D03*
X68350001Y-1260001D03*
X69350001Y-3260001D03*
X70350001Y-1260001D03*
X71350001Y-3260001D03*
X22350001Y1239999D03*
X23350001Y3239999D03*
X24350001Y1239999D03*
X25350001Y3239999D03*
X26350001Y1239999D03*
X27350001Y3239999D03*
X28350001Y1239999D03*
X29350001Y3239999D03*
X30350001Y1239999D03*
X31350001Y3239999D03*
X32350001Y1239999D03*
X33350001Y3239999D03*
X34350001Y1239999D03*
X35350001Y3239999D03*
X36350001Y1239999D03*
X37350001Y3239999D03*
X38350001Y1239999D03*
X39350001Y3239999D03*
X40350001Y1239999D03*
X41350001Y3239999D03*
X42350001Y1239999D03*
X43350001Y3239999D03*
X44350001Y1239999D03*
X45350001Y3239999D03*
X46350001Y1239999D03*
X47350001Y3239999D03*
X48350001Y1239999D03*
X49350001Y3239999D03*
X50350001Y1239999D03*
X51350001Y3239999D03*
X52350001Y1239999D03*
X53350001Y3239999D03*
X54350001Y1239999D03*
X55350001Y3239999D03*
X56350001Y1239999D03*
X57350001Y3239999D03*
X58350001Y1239999D03*
X59350001Y3239999D03*
X60350001Y1239999D03*
X61350001Y3239999D03*
X62350001Y1239999D03*
X63350001Y3239999D03*
X64350001Y1239999D03*
X65350001Y3239999D03*
X66350001Y1239999D03*
X67350001Y3239999D03*
X68350001Y1239999D03*
X69350001Y3239999D03*
X70350001Y1239999D03*
X71350001Y3239999D03*
D13*
X-7820000Y8980000D03*
X-7820000Y7480000D03*
D14*
X-5990000Y6350000D03*
X-5990000Y9350000D03*
D15*
X-46825000Y-11580000D03*
X-53575000Y-11580000D03*
X-46825000Y-6680000D03*
X-53575000Y-6680000D03*
D16*
X-51300000Y-2250000D03*
X-54300000Y-2250000D03*
X-51300000Y920000D03*
X-54300000Y920000D03*
D17*
X-14216235Y7655151D03*
X-10116235Y7655151D03*
D13*
X-20640000Y2480000D03*
X-20640000Y980000D03*
D18*
X-16446235Y5075151D03*
X-16446235Y6025151D03*
X-16446235Y6975151D03*
X-18646235Y6975151D03*
X-18646235Y5075151D03*
X-18646235Y6025151D03*
D19*
X-21840000Y-9380000D03*
X-21840000Y-12680000D03*
D20*
X-26790000Y-7080000D03*
D21*
X-30990000Y-7080000D03*
X-35190000Y-7080000D03*
X-39390000Y-7080000D03*
X-26790000Y-1580000D03*
X-30990000Y-1580000D03*
X-35190000Y-1580000D03*
X-39390000Y-1580000D03*
D22*
X-26790000Y-14380000D03*
X-39390000Y-14380000D03*
D23*
X-47795000Y-2484000D03*
X-46525000Y-2484000D03*
X-45255000Y-2484000D03*
X-43985000Y-2484000D03*
X-43985000Y3104000D03*
X-45255000Y3104000D03*
X-46525000Y3104000D03*
X-47795000Y3104000D03*
D24*
X-32950000Y1190000D03*
X-32950000Y3090000D03*
X-34950000Y2140000D03*
X-32950000Y6042244D03*
X-32950000Y7942244D03*
X-34950000Y6992244D03*
D25*
X-47240000Y-18550000D03*
X-46290000Y-18550000D03*
X-45340000Y-18550000D03*
X-45340000Y-16350000D03*
X-47240000Y-16350000D03*
X-46290000Y-16350000D03*
D13*
X-16450000Y8250000D03*
X-16450000Y9750000D03*
X-17920000Y-4770000D03*
X-17920000Y-3270000D03*
D26*
X-17820000Y3200000D03*
X-16320000Y3200000D03*
D13*
X-19890000Y-10920000D03*
X-19890000Y-9420000D03*
D27*
X-19330000Y1130000D03*
X-19330000Y2630000D03*
D28*
X-22150000Y3830000D03*
X-20650000Y3830000D03*
X-22150000Y5190000D03*
X-20650000Y5190000D03*
X-30150000Y1190000D03*
X-31650000Y1190000D03*
X-31650000Y5952245D03*
X-30150000Y5952245D03*
D29*
X-36600000Y3140000D03*
X-36600000Y1240000D03*
X-38460000Y3140000D03*
X-38460000Y1240000D03*
X-36600000Y7940000D03*
X-36600000Y6040000D03*
D28*
X-30150000Y8052245D03*
X-31650000Y8052245D03*
D27*
X-43570000Y-18570000D03*
X-43570000Y-20070000D03*
X-43570000Y-16060000D03*
X-43570000Y-17560000D03*
X-43570000Y-13480000D03*
X-43570000Y-14980000D03*
X-48900000Y-18760000D03*
X-48900000Y-17260000D03*
D29*
X-4360000Y-8250001D03*
X-4360000Y-6350001D03*
D30*
X-14660000Y-7090000D03*
D31*
X-12120000Y-7090000D03*
X-9580000Y-7090000D03*
D32*
X-6010000Y-8200000D03*
X-6010000Y-6600000D03*
X-50350000Y-17010000D03*
X-50350000Y-18610000D03*
D33*
X-52860000Y6990000D03*
X78840000Y6990000D03*
X78840000Y-18010000D03*
X-20160000Y-18010000D03*
D32*
X-51750000Y-17010000D03*
X-51750000Y-18610000D03*
D34*
X-49870000Y-15350000D03*
X-51770000Y-15350000D03*
D35*
X-54600000Y-15790000D03*
X-53300000Y-15280000D03*
X-54600000Y-14770000D03*
D26*
X-45180000Y-14780000D03*
X-46680000Y-14780000D03*
D14*
X-21990000Y-2520000D03*
X-21990000Y-5520000D03*
X-3710000Y6360000D03*
X-3710000Y9360000D03*
X-20550000Y9750000D03*
X-20550000Y6750000D03*
X-22820000Y9750000D03*
X-22820000Y6750000D03*
D36*
X-46822000Y7786000D03*
D37*
X-41322000Y7786000D03*
D13*
X-19660000Y-4770000D03*
X-19660000Y-3270000D03*
D29*
X-53780000Y-17060000D03*
X-53780000Y-18960000D03*
D38*
X50000Y-8790000D03*
D39*
X1350000Y-8740000D03*
D40*
X1950000Y-9665000D03*
D41*
X2150000Y-8640000D03*
D39*
X2550000Y-8740000D03*
X2950000Y-8740000D03*
D41*
X3350000Y-8640000D03*
D39*
X3750000Y-8740000D03*
X4150000Y-8740000D03*
D41*
X4550000Y-8640000D03*
D39*
X4950000Y-8740000D03*
X5350000Y-8740000D03*
D41*
X5750000Y-8640000D03*
D39*
X6150000Y-8740000D03*
X6550000Y-8740000D03*
D41*
X6950000Y-8640000D03*
D39*
X7350000Y-8740000D03*
X7750000Y-8740000D03*
D41*
X8150000Y-8640000D03*
D39*
X8550000Y-8740000D03*
X8950000Y-8740000D03*
D41*
X9350000Y-8640000D03*
D39*
X9750000Y-8740000D03*
X10150000Y-8740000D03*
D41*
X10550000Y-8640000D03*
D39*
X10950000Y-8740000D03*
X11350000Y-8740000D03*
D41*
X11750000Y-8640000D03*
D39*
X12150000Y-8740000D03*
X12550000Y-8740000D03*
X950000Y-8740000D03*
D38*
X13450000Y-8790000D03*
D39*
X1750000Y-8740000D03*
D40*
X4350000Y-9665000D03*
X6750000Y-9665000D03*
X9150000Y-9665000D03*
X11550000Y-9665000D03*
D42*
X-1690000Y-9540000D03*
D43*
X-1690000Y-11860000D03*
D42*
X15190000Y-9540000D03*
D43*
X15190000Y-11860000D03*
D44*
X-700000Y-10190000D03*
X14200000Y-10190000D03*
D38*
X19250000Y-8790000D03*
D39*
X20550000Y-8740000D03*
D40*
X21150000Y-9665000D03*
D41*
X21350000Y-8640000D03*
D39*
X21750000Y-8740000D03*
X22150000Y-8740000D03*
D41*
X22550000Y-8640000D03*
D39*
X22950000Y-8740000D03*
X23350000Y-8740000D03*
D41*
X23750000Y-8640000D03*
D39*
X24150000Y-8740000D03*
X24550000Y-8740000D03*
D41*
X24950000Y-8640000D03*
D39*
X25350000Y-8740000D03*
X25750000Y-8740000D03*
D41*
X26150000Y-8640000D03*
D39*
X26550000Y-8740000D03*
X26950000Y-8740000D03*
D41*
X27350000Y-8640000D03*
D39*
X27750000Y-8740000D03*
X28150000Y-8740000D03*
D41*
X28550000Y-8640000D03*
D39*
X28950000Y-8740000D03*
X29350000Y-8740000D03*
D41*
X29750000Y-8640000D03*
D39*
X30150000Y-8740000D03*
X30550000Y-8740000D03*
D41*
X30950000Y-8640000D03*
D39*
X31350000Y-8740000D03*
X31750000Y-8740000D03*
X20150000Y-8740000D03*
D38*
X32650000Y-8790000D03*
D39*
X20950000Y-8740000D03*
D40*
X23550000Y-9665000D03*
X25950000Y-9665000D03*
X28350000Y-9665000D03*
X30750000Y-9665000D03*
D42*
X17510000Y-9540000D03*
D43*
X17510000Y-11860000D03*
D42*
X34390000Y-9540000D03*
D43*
X34390000Y-11860000D03*
D44*
X18500000Y-10190000D03*
X33400000Y-10190000D03*
D38*
X38450000Y-8790000D03*
D39*
X39750000Y-8740000D03*
D40*
X40350000Y-9665000D03*
D41*
X40550000Y-8640000D03*
D39*
X40950000Y-8740000D03*
X41350000Y-8740000D03*
D41*
X41750000Y-8640000D03*
D39*
X42150000Y-8740000D03*
X42550000Y-8740000D03*
D41*
X42950000Y-8640000D03*
D39*
X43350000Y-8740000D03*
X43750000Y-8740000D03*
D41*
X44150000Y-8640000D03*
D39*
X44550000Y-8740000D03*
X44950000Y-8740000D03*
D41*
X45350000Y-8640000D03*
D39*
X45750000Y-8740000D03*
X46150000Y-8740000D03*
D41*
X46550000Y-8640000D03*
D39*
X46950000Y-8740000D03*
X47350000Y-8740000D03*
D41*
X47750000Y-8640000D03*
D39*
X48150000Y-8740000D03*
X48550000Y-8740000D03*
D41*
X48950000Y-8640000D03*
D39*
X49350000Y-8740000D03*
X49750000Y-8740000D03*
D41*
X50150000Y-8640000D03*
D39*
X50550000Y-8740000D03*
X50950000Y-8740000D03*
X39350000Y-8740000D03*
D38*
X51850000Y-8790000D03*
D39*
X40150000Y-8740000D03*
D40*
X42750000Y-9665000D03*
X45150000Y-9665000D03*
X47550000Y-9665000D03*
X49950000Y-9665000D03*
D42*
X36710000Y-9540000D03*
D43*
X36710000Y-11860000D03*
D42*
X53590000Y-9540000D03*
D43*
X53590000Y-11860000D03*
D44*
X37700000Y-10190000D03*
X52600000Y-10190000D03*
D38*
X57650000Y-8790000D03*
D39*
X58950000Y-8740000D03*
D40*
X59550000Y-9665000D03*
D41*
X59750000Y-8640000D03*
D39*
X60150000Y-8740000D03*
X60550000Y-8740000D03*
D41*
X60950000Y-8640000D03*
D39*
X61350000Y-8740000D03*
X61750000Y-8740000D03*
D41*
X62150000Y-8640000D03*
D39*
X62550000Y-8740000D03*
X62950000Y-8740000D03*
D41*
X63350000Y-8640000D03*
D39*
X63750000Y-8740000D03*
X64150000Y-8740000D03*
D41*
X64550000Y-8640000D03*
D39*
X64950000Y-8740000D03*
X65350000Y-8740000D03*
D41*
X65750000Y-8640000D03*
D39*
X66150000Y-8740000D03*
X66550000Y-8740000D03*
D41*
X66950000Y-8640000D03*
D39*
X67350000Y-8740000D03*
X67750000Y-8740000D03*
D41*
X68150000Y-8640000D03*
D39*
X68550000Y-8740000D03*
X68950000Y-8740000D03*
D41*
X69350000Y-8640000D03*
D39*
X69750000Y-8740000D03*
X70150000Y-8740000D03*
X58550000Y-8740000D03*
D38*
X71050000Y-8790000D03*
D39*
X59350000Y-8740000D03*
D40*
X61950000Y-9665000D03*
X64350000Y-9665000D03*
X66750000Y-9665000D03*
X69150000Y-9665000D03*
D42*
X55910000Y-9540000D03*
D43*
X55910000Y-11860000D03*
D42*
X72790000Y-9540000D03*
D43*
X72790000Y-11860000D03*
D44*
X56900000Y-10190000D03*
X71800000Y-10190000D03*
M02*
