%TF.GenerationSoftware,KiCad,Pcbnew,4.0.7*%
%TF.CreationDate,2018-05-24T10:46:57+03:00*%
%TF.ProjectId,x4,78342E6B696361645F70636200000000,rev?*%
%TF.FileFunction,Copper,L4,Bot,Signal*%
%FSLAX46Y46*%
G04 Gerber Fmt 4.6, Leading zero omitted, Abs format (unit mm)*
G04 Created by KiCad (PCBNEW 4.0.7) date 05/24/18 10:46:57*
%MOMM*%
%LPD*%
G01*
G04 APERTURE LIST*
%ADD10C,0.100000*%
%ADD11R,0.650000X3.600000*%
%ADD12R,0.650000X4.600000*%
%ADD13O,0.650000X0.650000*%
%ADD14C,0.600000*%
%ADD15C,0.250000*%
%ADD16C,0.152000*%
%ADD17C,0.200000*%
%ADD18C,0.400000*%
G04 APERTURE END LIST*
D10*
D11*
X135330000Y-123970000D03*
D12*
X136330000Y-124470000D03*
X137330000Y-124470000D03*
X138330000Y-124470000D03*
X139330000Y-124470000D03*
X140330000Y-124470000D03*
X141330000Y-124470000D03*
X142330000Y-124470000D03*
X143330000Y-124470000D03*
X144330000Y-124470000D03*
X145330000Y-124470000D03*
X150330000Y-124470000D03*
X151330000Y-124470000D03*
X152330000Y-124470000D03*
X153330000Y-124470000D03*
X154330000Y-124470000D03*
X148330000Y-124470000D03*
X149330000Y-124470000D03*
D13*
X138330000Y-126770000D03*
X139330000Y-126770000D03*
X140330000Y-126770000D03*
X141330000Y-126770000D03*
X142330000Y-126770000D03*
X143330000Y-126770000D03*
X144330000Y-126770000D03*
X150330000Y-126770000D03*
X151330000Y-126770000D03*
X137330000Y-126770000D03*
X149330000Y-126770000D03*
X152330000Y-126770000D03*
X145330000Y-126770000D03*
X148330000Y-126770000D03*
X153330000Y-126770000D03*
X154330000Y-126770000D03*
X136330000Y-126770000D03*
D12*
X155330000Y-124470000D03*
X156330000Y-124470000D03*
X157330000Y-124470000D03*
X158330000Y-124470000D03*
X159330000Y-124470000D03*
X160330000Y-124470000D03*
X161330000Y-124470000D03*
X162330000Y-124470000D03*
X163330000Y-124470000D03*
X164330000Y-124470000D03*
X165330000Y-124470000D03*
X166330000Y-124470000D03*
X167330000Y-124470000D03*
X168330000Y-124470000D03*
D13*
X155330000Y-126770000D03*
X156330000Y-126770000D03*
X157330000Y-126770000D03*
X158330000Y-126770000D03*
X159330000Y-126770000D03*
X160330000Y-126770000D03*
X161330000Y-126770000D03*
X162330000Y-126770000D03*
X163330000Y-126770000D03*
X164330000Y-126770000D03*
X165330000Y-126770000D03*
X166330000Y-126770000D03*
X167330000Y-126770000D03*
X168330000Y-126770000D03*
D14*
X152280000Y-119680000D03*
X151380000Y-119680000D03*
X155280000Y-119680000D03*
X154380000Y-119680000D03*
X158280000Y-119680000D03*
X157380000Y-119680000D03*
X161280000Y-119680000D03*
X160380000Y-119680000D03*
X164280000Y-119680000D03*
X163380000Y-119680000D03*
X165970000Y-119680000D03*
X148710000Y-118970000D03*
X151240000Y-114830000D03*
X142330000Y-121000000D03*
X149440000Y-117320000D03*
X152430000Y-116370000D03*
X162030000Y-116370000D03*
X160830000Y-116370000D03*
X159630000Y-116370000D03*
X158430000Y-116370000D03*
X157230000Y-116370000D03*
X156030000Y-116370000D03*
X154830000Y-116370000D03*
X153630000Y-116370000D03*
X140070000Y-121240000D03*
X167955000Y-121672506D03*
X148850000Y-121670000D03*
X151558000Y-121669998D03*
X154850000Y-121670000D03*
X156850000Y-121670000D03*
X158860000Y-121670000D03*
X160850000Y-121670000D03*
X162860000Y-121670000D03*
X164845226Y-121664774D03*
D15*
X165335001Y-114204999D02*
X165970000Y-114839998D01*
X165970000Y-114839998D02*
X165970000Y-119680000D01*
X135330000Y-121600000D02*
X142725001Y-114204999D01*
X142725001Y-114204999D02*
X165335001Y-114204999D01*
X135330000Y-122035685D02*
X135330000Y-121600000D01*
X135330000Y-122035685D02*
X135330000Y-123970000D01*
D16*
X149982000Y-121792960D02*
X150822960Y-120952000D01*
X150822960Y-120952000D02*
X151582960Y-120952000D01*
X149982000Y-122147000D02*
X149982000Y-121792960D01*
X149982000Y-122147000D02*
X150330000Y-122495000D01*
X150330000Y-122495000D02*
X150330000Y-124470000D01*
X151981999Y-120552961D02*
X151582960Y-120952000D01*
X152280000Y-119680000D02*
X151981999Y-119978001D01*
X151981999Y-119978001D02*
X151981999Y-120552961D01*
X149678000Y-121667040D02*
X150697040Y-120648000D01*
X150697040Y-120648000D02*
X151457040Y-120648000D01*
X149678000Y-122147000D02*
X149678000Y-121667040D01*
X151678001Y-120427039D02*
X151457040Y-120648000D01*
X151380000Y-119680000D02*
X151678001Y-119978001D01*
X151678001Y-119978001D02*
X151678001Y-120427039D01*
X149678000Y-122147000D02*
X149330000Y-122495000D01*
X149330000Y-122495000D02*
X149330000Y-124470000D01*
X153342960Y-121252000D02*
X154292960Y-121252000D01*
X154292960Y-121252000D02*
X154981999Y-120562961D01*
X152982000Y-121612960D02*
X153342960Y-121252000D01*
X152982000Y-122147000D02*
X152982000Y-121612960D01*
X152982000Y-122147000D02*
X153330000Y-122495000D01*
X153330000Y-122495000D02*
X153330000Y-124470000D01*
X155280000Y-119680000D02*
X154981999Y-119978001D01*
X154981999Y-119978001D02*
X154981999Y-120562961D01*
X154380000Y-119680000D02*
X154678001Y-119978001D01*
X153217040Y-120948000D02*
X154167040Y-120948000D01*
X154167040Y-120948000D02*
X154678001Y-120437039D01*
X152678000Y-121487040D02*
X153217040Y-120948000D01*
X152678000Y-122147000D02*
X152678000Y-121487040D01*
X152678000Y-122147000D02*
X152330000Y-122495000D01*
X152330000Y-122495000D02*
X152330000Y-124470000D01*
X154678001Y-119978001D02*
X154678001Y-120437039D01*
X158330000Y-124470000D02*
X158330000Y-122495000D01*
X158330000Y-122495000D02*
X157982000Y-122147000D01*
X157982000Y-122147000D02*
X157981999Y-119978001D01*
X157981999Y-119978001D02*
X158280000Y-119680000D01*
X157678000Y-122147000D02*
X157678001Y-119978001D01*
X157678001Y-119978001D02*
X157380000Y-119680000D01*
X157330000Y-124470000D02*
X157330000Y-122495000D01*
X157330000Y-122495000D02*
X157678000Y-122147000D01*
D17*
X145750000Y-118280000D02*
X148020000Y-118280000D01*
X148020000Y-118280000D02*
X148710000Y-118970000D01*
X145330000Y-118700000D02*
X145750000Y-118280000D01*
X145330000Y-124470000D02*
X145330000Y-118700000D01*
D16*
X161330000Y-124470000D02*
X161330000Y-122495000D01*
X161330000Y-122495000D02*
X161678000Y-122147000D01*
X161678000Y-122147000D02*
X161678000Y-121672960D01*
X160678001Y-119978001D02*
X160380000Y-119680000D01*
X161678000Y-121672960D02*
X160678001Y-120672961D01*
X160678001Y-120672961D02*
X160678001Y-119978001D01*
X160981999Y-119978001D02*
X161280000Y-119680000D01*
X162330000Y-124470000D02*
X162330000Y-122495000D01*
X162330000Y-122495000D02*
X161982000Y-122147000D01*
X161982000Y-122147000D02*
X161982000Y-121547040D01*
X161982000Y-121547040D02*
X160981999Y-120547039D01*
X160981999Y-120547039D02*
X160981999Y-119978001D01*
X165678000Y-122147000D02*
X165330000Y-122495000D01*
X165330000Y-122495000D02*
X165330000Y-124470000D01*
X163678001Y-119978001D02*
X163678001Y-120375189D01*
X163678001Y-120375189D02*
X164144812Y-120842000D01*
X163380000Y-119680000D02*
X163678001Y-119978001D01*
X164144812Y-120842000D02*
X164837040Y-120842000D01*
X164837040Y-120842000D02*
X165678000Y-121682960D01*
X165678000Y-121682960D02*
X165678000Y-122147000D01*
X163981999Y-119978001D02*
X163981999Y-120249267D01*
X164270732Y-120538000D02*
X164962960Y-120538000D01*
X165982000Y-122147000D02*
X166330000Y-122495000D01*
X164962960Y-120538000D02*
X165982000Y-121557040D01*
X164280000Y-119680000D02*
X163981999Y-119978001D01*
X163981999Y-120249267D02*
X164270732Y-120538000D01*
X165982000Y-121557040D02*
X165982000Y-122147000D01*
X166330000Y-122495000D02*
X166330000Y-124470000D01*
D15*
X142330000Y-121000000D02*
X142629999Y-120700001D01*
X142629999Y-120700001D02*
X142629999Y-119230001D01*
X142629999Y-119230001D02*
X147030000Y-114830000D01*
X147030000Y-114830000D02*
X151240000Y-114830000D01*
D17*
X143830000Y-121000000D02*
X143380000Y-121000000D01*
X143380000Y-121000000D02*
X142330000Y-121000000D01*
X143330000Y-124470000D02*
X143330000Y-121050000D01*
X143330000Y-121050000D02*
X143380000Y-121000000D01*
X144330000Y-124470000D02*
X144330000Y-121500000D01*
X144330000Y-121500000D02*
X143830000Y-121000000D01*
X142360000Y-121000000D02*
X142330000Y-121000000D01*
D18*
X139214998Y-121240000D02*
X140070000Y-121240000D01*
X138330000Y-124470000D02*
X138330000Y-122124998D01*
X138330000Y-122124998D02*
X139214998Y-121240000D01*
D15*
X167330000Y-121920000D02*
X167330000Y-124470000D01*
X159080000Y-121670000D02*
X158860000Y-121670000D01*
X167577494Y-121672506D02*
X167955000Y-121672506D01*
X148330000Y-121920000D02*
X148580000Y-121670000D01*
X148580000Y-121670000D02*
X148850000Y-121670000D01*
X151330000Y-121920000D02*
X151558000Y-121692000D01*
X151558000Y-121692000D02*
X151558000Y-121669998D01*
X154330000Y-121920000D02*
X154580000Y-121670000D01*
X154580000Y-121670000D02*
X154850000Y-121670000D01*
X156330000Y-121920000D02*
X156580000Y-121670000D01*
X156580000Y-121670000D02*
X156850000Y-121670000D01*
X159330000Y-121920000D02*
X159080000Y-121670000D01*
X160330000Y-121920000D02*
X160580000Y-121670000D01*
X160580000Y-121670000D02*
X160850000Y-121670000D01*
X163330000Y-121920000D02*
X163080000Y-121670000D01*
X163080000Y-121670000D02*
X162860000Y-121670000D01*
X164330000Y-121920000D02*
X164585226Y-121664774D01*
X164585226Y-121664774D02*
X164845226Y-121664774D01*
X167330000Y-121920000D02*
X167577494Y-121672506D01*
X148330000Y-124470000D02*
X148330000Y-121920000D01*
X151330000Y-124470000D02*
X151330000Y-121920000D01*
X154330000Y-124470000D02*
X154330000Y-121920000D01*
X156330000Y-124470000D02*
X156330000Y-121920000D01*
X159330000Y-124470000D02*
X159330000Y-121920000D01*
X160330000Y-124470000D02*
X160330000Y-121920000D01*
X163330000Y-124470000D02*
X163330000Y-121920000D01*
X164330000Y-124470000D02*
X164330000Y-121920000D01*
M02*
