%TF.GenerationSoftware,KiCad,Pcbnew,4.0.7*%
%TF.CreationDate,2018-05-24T10:46:57+03:00*%
%TF.ProjectId,x4,78342E6B696361645F70636200000000,rev?*%
%TF.FileFunction,Profile,NP*%
%FSLAX46Y46*%
G04 Gerber Fmt 4.6, Leading zero omitted, Abs format (unit mm)*
G04 Created by KiCad (PCBNEW 4.0.7) date 05/24/18 10:46:57*
%MOMM*%
%LPD*%
G01*
G04 APERTURE LIST*
%ADD10C,0.100000*%
%ADD11C,0.150000*%
G04 APERTURE END LIST*
D10*
D11*
X147450000Y-112400000D02*
X149450000Y-112400000D01*
X147450000Y-112400000D02*
X147450000Y-106720000D01*
X164610000Y-112400000D02*
X166610000Y-112400000D01*
X166610000Y-106720000D02*
X170930000Y-106720000D01*
X170930000Y-112400000D02*
X170930000Y-106720000D01*
X164610000Y-108300000D02*
X164610000Y-107500000D01*
X164610000Y-109100000D02*
X164610000Y-108700000D01*
X164610000Y-109900000D02*
X164610000Y-109500000D01*
X164610000Y-108300000D02*
G75*
G03X164610000Y-108700000I0J-200000D01*
G01*
X164610000Y-109100000D02*
G75*
G03X164610000Y-109500000I0J-200000D01*
G01*
X164610000Y-109900000D02*
G75*
G03X164610000Y-110300000I0J-200000D01*
G01*
X164610000Y-110700000D02*
X164610000Y-110300000D01*
X164610000Y-112400000D02*
X164610000Y-111100000D01*
X164610000Y-110700000D02*
G75*
G03X164610000Y-111100000I0J-200000D01*
G01*
X149450000Y-108700000D02*
G75*
G03X149450000Y-108300000I0J200000D01*
G01*
X149450000Y-109500000D02*
G75*
G03X149450000Y-109100000I0J200000D01*
G01*
X149450000Y-110300000D02*
G75*
G03X149450000Y-109900000I0J200000D01*
G01*
X149450000Y-108300000D02*
X149450000Y-107500000D01*
X149450000Y-109100000D02*
X149450000Y-108700000D01*
X149450000Y-109900000D02*
X149450000Y-109500000D01*
X149450000Y-110700000D02*
X149450000Y-110300000D01*
X149450000Y-112400000D02*
X149450000Y-111100000D01*
X149450000Y-111100000D02*
G75*
G03X149450000Y-110700000I0J200000D01*
G01*
X132630000Y-118770000D02*
X132630000Y-106720000D01*
X134630000Y-118770000D02*
X132630000Y-118770000D01*
X168930000Y-127770000D02*
X147730000Y-127770000D01*
X170930000Y-118770000D02*
X170930000Y-112400000D01*
X168930000Y-118770000D02*
X170930000Y-118770000D01*
X168930000Y-127770000D02*
X168930000Y-118770000D01*
X147450000Y-106720000D02*
X132630000Y-106720000D01*
X149450000Y-107500000D02*
X164610000Y-107500000D01*
X166610000Y-112400000D02*
X166610000Y-106720000D01*
X134630000Y-127770000D02*
X134630000Y-118770000D01*
X147730000Y-118770000D02*
X147730000Y-127770000D01*
X145930000Y-118770000D02*
X147730000Y-118770000D01*
X145930000Y-127770000D02*
X145930000Y-118770000D01*
X134630000Y-127770000D02*
X145930000Y-127770000D01*
M02*
