%TF.GenerationSoftware,KiCad,Pcbnew,4.0.7*%
%TF.CreationDate,2018-05-24T10:46:57+03:00*%
%TF.ProjectId,x4,78342E6B696361645F70636200000000,rev?*%
%TF.FileFunction,Copper,L2,Inr,Signal*%
%FSLAX46Y46*%
G04 Gerber Fmt 4.6, Leading zero omitted, Abs format (unit mm)*
G04 Created by KiCad (PCBNEW 4.0.7) date 05/24/18 10:46:57*
%MOMM*%
%LPD*%
G01*
G04 APERTURE LIST*
%ADD10C,0.100000*%
%ADD11C,0.600000*%
%ADD12C,0.200000*%
%ADD13C,0.250000*%
G04 APERTURE END LIST*
D10*
D11*
X152280000Y-119680000D03*
X151380000Y-119680000D03*
X155280000Y-119680000D03*
X154380000Y-119680000D03*
X158280000Y-119680000D03*
X157380000Y-119680000D03*
X161280000Y-119680000D03*
X160380000Y-119680000D03*
X164280000Y-119680000D03*
X163380000Y-119680000D03*
X165970000Y-119680000D03*
X148710000Y-118970000D03*
X151240000Y-114830000D03*
X142330000Y-121000000D03*
X149440000Y-117320000D03*
X152430000Y-116370000D03*
X162030000Y-116370000D03*
X160830000Y-116370000D03*
X159630000Y-116370000D03*
X158430000Y-116370000D03*
X157230000Y-116370000D03*
X156030000Y-116370000D03*
X154830000Y-116370000D03*
X153630000Y-116370000D03*
X140070000Y-121240000D03*
X167955000Y-121672506D03*
X148850000Y-121670000D03*
X151558000Y-121669998D03*
X154850000Y-121670000D03*
X156850000Y-121670000D03*
X158860000Y-121670000D03*
X160850000Y-121670000D03*
X162860000Y-121670000D03*
X164845226Y-121664774D03*
D12*
X162030000Y-116794264D02*
X162030000Y-117870000D01*
X160830000Y-116794264D02*
X160830000Y-117870000D01*
X159630000Y-116794264D02*
X159630000Y-117870000D01*
X158430000Y-116794264D02*
X158430000Y-117870000D01*
X157230000Y-116794264D02*
X157230000Y-117870000D01*
X156030000Y-116794264D02*
X156030000Y-117870000D01*
X154830000Y-116794264D02*
X154830000Y-117870000D01*
X153630000Y-116794264D02*
X153630000Y-117870000D01*
X162030000Y-116370000D02*
X162030000Y-116794264D01*
X160830000Y-116370000D02*
X160830000Y-116794264D01*
X159630000Y-116370000D02*
X159630000Y-116794264D01*
X158430000Y-116370000D02*
X158430000Y-116794264D01*
X157230000Y-116370000D02*
X157230000Y-116794264D01*
X156030000Y-116370000D02*
X156030000Y-116794264D01*
X154830000Y-116370000D02*
X154830000Y-116794264D01*
X153630000Y-116370000D02*
X153630000Y-116794264D01*
D13*
X149440000Y-117320000D02*
X149440000Y-117744264D01*
D12*
X152430000Y-116794264D02*
X152430000Y-117870000D01*
X152430000Y-116370000D02*
X152430000Y-116794264D01*
G36*
X168750000Y-122070000D02*
X148500000Y-122070000D01*
X148500000Y-119798824D01*
X150779896Y-119798824D01*
X150871048Y-120019429D01*
X151039683Y-120188359D01*
X151260129Y-120279896D01*
X151498824Y-120280104D01*
X151719429Y-120188952D01*
X151830045Y-120078529D01*
X151939683Y-120188359D01*
X152160129Y-120279896D01*
X152398824Y-120280104D01*
X152619429Y-120188952D01*
X152788359Y-120020317D01*
X152879896Y-119799871D01*
X152879896Y-119798824D01*
X153779896Y-119798824D01*
X153871048Y-120019429D01*
X154039683Y-120188359D01*
X154260129Y-120279896D01*
X154498824Y-120280104D01*
X154719429Y-120188952D01*
X154830045Y-120078529D01*
X154939683Y-120188359D01*
X155160129Y-120279896D01*
X155398824Y-120280104D01*
X155619429Y-120188952D01*
X155788359Y-120020317D01*
X155879896Y-119799871D01*
X155879896Y-119798824D01*
X156779896Y-119798824D01*
X156871048Y-120019429D01*
X157039683Y-120188359D01*
X157260129Y-120279896D01*
X157498824Y-120280104D01*
X157719429Y-120188952D01*
X157830045Y-120078529D01*
X157939683Y-120188359D01*
X158160129Y-120279896D01*
X158398824Y-120280104D01*
X158619429Y-120188952D01*
X158788359Y-120020317D01*
X158879896Y-119799871D01*
X158879896Y-119798824D01*
X159779896Y-119798824D01*
X159871048Y-120019429D01*
X160039683Y-120188359D01*
X160260129Y-120279896D01*
X160498824Y-120280104D01*
X160719429Y-120188952D01*
X160830045Y-120078529D01*
X160939683Y-120188359D01*
X161160129Y-120279896D01*
X161398824Y-120280104D01*
X161619429Y-120188952D01*
X161788359Y-120020317D01*
X161879896Y-119799871D01*
X161879896Y-119798824D01*
X162779896Y-119798824D01*
X162871048Y-120019429D01*
X163039683Y-120188359D01*
X163260129Y-120279896D01*
X163498824Y-120280104D01*
X163719429Y-120188952D01*
X163830045Y-120078529D01*
X163939683Y-120188359D01*
X164160129Y-120279896D01*
X164398824Y-120280104D01*
X164619429Y-120188952D01*
X164788359Y-120020317D01*
X164879896Y-119799871D01*
X164880104Y-119561176D01*
X164788952Y-119340571D01*
X164620317Y-119171641D01*
X164399871Y-119080104D01*
X164161176Y-119079896D01*
X163940571Y-119171048D01*
X163829955Y-119281471D01*
X163720317Y-119171641D01*
X163499871Y-119080104D01*
X163261176Y-119079896D01*
X163040571Y-119171048D01*
X162871641Y-119339683D01*
X162780104Y-119560129D01*
X162779896Y-119798824D01*
X161879896Y-119798824D01*
X161880104Y-119561176D01*
X161788952Y-119340571D01*
X161620317Y-119171641D01*
X161399871Y-119080104D01*
X161161176Y-119079896D01*
X160940571Y-119171048D01*
X160829955Y-119281471D01*
X160720317Y-119171641D01*
X160499871Y-119080104D01*
X160261176Y-119079896D01*
X160040571Y-119171048D01*
X159871641Y-119339683D01*
X159780104Y-119560129D01*
X159779896Y-119798824D01*
X158879896Y-119798824D01*
X158880104Y-119561176D01*
X158788952Y-119340571D01*
X158620317Y-119171641D01*
X158399871Y-119080104D01*
X158161176Y-119079896D01*
X157940571Y-119171048D01*
X157829955Y-119281471D01*
X157720317Y-119171641D01*
X157499871Y-119080104D01*
X157261176Y-119079896D01*
X157040571Y-119171048D01*
X156871641Y-119339683D01*
X156780104Y-119560129D01*
X156779896Y-119798824D01*
X155879896Y-119798824D01*
X155880104Y-119561176D01*
X155788952Y-119340571D01*
X155620317Y-119171641D01*
X155399871Y-119080104D01*
X155161176Y-119079896D01*
X154940571Y-119171048D01*
X154829955Y-119281471D01*
X154720317Y-119171641D01*
X154499871Y-119080104D01*
X154261176Y-119079896D01*
X154040571Y-119171048D01*
X153871641Y-119339683D01*
X153780104Y-119560129D01*
X153779896Y-119798824D01*
X152879896Y-119798824D01*
X152880104Y-119561176D01*
X152788952Y-119340571D01*
X152620317Y-119171641D01*
X152399871Y-119080104D01*
X152161176Y-119079896D01*
X151940571Y-119171048D01*
X151829955Y-119281471D01*
X151720317Y-119171641D01*
X151499871Y-119080104D01*
X151261176Y-119079896D01*
X151040571Y-119171048D01*
X150871641Y-119339683D01*
X150780104Y-119560129D01*
X150779896Y-119798824D01*
X148500000Y-119798824D01*
X148500000Y-119532471D01*
X148590129Y-119569896D01*
X148828824Y-119570104D01*
X149049429Y-119478952D01*
X149218359Y-119310317D01*
X149309896Y-119089871D01*
X149310104Y-118851176D01*
X149218952Y-118630571D01*
X149050317Y-118461641D01*
X148829871Y-118370104D01*
X148591176Y-118369896D01*
X148500000Y-118407569D01*
X148500000Y-117770000D01*
X168750000Y-117770000D01*
X168750000Y-122070000D01*
X168750000Y-122070000D01*
G37*
X168750000Y-122070000D02*
X148500000Y-122070000D01*
X148500000Y-119798824D01*
X150779896Y-119798824D01*
X150871048Y-120019429D01*
X151039683Y-120188359D01*
X151260129Y-120279896D01*
X151498824Y-120280104D01*
X151719429Y-120188952D01*
X151830045Y-120078529D01*
X151939683Y-120188359D01*
X152160129Y-120279896D01*
X152398824Y-120280104D01*
X152619429Y-120188952D01*
X152788359Y-120020317D01*
X152879896Y-119799871D01*
X152879896Y-119798824D01*
X153779896Y-119798824D01*
X153871048Y-120019429D01*
X154039683Y-120188359D01*
X154260129Y-120279896D01*
X154498824Y-120280104D01*
X154719429Y-120188952D01*
X154830045Y-120078529D01*
X154939683Y-120188359D01*
X155160129Y-120279896D01*
X155398824Y-120280104D01*
X155619429Y-120188952D01*
X155788359Y-120020317D01*
X155879896Y-119799871D01*
X155879896Y-119798824D01*
X156779896Y-119798824D01*
X156871048Y-120019429D01*
X157039683Y-120188359D01*
X157260129Y-120279896D01*
X157498824Y-120280104D01*
X157719429Y-120188952D01*
X157830045Y-120078529D01*
X157939683Y-120188359D01*
X158160129Y-120279896D01*
X158398824Y-120280104D01*
X158619429Y-120188952D01*
X158788359Y-120020317D01*
X158879896Y-119799871D01*
X158879896Y-119798824D01*
X159779896Y-119798824D01*
X159871048Y-120019429D01*
X160039683Y-120188359D01*
X160260129Y-120279896D01*
X160498824Y-120280104D01*
X160719429Y-120188952D01*
X160830045Y-120078529D01*
X160939683Y-120188359D01*
X161160129Y-120279896D01*
X161398824Y-120280104D01*
X161619429Y-120188952D01*
X161788359Y-120020317D01*
X161879896Y-119799871D01*
X161879896Y-119798824D01*
X162779896Y-119798824D01*
X162871048Y-120019429D01*
X163039683Y-120188359D01*
X163260129Y-120279896D01*
X163498824Y-120280104D01*
X163719429Y-120188952D01*
X163830045Y-120078529D01*
X163939683Y-120188359D01*
X164160129Y-120279896D01*
X164398824Y-120280104D01*
X164619429Y-120188952D01*
X164788359Y-120020317D01*
X164879896Y-119799871D01*
X164880104Y-119561176D01*
X164788952Y-119340571D01*
X164620317Y-119171641D01*
X164399871Y-119080104D01*
X164161176Y-119079896D01*
X163940571Y-119171048D01*
X163829955Y-119281471D01*
X163720317Y-119171641D01*
X163499871Y-119080104D01*
X163261176Y-119079896D01*
X163040571Y-119171048D01*
X162871641Y-119339683D01*
X162780104Y-119560129D01*
X162779896Y-119798824D01*
X161879896Y-119798824D01*
X161880104Y-119561176D01*
X161788952Y-119340571D01*
X161620317Y-119171641D01*
X161399871Y-119080104D01*
X161161176Y-119079896D01*
X160940571Y-119171048D01*
X160829955Y-119281471D01*
X160720317Y-119171641D01*
X160499871Y-119080104D01*
X160261176Y-119079896D01*
X160040571Y-119171048D01*
X159871641Y-119339683D01*
X159780104Y-119560129D01*
X159779896Y-119798824D01*
X158879896Y-119798824D01*
X158880104Y-119561176D01*
X158788952Y-119340571D01*
X158620317Y-119171641D01*
X158399871Y-119080104D01*
X158161176Y-119079896D01*
X157940571Y-119171048D01*
X157829955Y-119281471D01*
X157720317Y-119171641D01*
X157499871Y-119080104D01*
X157261176Y-119079896D01*
X157040571Y-119171048D01*
X156871641Y-119339683D01*
X156780104Y-119560129D01*
X156779896Y-119798824D01*
X155879896Y-119798824D01*
X155880104Y-119561176D01*
X155788952Y-119340571D01*
X155620317Y-119171641D01*
X155399871Y-119080104D01*
X155161176Y-119079896D01*
X154940571Y-119171048D01*
X154829955Y-119281471D01*
X154720317Y-119171641D01*
X154499871Y-119080104D01*
X154261176Y-119079896D01*
X154040571Y-119171048D01*
X153871641Y-119339683D01*
X153780104Y-119560129D01*
X153779896Y-119798824D01*
X152879896Y-119798824D01*
X152880104Y-119561176D01*
X152788952Y-119340571D01*
X152620317Y-119171641D01*
X152399871Y-119080104D01*
X152161176Y-119079896D01*
X151940571Y-119171048D01*
X151829955Y-119281471D01*
X151720317Y-119171641D01*
X151499871Y-119080104D01*
X151261176Y-119079896D01*
X151040571Y-119171048D01*
X150871641Y-119339683D01*
X150780104Y-119560129D01*
X150779896Y-119798824D01*
X148500000Y-119798824D01*
X148500000Y-119532471D01*
X148590129Y-119569896D01*
X148828824Y-119570104D01*
X149049429Y-119478952D01*
X149218359Y-119310317D01*
X149309896Y-119089871D01*
X149310104Y-118851176D01*
X149218952Y-118630571D01*
X149050317Y-118461641D01*
X148829871Y-118370104D01*
X148591176Y-118369896D01*
X148500000Y-118407569D01*
X148500000Y-117770000D01*
X168750000Y-117770000D01*
X168750000Y-122070000D01*
M02*
