M48
;DRILL file {KiCad 4.0.7} date 05/24/18 10:46:59
;FORMAT={-:-/ absolute / inch / decimal}
FMAT,2
INCH,TZ
T1C0.012
%
G90
G05
M72
T1
X5.5146Y-4.7732
X5.6035Y-4.7638
X5.8547Y-4.6839
X5.8602Y-4.7902
X5.8835Y-4.6189
X5.9543Y-4.5209
X5.9598Y-4.7118
X5.9669Y-4.7902
X5.9953Y-4.7118
X6.0012Y-4.5815
X6.0484Y-4.5815
X6.078Y-4.7118
X6.0957Y-4.5815
X6.0965Y-4.7902
X6.1134Y-4.7118
X6.1429Y-4.5815
X6.1752Y-4.7902
X6.1902Y-4.5815
X6.1961Y-4.7118
X6.2315Y-4.7118
X6.2374Y-4.5815
X6.2543Y-4.7902
X6.2846Y-4.5815
X6.3142Y-4.7118
X6.3319Y-4.5815
X6.3327Y-4.7902
X6.3496Y-4.7118
X6.3791Y-4.5815
X6.4118Y-4.7902
X6.4323Y-4.7118
X6.4677Y-4.7118
X6.49Y-4.79
X6.5343Y-4.7118
X6.6124Y-4.7903
T0
M30
