G04 #@! TF.FileFunction,Soldermask,Bot*
%FSLAX46Y46*%
G04 Gerber Fmt 4.6, Leading zero omitted, Abs format (unit mm)*
G04 Created by KiCad (PCBNEW 4.0.7) date 05/24/18 10:42:32*
%MOMM*%
%LPD*%
G01*
G04 APERTURE LIST*
%ADD10C,0.100000*%
%ADD11C,0.800000*%
%ADD12R,0.750000X2.900000*%
%ADD13C,0.820000*%
G04 APERTURE END LIST*
D10*
D11*
X148500000Y-50110000D03*
X149300000Y-50110000D03*
X150100000Y-50110000D03*
X150900000Y-50110000D03*
X151700000Y-50110000D03*
X152500000Y-50110000D03*
X153300000Y-50110000D03*
X154100000Y-50110000D03*
X154900000Y-50110000D03*
X155700000Y-50110000D03*
X156500000Y-50110000D03*
X157300000Y-50110000D03*
X160440000Y-50110000D03*
X161240000Y-50110000D03*
X162040000Y-50110000D03*
X162840000Y-50110000D03*
X163640000Y-50110000D03*
X164440000Y-50110000D03*
X165240000Y-50110000D03*
X166040000Y-50110000D03*
X166840000Y-50110000D03*
X167640000Y-50110000D03*
X168440000Y-50110000D03*
X169240000Y-50110000D03*
X160440000Y-68110000D03*
X161240000Y-68110000D03*
X162040000Y-68110000D03*
X162840000Y-68110000D03*
X163640000Y-68110000D03*
X164440000Y-68110000D03*
X165240000Y-68110000D03*
X166040000Y-68110000D03*
X166840000Y-68110000D03*
X167640000Y-68110000D03*
X168440000Y-68110000D03*
X169240000Y-68110000D03*
X148500000Y-68110000D03*
X149300000Y-68110000D03*
X150100000Y-68110000D03*
X150900000Y-68110000D03*
X151700000Y-68110000D03*
X152500000Y-68110000D03*
X153300000Y-68110000D03*
X154100000Y-68110000D03*
X154900000Y-68110000D03*
X155700000Y-68110000D03*
X156500000Y-68110000D03*
X157300000Y-68110000D03*
D12*
X167880000Y-108360000D03*
X167380000Y-108360000D03*
X166880000Y-108360000D03*
X166380000Y-108360000D03*
X165880000Y-108360000D03*
X163380000Y-108360000D03*
X162880000Y-108360000D03*
X162380000Y-108360000D03*
X161880000Y-108360000D03*
X161380000Y-108360000D03*
X160880000Y-108360000D03*
X160380000Y-108360000D03*
X159880000Y-108360000D03*
X159380000Y-108360000D03*
X158880000Y-108360000D03*
X158380000Y-108360000D03*
X157880000Y-108360000D03*
X157380000Y-108360000D03*
X156880000Y-108360000D03*
X156380000Y-108360000D03*
X155880000Y-108360000D03*
X155380000Y-108360000D03*
X154880000Y-108360000D03*
X154380000Y-108360000D03*
X153880000Y-108360000D03*
X151380000Y-108360000D03*
X150880000Y-108360000D03*
X150380000Y-108360000D03*
X149880000Y-108360000D03*
X165380000Y-108360000D03*
X164880000Y-108360000D03*
X164380000Y-108360000D03*
X163880000Y-108360000D03*
D13*
X151440000Y-99480000D03*
X166340000Y-99480000D03*
M02*
