%TF.GenerationSoftware,KiCad,Pcbnew,4.0.7*%
%TF.CreationDate,2018-05-23T21:05:09+03:00*%
%TF.ProjectId,Pci-e,5063692D652E6B696361645F70636200,rev?*%
%TF.FileFunction,Soldermask,Bot*%
%FSLAX46Y46*%
G04 Gerber Fmt 4.6, Leading zero omitted, Abs format (unit mm)*
G04 Created by KiCad (PCBNEW 4.0.7) date 05/23/18 21:05:09*
%MOMM*%
%LPD*%
G01*
G04 APERTURE LIST*
%ADD10C,0.100000*%
%ADD11C,0.900000*%
%ADD12C,2.650000*%
%ADD13R,1.960000X3.150000*%
%ADD14R,2.500000X1.800000*%
%ADD15R,3.000000X3.000000*%
%ADD16C,3.000000*%
%ADD17C,3.300000*%
%ADD18R,2.000000X2.600000*%
%ADD19O,2.000000X2.600000*%
%ADD20C,4.500000*%
%ADD21R,2.800000X2.800000*%
%ADD22C,2.800000*%
%ADD23C,0.800000*%
G04 APERTURE END LIST*
D10*
D11*
X-10649999Y-3260001D03*
X-11649999Y-1260001D03*
X-8649999Y-3260001D03*
X-6649999Y-3260001D03*
X-4649999Y-3260001D03*
X-2649999Y-3260001D03*
X-9649999Y-1260001D03*
X-7649999Y-1260001D03*
X-5649999Y-1260001D03*
X-3649999Y-1260001D03*
X-1649999Y-1260001D03*
X-11649999Y1239999D03*
X-10649999Y3239999D03*
X-8649999Y3239999D03*
X-9649999Y1239999D03*
X-6649999Y3239999D03*
X-7649999Y1239999D03*
X-2649999Y3239999D03*
X-3649999Y1239999D03*
X-5649999Y1239999D03*
X-4649999Y3239999D03*
X-1649999Y1239999D03*
X1350001Y-3260001D03*
X2350001Y-1260001D03*
X2350001Y1239999D03*
X1350001Y3239999D03*
D12*
X1Y-1D03*
D11*
X3350001Y-3260001D03*
X5350001Y-3260001D03*
X7350001Y-3260001D03*
X9350001Y-3260001D03*
X11350001Y-3260001D03*
X13350001Y-3260001D03*
X15350001Y-3260001D03*
X17350001Y-3260001D03*
X19350001Y-3260001D03*
X21350001Y-3260001D03*
X3350001Y3239999D03*
X5350001Y3239999D03*
X7350001Y3239999D03*
X9350001Y3239999D03*
X11350001Y3239999D03*
X13350001Y3239999D03*
X15350001Y3239999D03*
X17350001Y3239999D03*
X19350001Y3239999D03*
X21350001Y3239999D03*
X4350001Y1239999D03*
X6350001Y1239999D03*
X8350001Y1239999D03*
X10350001Y1239999D03*
X12350001Y1239999D03*
X14350001Y1239999D03*
X16350001Y1239999D03*
X18350001Y1239999D03*
X20350001Y1239999D03*
X4350001Y-1260001D03*
X6350001Y-1260001D03*
X8350001Y-1260001D03*
X10350001Y-1260001D03*
X12350001Y-1260001D03*
X14350001Y-1260001D03*
X16350001Y-1260001D03*
X18350001Y-1260001D03*
X20350001Y-1260001D03*
D12*
X73150001Y-1D03*
D11*
X22350001Y-1260001D03*
X23350001Y-3260001D03*
X24350001Y-1260001D03*
X25350001Y-3260001D03*
X26350001Y-1260001D03*
X27350001Y-3260001D03*
X28350001Y-1260001D03*
X29350001Y-3260001D03*
X30350001Y-1260001D03*
X31350001Y-3260001D03*
X32350001Y-1260001D03*
X33350001Y-3260001D03*
X34350001Y-1260001D03*
X35350001Y-3260001D03*
X36350001Y-1260001D03*
X37350001Y-3260001D03*
X38350001Y-1260001D03*
X39350001Y-3260001D03*
X40350001Y-1260001D03*
X41350001Y-3260001D03*
X42350001Y-1260001D03*
X43350001Y-3260001D03*
X44350001Y-1260001D03*
X45350001Y-3260001D03*
X46350001Y-1260001D03*
X47350001Y-3260001D03*
X48350001Y-1260001D03*
X49350001Y-3260001D03*
X50350001Y-1260001D03*
X51350001Y-3260001D03*
X52350001Y-1260001D03*
X53350001Y-3260001D03*
X54350001Y-1260001D03*
X55350001Y-3260001D03*
X56350001Y-1260001D03*
X57350001Y-3260001D03*
X58350001Y-1260001D03*
X59350001Y-3260001D03*
X60350001Y-1260001D03*
X61350001Y-3260001D03*
X62350001Y-1260001D03*
X63350001Y-3260001D03*
X64350001Y-1260001D03*
X65350001Y-3260001D03*
X66350001Y-1260001D03*
X67350001Y-3260001D03*
X68350001Y-1260001D03*
X69350001Y-3260001D03*
X70350001Y-1260001D03*
X71350001Y-3260001D03*
X22350001Y1239999D03*
X23350001Y3239999D03*
X24350001Y1239999D03*
X25350001Y3239999D03*
X26350001Y1239999D03*
X27350001Y3239999D03*
X28350001Y1239999D03*
X29350001Y3239999D03*
X30350001Y1239999D03*
X31350001Y3239999D03*
X32350001Y1239999D03*
X33350001Y3239999D03*
X34350001Y1239999D03*
X35350001Y3239999D03*
X36350001Y1239999D03*
X37350001Y3239999D03*
X38350001Y1239999D03*
X39350001Y3239999D03*
X40350001Y1239999D03*
X41350001Y3239999D03*
X42350001Y1239999D03*
X43350001Y3239999D03*
X44350001Y1239999D03*
X45350001Y3239999D03*
X46350001Y1239999D03*
X47350001Y3239999D03*
X48350001Y1239999D03*
X49350001Y3239999D03*
X50350001Y1239999D03*
X51350001Y3239999D03*
X52350001Y1239999D03*
X53350001Y3239999D03*
X54350001Y1239999D03*
X55350001Y3239999D03*
X56350001Y1239999D03*
X57350001Y3239999D03*
X58350001Y1239999D03*
X59350001Y3239999D03*
X60350001Y1239999D03*
X61350001Y3239999D03*
X62350001Y1239999D03*
X63350001Y3239999D03*
X64350001Y1239999D03*
X65350001Y3239999D03*
X66350001Y1239999D03*
X67350001Y3239999D03*
X68350001Y1239999D03*
X69350001Y3239999D03*
X70350001Y1239999D03*
X71350001Y3239999D03*
D13*
X-37650000Y-10910000D03*
X-32730000Y-10910000D03*
D14*
X-36210000Y-16420000D03*
X-32210000Y-16420000D03*
D15*
X-26790000Y-7080000D03*
D16*
X-30990000Y-7080000D03*
X-35190000Y-7080000D03*
X-39390000Y-7080000D03*
X-26790000Y-1580000D03*
X-30990000Y-1580000D03*
X-35190000Y-1580000D03*
X-39390000Y-1580000D03*
D17*
X-26790000Y-14380000D03*
X-39390000Y-14380000D03*
D18*
X-14660000Y-7090000D03*
D19*
X-12120000Y-7090000D03*
X-9580000Y-7090000D03*
D20*
X-52860000Y6990000D03*
X78840000Y6990000D03*
X78840000Y-18010000D03*
X-20160000Y-18010000D03*
D21*
X-46822000Y7786000D03*
D22*
X-41322000Y7786000D03*
D23*
X-700000Y-10190000D03*
X14200000Y-10190000D03*
X18500000Y-10190000D03*
X33400000Y-10190000D03*
X37700000Y-10190000D03*
X52600000Y-10190000D03*
X56900000Y-10190000D03*
X71800000Y-10190000D03*
M02*
