M48
;DRILL file {KiCad 4.0.7} date 05/23/18 21:06:17
;FORMAT={-:-/ absolute / metric / decimal}
FMAT,2
METRIC,TZ
T1C0.300
T2C0.600
T3C1.200
T4C1.400
T5C1.800
T6C3.100
%
G90
G05
M71
T1
X108.84Y-89.59
X108.84Y-91.09
X108.84Y-92.59
X108.84Y-94.09
X108.84Y-95.59
X108.84Y-97.09
X108.84Y-98.59
X108.84Y-100.09
X108.84Y-101.59
X108.84Y-103.09
X108.84Y-104.59
X109.99Y-95.59
X109.99Y-100.09
X111.14Y-95.59
X111.14Y-100.09
X112.29Y-100.09
X115.44Y-97.09
X115.44Y-98.59
X115.44Y-100.09
X115.44Y-101.59
X115.44Y-103.09
X115.44Y-104.59
X116.16Y-106.07
X116.59Y-100.09
X116.59Y-104.59
X117.74Y-100.09
X117.74Y-104.59
X118.89Y-100.09
X118.89Y-104.59
X119.8Y-111.21
X120.04Y-97.09
X120.04Y-98.59
X120.04Y-100.09
X120.04Y-101.59
X120.04Y-103.09
X120.32Y-85.62
X121.19Y-97.09
X121.19Y-98.59
X121.19Y-100.09
X121.19Y-101.59
X121.19Y-103.09
X121.47Y-85.62
X122.62Y-85.62
X123.77Y-81.12
X123.77Y-85.62
X124.92Y-81.12
X124.92Y-82.62
X124.92Y-84.12
X124.92Y-85.62
X127.93Y-86.64
X130.83Y-105.07
X131.98Y-105.07
X133.13Y-105.07
X134.28Y-105.07
X134.45Y-87.49
X135.43Y-105.07
X137.89Y-83.6
X137.89Y-84.6
X138.89Y-83.6
X138.89Y-84.6
X141.07Y-86.2
X141.54Y-98.36
X142.54Y-98.36
X143.54Y-98.36
X144.54Y-98.36
X145.01Y-87.31
X145.54Y-98.36
X146.3Y-102.06
X146.54Y-98.36
X146.9Y-84.17
X147.1Y-102.06
X147.62Y-86.89
X148.68Y-86.89
X159.72Y-95.39
X162.92Y-81.58
X162.92Y-82.42
X162.92Y-83.26
X163.19Y-98.06
X164.501Y-99.079
X166.75Y-100.78
X167.95Y-100.78
X168.1Y-98.5
X169.Y-98.5
X169.15Y-100.78
X170.35Y-100.78
X170.5Y-98.5
X171.4Y-98.5
X171.55Y-100.78
X172.75Y-100.78
X172.9Y-98.5
X173.8Y-98.5
X173.95Y-100.78
X175.15Y-100.78
X175.3Y-98.5
X176.2Y-98.5
X176.35Y-100.78
X185.95Y-100.78
X186.1Y-98.5
X187.Y-98.5
X187.15Y-100.78
X188.35Y-100.78
X188.5Y-98.5
X189.4Y-98.5
X189.55Y-100.78
X190.75Y-100.78
X190.9Y-98.5
X191.8Y-98.5
X191.95Y-100.78
X193.15Y-100.78
X193.3Y-98.5
X194.2Y-98.5
X194.35Y-100.78
X195.55Y-100.78
X205.15Y-100.78
X205.3Y-98.5
X206.2Y-98.5
X206.35Y-100.78
X207.55Y-100.78
X207.7Y-98.5
X208.6Y-98.5
X208.75Y-100.78
X209.95Y-100.78
X210.1Y-98.5
X211.Y-98.5
X211.15Y-100.78
X212.35Y-100.78
X212.5Y-98.5
X213.4Y-98.5
X213.55Y-100.78
X214.75Y-100.78
X224.35Y-100.78
X224.5Y-98.5
X225.4Y-98.5
X225.55Y-100.78
X226.75Y-100.78
X226.9Y-98.5
X227.8Y-98.5
X227.95Y-100.78
X229.15Y-100.78
X229.3Y-98.5
X230.2Y-98.5
X230.35Y-100.78
X231.55Y-100.78
X231.7Y-98.5
X232.6Y-98.5
X232.75Y-100.78
X233.95Y-100.78
T2
X152.95Y-89.9
X152.95Y-92.4
X153.95Y-87.9
X153.95Y-94.4
X154.95Y-89.9
X154.95Y-92.4
X155.95Y-87.9
X155.95Y-94.4
X156.95Y-89.9
X156.95Y-92.4
X157.95Y-87.9
X157.95Y-94.4
X158.95Y-89.9
X158.95Y-92.4
X159.95Y-87.9
X159.95Y-94.4
X160.95Y-89.9
X160.95Y-92.4
X161.95Y-87.9
X161.95Y-94.4
X162.95Y-89.9
X162.95Y-92.4
X165.95Y-87.9
X165.95Y-94.4
X166.95Y-89.9
X166.95Y-92.4
X167.95Y-87.9
X167.95Y-94.4
X168.95Y-89.9
X168.95Y-92.4
X169.95Y-87.9
X169.95Y-94.4
X170.95Y-89.9
X170.95Y-92.4
X171.95Y-87.9
X171.95Y-94.4
X172.95Y-89.9
X172.95Y-92.4
X173.95Y-87.9
X173.95Y-94.4
X174.95Y-89.9
X174.95Y-92.4
X175.95Y-87.9
X175.95Y-94.4
X176.95Y-89.9
X176.95Y-92.4
X177.95Y-87.9
X177.95Y-94.4
X178.95Y-89.9
X178.95Y-92.4
X179.95Y-87.9
X179.95Y-94.4
X180.95Y-89.9
X180.95Y-92.4
X181.95Y-87.9
X181.95Y-94.4
X182.95Y-89.9
X182.95Y-92.4
X183.95Y-87.9
X183.95Y-94.4
X184.95Y-89.9
X184.95Y-92.4
X185.95Y-87.9
X185.95Y-94.4
X186.95Y-89.9
X186.95Y-92.4
X187.95Y-87.9
X187.95Y-94.4
X188.95Y-89.9
X188.95Y-92.4
X189.95Y-87.9
X189.95Y-94.4
X190.95Y-89.9
X190.95Y-92.4
X191.95Y-87.9
X191.95Y-94.4
X192.95Y-89.9
X192.95Y-92.4
X193.95Y-87.9
X193.95Y-94.4
X194.95Y-89.9
X194.95Y-92.4
X195.95Y-87.9
X195.95Y-94.4
X196.95Y-89.9
X196.95Y-92.4
X197.95Y-87.9
X197.95Y-94.4
X198.95Y-89.9
X198.95Y-92.4
X199.95Y-87.9
X199.95Y-94.4
X200.95Y-89.9
X200.95Y-92.4
X201.95Y-87.9
X201.95Y-94.4
X202.95Y-89.9
X202.95Y-92.4
X203.95Y-87.9
X203.95Y-94.4
X204.95Y-89.9
X204.95Y-92.4
X205.95Y-87.9
X205.95Y-94.4
X206.95Y-89.9
X206.95Y-92.4
X207.95Y-87.9
X207.95Y-94.4
X208.95Y-89.9
X208.95Y-92.4
X209.95Y-87.9
X209.95Y-94.4
X210.95Y-89.9
X210.95Y-92.4
X211.95Y-87.9
X211.95Y-94.4
X212.95Y-89.9
X212.95Y-92.4
X213.95Y-87.9
X213.95Y-94.4
X214.95Y-89.9
X214.95Y-92.4
X215.95Y-87.9
X215.95Y-94.4
X216.95Y-89.9
X216.95Y-92.4
X217.95Y-87.9
X217.95Y-94.4
X218.95Y-89.9
X218.95Y-92.4
X219.95Y-87.9
X219.95Y-94.4
X220.95Y-89.9
X220.95Y-92.4
X221.95Y-87.9
X221.95Y-94.4
X222.95Y-89.9
X222.95Y-92.4
X223.95Y-87.9
X223.95Y-94.4
X224.95Y-89.9
X224.95Y-92.4
X225.95Y-87.9
X225.95Y-94.4
X226.95Y-89.9
X226.95Y-92.4
X227.95Y-87.9
X227.95Y-94.4
X228.95Y-89.9
X228.95Y-92.4
X229.95Y-87.9
X229.95Y-94.4
X230.95Y-89.9
X230.95Y-92.4
X231.95Y-87.9
X231.95Y-94.4
X232.95Y-89.9
X232.95Y-92.4
X233.95Y-87.9
X233.95Y-94.4
X234.95Y-89.9
X234.95Y-92.4
X235.95Y-87.9
X235.95Y-94.4
T3
X149.94Y-98.23
X152.48Y-98.23
X155.02Y-98.23
T4
X117.778Y-83.354
X123.278Y-83.354
T5
X125.21Y-92.72
X125.21Y-98.22
X129.41Y-92.72
X129.41Y-98.22
X133.61Y-92.72
X133.61Y-98.22
X137.81Y-92.72
X137.81Y-98.22
T6
X111.74Y-84.15
X144.44Y-109.15
X243.44Y-84.15
X243.44Y-109.15
T0
M30
