M48
;DRILL file {KiCad 4.0.7} date 05/24/18 10:42:35
;FORMAT={-:-/ absolute / inch / decimal}
FMAT,2
INCH,TZ
T1C0.016
T2C0.031
%
G90
G05
M72
T2
X5.9622Y-3.9165
X6.5488Y-3.9165
T1
X5.8465Y-1.9728G85X5.8465Y-1.9728
G05
X5.8465Y-2.6815G85X5.8465Y-2.6815
G05
X5.878Y-1.9728G85X5.878Y-1.9728
G05
X5.878Y-2.6815G85X5.878Y-2.6815
G05
X5.9094Y-1.9728G85X5.9094Y-1.9728
G05
X5.9094Y-2.6815G85X5.9094Y-2.6815
G05
X5.9409Y-1.9728G85X5.9409Y-1.9728
G05
X5.9409Y-2.6815G85X5.9409Y-2.6815
G05
X5.9724Y-1.9728G85X5.9724Y-1.9728
G05
X5.9724Y-2.6815G85X5.9724Y-2.6815
G05
X6.0039Y-1.9728G85X6.0039Y-1.9728
G05
X6.0039Y-2.6815G85X6.0039Y-2.6815
G05
X6.0354Y-1.9728G85X6.0354Y-1.9728
G05
X6.0354Y-2.6815G85X6.0354Y-2.6815
G05
X6.0669Y-1.9728G85X6.0669Y-1.9728
G05
X6.0669Y-2.6815G85X6.0669Y-2.6815
G05
X6.0984Y-1.9728G85X6.0984Y-1.9728
G05
X6.0984Y-2.6815G85X6.0984Y-2.6815
G05
X6.1299Y-1.9728G85X6.1299Y-1.9728
G05
X6.1299Y-2.6815G85X6.1299Y-2.6815
G05
X6.1614Y-1.9728G85X6.1614Y-1.9728
G05
X6.1614Y-2.6815G85X6.1614Y-2.6815
G05
X6.1929Y-1.9728G85X6.1929Y-1.9728
G05
X6.1929Y-2.6815G85X6.1929Y-2.6815
G05
X6.3165Y-1.9728G85X6.3165Y-1.9728
G05
X6.3165Y-2.6815G85X6.3165Y-2.6815
G05
X6.348Y-1.9728G85X6.348Y-1.9728
G05
X6.348Y-2.6815G85X6.348Y-2.6815
G05
X6.3795Y-1.9728G85X6.3795Y-1.9728
G05
X6.3795Y-2.6815G85X6.3795Y-2.6815
G05
X6.411Y-1.9728G85X6.411Y-1.9728
G05
X6.411Y-2.6815G85X6.411Y-2.6815
G05
X6.4425Y-1.9728G85X6.4425Y-1.9728
G05
X6.4425Y-2.6815G85X6.4425Y-2.6815
G05
X6.474Y-1.9728G85X6.474Y-1.9728
G05
X6.474Y-2.6815G85X6.474Y-2.6815
G05
X6.5055Y-1.9728G85X6.5055Y-1.9728
G05
X6.5055Y-2.6815G85X6.5055Y-2.6815
G05
X6.537Y-1.9728G85X6.537Y-1.9728
G05
X6.537Y-2.6815G85X6.537Y-2.6815
G05
X6.5685Y-1.9728G85X6.5685Y-1.9728
G05
X6.5685Y-2.6815G85X6.5685Y-2.6815
G05
X6.6Y-1.9728G85X6.6Y-1.9728
G05
X6.6Y-2.6815G85X6.6Y-2.6815
G05
X6.6315Y-1.9728G85X6.6315Y-1.9728
G05
X6.6315Y-2.6815G85X6.6315Y-2.6815
G05
X6.663Y-1.9728G85X6.663Y-1.9728
G05
X6.663Y-2.6815G85X6.663Y-2.6815
G05
T0
M30
