M48
;DRILL file {KiCad 4.0.7} date 05/24/18 10:42:35
;FORMAT={-:-/ absolute / inch / decimal}
FMAT,2
INCH,TZ
T1C0.012
%
G90
G05
M72
T1
X5.9555Y-4.1744
X5.9835Y-4.0378
X6.028Y-4.0854
X6.0421Y-4.0524
X6.0496Y-4.1968
X6.0744Y-3.9382
X6.1173Y-4.1748
X6.1217Y-3.9382
X6.1689Y-3.9382
X6.1862Y-4.1975
X6.2161Y-3.9382
X6.2453Y-4.1975
X6.2634Y-3.9382
X6.3043Y-4.1975
X6.3106Y-3.9382
X6.3579Y-3.9382
X6.3634Y-4.1975
X6.4051Y-3.9382
X6.4224Y-4.1975
X6.4524Y-3.9382
X6.4815Y-4.1975
X6.5405Y-4.1975
X6.5996Y-4.1975
T0
M30
