G04 #@! TF.FileFunction,Copper,L2,Inr,Signal*
%FSLAX46Y46*%
G04 Gerber Fmt 4.6, Leading zero omitted, Abs format (unit mm)*
G04 Created by KiCad (PCBNEW 4.0.7) date 05/24/18 10:42:32*
%MOMM*%
%LPD*%
G01*
G04 APERTURE LIST*
%ADD10C,0.100000*%
%ADD11C,0.600000*%
%ADD12C,0.200000*%
%ADD13C,0.250000*%
%ADD14C,0.254000*%
G04 APERTURE END LIST*
D10*
D11*
X153470000Y-102930000D03*
X153110000Y-103770000D03*
X151980000Y-102560000D03*
X167629458Y-106615573D03*
X163890000Y-100030000D03*
X162690000Y-100030000D03*
X161490000Y-100030000D03*
X166129458Y-106615573D03*
X164629458Y-106615573D03*
X163129458Y-106615573D03*
X157129458Y-106615573D03*
X154290000Y-100030000D03*
X160290000Y-100030000D03*
X159090000Y-100030000D03*
X157890000Y-100030000D03*
X156690000Y-100030000D03*
X155490000Y-100030000D03*
X155380000Y-106040000D03*
X153660226Y-106599774D03*
X151270000Y-106030000D03*
X161629458Y-106615573D03*
X160129458Y-106615573D03*
X158629458Y-106615573D03*
D12*
X163890000Y-100454264D02*
X163890000Y-101430000D01*
X162690000Y-100454264D02*
X162690000Y-101430000D01*
X161490000Y-100454264D02*
X161490000Y-101430000D01*
X163890000Y-100030000D02*
X163890000Y-100454264D01*
X162690000Y-100030000D02*
X162690000Y-100454264D01*
X161490000Y-100030000D02*
X161490000Y-100454264D01*
D13*
X155380000Y-106040000D02*
X155380000Y-105615736D01*
X155490000Y-105505736D02*
X155490000Y-101430000D01*
X155380000Y-105615736D02*
X155490000Y-105505736D01*
D12*
X160290000Y-100030000D02*
X160290000Y-100454264D01*
X159090000Y-100030000D02*
X159090000Y-100454264D01*
X157890000Y-100030000D02*
X157890000Y-100454264D01*
X156690000Y-100030000D02*
X156690000Y-100454264D01*
X155490000Y-100030000D02*
X155490000Y-100454264D01*
X160290000Y-100454264D02*
X160290000Y-101430000D01*
X159090000Y-100454264D02*
X159090000Y-101430000D01*
X157890000Y-100454264D02*
X157890000Y-101430000D01*
X156690000Y-100454264D02*
X156690000Y-101430000D01*
X155490000Y-100454264D02*
X155490000Y-101430000D01*
X154290000Y-100454264D02*
X154290000Y-101430000D01*
X154290000Y-100030000D02*
X154290000Y-100454264D01*
D14*
G36*
X167921790Y-101487692D02*
X168041991Y-101568009D01*
X168122308Y-101688210D01*
X168153000Y-101842509D01*
X168153000Y-107097491D01*
X168122308Y-107251790D01*
X168041991Y-107371991D01*
X167921790Y-107452308D01*
X167767491Y-107483000D01*
X153772000Y-107483000D01*
X153772000Y-107200000D01*
X153764276Y-107161168D01*
X153764276Y-107131574D01*
X153717843Y-106898138D01*
X153717843Y-106898135D01*
X153676365Y-106798000D01*
X153657819Y-106753224D01*
X153657815Y-106753220D01*
X153525589Y-106555331D01*
X153525587Y-106555326D01*
X153470130Y-106499870D01*
X153414674Y-106444413D01*
X153414669Y-106444411D01*
X153216780Y-106312185D01*
X153216776Y-106312181D01*
X153121589Y-106272754D01*
X153071864Y-106252157D01*
X153071862Y-106252157D01*
X152838429Y-106205725D01*
X152838427Y-106205724D01*
X152681572Y-106205724D01*
X152448138Y-106252157D01*
X152448135Y-106252157D01*
X152384470Y-106278528D01*
X152303224Y-106312181D01*
X152303220Y-106312185D01*
X152105331Y-106444411D01*
X152105326Y-106444413D01*
X152049870Y-106499870D01*
X151994413Y-106555326D01*
X151994411Y-106555331D01*
X151862185Y-106753220D01*
X151862181Y-106753224D01*
X151843635Y-106798000D01*
X151802157Y-106898136D01*
X151802157Y-106898138D01*
X151755724Y-107131575D01*
X151755724Y-107161168D01*
X151748000Y-107200000D01*
X151748000Y-107483000D01*
X151532509Y-107483000D01*
X151378210Y-107452308D01*
X151258009Y-107371991D01*
X151177692Y-107251790D01*
X151147000Y-107097491D01*
X151147000Y-103894171D01*
X152482891Y-103894171D01*
X152578145Y-104124703D01*
X152754369Y-104301235D01*
X152984735Y-104396891D01*
X153234171Y-104397109D01*
X153464703Y-104301855D01*
X153641235Y-104125631D01*
X153736891Y-103895265D01*
X153737109Y-103645829D01*
X153684952Y-103519599D01*
X153824703Y-103461855D01*
X154001235Y-103285631D01*
X154096891Y-103055265D01*
X154097109Y-102805829D01*
X154001855Y-102575297D01*
X153825631Y-102398765D01*
X153595265Y-102303109D01*
X153345829Y-102302891D01*
X153115297Y-102398145D01*
X152938765Y-102574369D01*
X152843109Y-102804735D01*
X152842891Y-103054171D01*
X152895048Y-103180401D01*
X152755297Y-103238145D01*
X152578765Y-103414369D01*
X152483109Y-103644735D01*
X152482891Y-103894171D01*
X151147000Y-103894171D01*
X151147000Y-102684171D01*
X151352891Y-102684171D01*
X151448145Y-102914703D01*
X151624369Y-103091235D01*
X151854735Y-103186891D01*
X152104171Y-103187109D01*
X152334703Y-103091855D01*
X152511235Y-102915631D01*
X152606891Y-102685265D01*
X152607109Y-102435829D01*
X152511855Y-102205297D01*
X152335631Y-102028765D01*
X152105265Y-101933109D01*
X151855829Y-101932891D01*
X151625297Y-102028145D01*
X151448765Y-102204369D01*
X151353109Y-102434735D01*
X151352891Y-102684171D01*
X151147000Y-102684171D01*
X151147000Y-101842509D01*
X151177692Y-101688210D01*
X151258009Y-101568009D01*
X151378210Y-101487692D01*
X151532509Y-101457000D01*
X167767491Y-101457000D01*
X167921790Y-101487692D01*
X167921790Y-101487692D01*
G37*
X167921790Y-101487692D02*
X168041991Y-101568009D01*
X168122308Y-101688210D01*
X168153000Y-101842509D01*
X168153000Y-107097491D01*
X168122308Y-107251790D01*
X168041991Y-107371991D01*
X167921790Y-107452308D01*
X167767491Y-107483000D01*
X153772000Y-107483000D01*
X153772000Y-107200000D01*
X153764276Y-107161168D01*
X153764276Y-107131574D01*
X153717843Y-106898138D01*
X153717843Y-106898135D01*
X153676365Y-106798000D01*
X153657819Y-106753224D01*
X153657815Y-106753220D01*
X153525589Y-106555331D01*
X153525587Y-106555326D01*
X153470130Y-106499870D01*
X153414674Y-106444413D01*
X153414669Y-106444411D01*
X153216780Y-106312185D01*
X153216776Y-106312181D01*
X153121589Y-106272754D01*
X153071864Y-106252157D01*
X153071862Y-106252157D01*
X152838429Y-106205725D01*
X152838427Y-106205724D01*
X152681572Y-106205724D01*
X152448138Y-106252157D01*
X152448135Y-106252157D01*
X152384470Y-106278528D01*
X152303224Y-106312181D01*
X152303220Y-106312185D01*
X152105331Y-106444411D01*
X152105326Y-106444413D01*
X152049870Y-106499870D01*
X151994413Y-106555326D01*
X151994411Y-106555331D01*
X151862185Y-106753220D01*
X151862181Y-106753224D01*
X151843635Y-106798000D01*
X151802157Y-106898136D01*
X151802157Y-106898138D01*
X151755724Y-107131575D01*
X151755724Y-107161168D01*
X151748000Y-107200000D01*
X151748000Y-107483000D01*
X151532509Y-107483000D01*
X151378210Y-107452308D01*
X151258009Y-107371991D01*
X151177692Y-107251790D01*
X151147000Y-107097491D01*
X151147000Y-103894171D01*
X152482891Y-103894171D01*
X152578145Y-104124703D01*
X152754369Y-104301235D01*
X152984735Y-104396891D01*
X153234171Y-104397109D01*
X153464703Y-104301855D01*
X153641235Y-104125631D01*
X153736891Y-103895265D01*
X153737109Y-103645829D01*
X153684952Y-103519599D01*
X153824703Y-103461855D01*
X154001235Y-103285631D01*
X154096891Y-103055265D01*
X154097109Y-102805829D01*
X154001855Y-102575297D01*
X153825631Y-102398765D01*
X153595265Y-102303109D01*
X153345829Y-102302891D01*
X153115297Y-102398145D01*
X152938765Y-102574369D01*
X152843109Y-102804735D01*
X152842891Y-103054171D01*
X152895048Y-103180401D01*
X152755297Y-103238145D01*
X152578765Y-103414369D01*
X152483109Y-103644735D01*
X152482891Y-103894171D01*
X151147000Y-103894171D01*
X151147000Y-102684171D01*
X151352891Y-102684171D01*
X151448145Y-102914703D01*
X151624369Y-103091235D01*
X151854735Y-103186891D01*
X152104171Y-103187109D01*
X152334703Y-103091855D01*
X152511235Y-102915631D01*
X152606891Y-102685265D01*
X152607109Y-102435829D01*
X152511855Y-102205297D01*
X152335631Y-102028765D01*
X152105265Y-101933109D01*
X151855829Y-101932891D01*
X151625297Y-102028145D01*
X151448765Y-102204369D01*
X151353109Y-102434735D01*
X151352891Y-102684171D01*
X151147000Y-102684171D01*
X151147000Y-101842509D01*
X151177692Y-101688210D01*
X151258009Y-101568009D01*
X151378210Y-101487692D01*
X151532509Y-101457000D01*
X167767491Y-101457000D01*
X167921790Y-101487692D01*
M02*
